<svg height="1261pt" viewBox="0.00 0.00 514.09 1260.84" width="514pt" xmlns="http://www.w3.org/2000/svg" xmlns:xlink="http://www.w3.org/1999/xlink">
<g class="graph" id="graph0" transform="scale(1 1) rotate(0) translate(4 1256.84)">
<polygon fill="white" points="-4,4 -4,-1256.84 510.09,-1256.84 510.09,4 -4,4" stroke="transparent"/>
<!-- 7765469470853249491 -->
<g class="node" id="node1">
<title>7765469470853249491</title>
<ellipse cx="56.54" cy="-368.74" fill="none" rx="24.1" ry="24.1" stroke="black"/>
<text font-family="Times New Roman,serif" font-size="14.00" text-anchor="middle" x="56.54" y="-365.04">mul</text>
</g>
<!-- 829209893322965010 -->
<g class="node" id="node2">
<title>829209893322965010</title>
<polygon fill="none" points="83.54,-464.78 29.54,-464.78 29.54,-428.78 83.54,-428.78 83.54,-464.78" stroke="black"/>
<text font-family="Times New Roman,serif" font-size="14.00" text-anchor="middle" x="56.54" y="-443.08">(0, 0)</text>
</g>
<!-- 7765469470853249491&#45;&gt;829209893322965010 -->
<g class="edge" id="edge1">
<title>7765469470853249491-&gt;829209893322965010</title>
<path d="M56.54,-392.97C56.54,-401.07 56.54,-410.25 56.54,-418.64" fill="none" stroke="black"/>
<polygon fill="black" points="53.05,-418.73 56.54,-428.73 60.05,-418.73 53.05,-418.73" stroke="black"/>
</g>
<!-- 5306126663451204996 -->
<g class="node" id="node25">
<title>5306126663451204996</title>
<ellipse cx="56.54" cy="-557.33" fill="none" rx="56.59" ry="56.59" stroke="black"/>
<text font-family="Times New Roman,serif" font-size="14.00" text-anchor="middle" x="56.54" y="-553.63">mean_chunk</text>
</g>
<!-- 829209893322965010&#45;&gt;5306126663451204996 -->
<g class="edge" id="edge26">
<title>829209893322965010-&gt;5306126663451204996</title>
<path d="M56.54,-465.22C56.54,-472.35 56.54,-481.09 56.54,-490.3" fill="none" stroke="black"/>
<polygon fill="black" points="53.05,-490.42 56.54,-500.42 60.05,-490.42 53.05,-490.42" stroke="black"/>
</g>
<!-- &#45;1072478408621211528 -->
<g class="node" id="node3">
<title>-1072478408621211528</title>
<polygon fill="none" points="83.54,-308.69 29.54,-308.69 29.54,-272.69 83.54,-272.69 83.54,-308.69" stroke="black"/>
<text font-family="Times New Roman,serif" font-size="14.00" text-anchor="middle" x="56.54" y="-286.99">(0, 0)</text>
</g>
<!-- &#45;1072478408621211528&#45;&gt;7765469470853249491 -->
<g class="edge" id="edge2">
<title>-1072478408621211528-&gt;7765469470853249491</title>
<path d="M56.54,-308.95C56.54,-316.5 56.54,-325.64 56.54,-334.44" fill="none" stroke="black"/>
<polygon fill="black" points="53.05,-334.49 56.54,-344.49 60.05,-334.49 53.05,-334.49" stroke="black"/>
</g>
<!-- &#45;116547684700913806 -->
<g class="node" id="node4">
<title>-116547684700913806</title>
<polygon fill="none" points="213.54,-127.9 159.54,-127.9 159.54,-91.9 213.54,-91.9 213.54,-127.9" stroke="black"/>
<text font-family="Times New Roman,serif" font-size="14.00" text-anchor="middle" x="186.54" y="-106.2">(0, 0)</text>
</g>
<!-- &#45;116547684700913806&#45;&gt;7765469470853249491 -->
<g class="edge" id="edge3">
<title>-116547684700913806-&gt;7765469470853249491</title>
<path d="M179.08,-128.12C163.89,-162.84 127.8,-243.47 92.54,-308.69 87.05,-318.85 80.6,-329.72 74.69,-339.33" fill="none" stroke="black"/>
<polygon fill="black" points="71.55,-337.75 69.23,-348.08 77.49,-341.45 71.55,-337.75" stroke="black"/>
</g>
<!-- 4229013425384991748 -->
<g class="node" id="node21">
<title>4229013425384991748</title>
<ellipse cx="218.54" cy="-200.29" fill="none" rx="36.29" ry="36.29" stroke="black"/>
<text font-family="Times New Roman,serif" font-size="14.00" text-anchor="middle" x="218.54" y="-196.59">getitem</text>
</g>
<!-- &#45;116547684700913806&#45;&gt;4229013425384991748 -->
<g class="edge" id="edge18">
<title>-116547684700913806-&gt;4229013425384991748</title>
<path d="M192.71,-127.94C195.66,-136.08 199.33,-146.22 202.97,-156.27" fill="none" stroke="black"/>
<polygon fill="black" points="199.74,-157.61 206.43,-165.83 206.32,-155.23 199.74,-157.61" stroke="black"/>
</g>
<!-- &#45;3374268123637489684 -->
<g class="node" id="node5">
<title>-3374268123637489684</title>
<ellipse cx="318.54" cy="-368.74" fill="none" rx="24.1" ry="24.1" stroke="black"/>
<text font-family="Times New Roman,serif" font-size="14.00" text-anchor="middle" x="318.54" y="-365.04">mul</text>
</g>
<!-- 829209893321799961 -->
<g class="node" id="node6">
<title>829209893321799961</title>
<polygon fill="none" points="345.54,-464.78 291.54,-464.78 291.54,-428.78 345.54,-428.78 345.54,-464.78" stroke="black"/>
<text font-family="Times New Roman,serif" font-size="14.00" text-anchor="middle" x="318.54" y="-443.08">(0, 1)</text>
</g>
<!-- &#45;3374268123637489684&#45;&gt;829209893321799961 -->
<g class="edge" id="edge4">
<title>-3374268123637489684-&gt;829209893321799961</title>
<path d="M318.54,-392.97C318.54,-401.07 318.54,-410.25 318.54,-418.64" fill="none" stroke="black"/>
<polygon fill="black" points="315.05,-418.73 318.54,-428.73 322.05,-418.73 315.05,-418.73" stroke="black"/>
</g>
<!-- &#45;2128355139175108245 -->
<g class="node" id="node27">
<title>-2128355139175108245</title>
<ellipse cx="318.54" cy="-557.33" fill="none" rx="56.59" ry="56.59" stroke="black"/>
<text font-family="Times New Roman,serif" font-size="14.00" text-anchor="middle" x="318.54" y="-553.63">mean_chunk</text>
</g>
<!-- 829209893321799961&#45;&gt;&#45;2128355139175108245 -->
<g class="edge" id="edge28">
<title>829209893321799961-&gt;-2128355139175108245</title>
<path d="M318.54,-465.22C318.54,-472.35 318.54,-481.09 318.54,-490.3" fill="none" stroke="black"/>
<polygon fill="black" points="315.05,-490.42 318.54,-500.42 322.05,-490.42 315.05,-490.42" stroke="black"/>
</g>
<!-- &#45;116547684702078855 -->
<g class="node" id="node7">
<title>-116547684702078855</title>
<polygon fill="none" points="343.54,-127.9 289.54,-127.9 289.54,-91.9 343.54,-91.9 343.54,-127.9" stroke="black"/>
<text font-family="Times New Roman,serif" font-size="14.00" text-anchor="middle" x="316.54" y="-106.2">(0, 1)</text>
</g>
<!-- &#45;116547684702078855&#45;&gt;&#45;3374268123637489684 -->
<g class="edge" id="edge5">
<title>-116547684702078855-&gt;-3374268123637489684</title>
<path d="M311.14,-128.37C308.25,-138.61 305,-151.86 303.54,-163.9 296.28,-224.04 305.38,-294.64 312.24,-334.98" fill="none" stroke="black"/>
<polygon fill="black" points="308.83,-335.81 314.02,-345.05 315.73,-334.59 308.83,-335.81" stroke="black"/>
</g>
<!-- 4382183739681436139 -->
<g class="node" id="node22">
<title>4382183739681436139</title>
<ellipse cx="348.54" cy="-200.29" fill="none" rx="36.29" ry="36.29" stroke="black"/>
<text font-family="Times New Roman,serif" font-size="14.00" text-anchor="middle" x="348.54" y="-196.59">getitem</text>
</g>
<!-- &#45;116547684702078855&#45;&gt;4382183739681436139 -->
<g class="edge" id="edge20">
<title>-116547684702078855-&gt;4382183739681436139</title>
<path d="M322.71,-127.94C325.66,-136.08 329.33,-146.22 332.97,-156.27" fill="none" stroke="black"/>
<polygon fill="black" points="329.74,-157.61 336.43,-165.83 336.32,-155.23 329.74,-157.61" stroke="black"/>
</g>
<!-- &#45;1072478408622376577 -->
<g class="node" id="node8">
<title>-1072478408622376577</title>
<polygon fill="none" points="385.54,-308.69 331.54,-308.69 331.54,-272.69 385.54,-272.69 385.54,-308.69" stroke="black"/>
<text font-family="Times New Roman,serif" font-size="14.00" text-anchor="middle" x="358.54" y="-286.99">(0, 1)</text>
</g>
<!-- &#45;1072478408622376577&#45;&gt;&#45;3374268123637489684 -->
<g class="edge" id="edge6">
<title>-1072478408622376577-&gt;-3374268123637489684</title>
<path d="M349.47,-308.95C344.96,-317.51 339.39,-328.11 334.22,-337.94" fill="none" stroke="black"/>
<polygon fill="black" points="330.99,-336.55 329.43,-347.03 337.19,-339.81 330.99,-336.55" stroke="black"/>
</g>
<!-- &#45;4710526248686312559 -->
<g class="node" id="node9">
<title>-4710526248686312559</title>
<ellipse cx="449.54" cy="-368.74" fill="none" rx="24.1" ry="24.1" stroke="black"/>
<text font-family="Times New Roman,serif" font-size="14.00" text-anchor="middle" x="449.54" y="-365.04">mul</text>
</g>
<!-- 829209893320634912 -->
<g class="node" id="node10">
<title>829209893320634912</title>
<polygon fill="none" points="476.54,-464.78 422.54,-464.78 422.54,-428.78 476.54,-428.78 476.54,-464.78" stroke="black"/>
<text font-family="Times New Roman,serif" font-size="14.00" text-anchor="middle" x="449.54" y="-443.08">(0, 2)</text>
</g>
<!-- &#45;4710526248686312559&#45;&gt;829209893320634912 -->
<g class="edge" id="edge7">
<title>-4710526248686312559-&gt;829209893320634912</title>
<path d="M449.54,-392.97C449.54,-401.07 449.54,-410.25 449.54,-418.64" fill="none" stroke="black"/>
<polygon fill="black" points="446.05,-418.73 449.54,-428.73 453.05,-418.73 446.05,-418.73" stroke="black"/>
</g>
<!-- 3571538108292335330 -->
<g class="node" id="node29">
<title>3571538108292335330</title>
<ellipse cx="449.54" cy="-557.33" fill="none" rx="56.59" ry="56.59" stroke="black"/>
<text font-family="Times New Roman,serif" font-size="14.00" text-anchor="middle" x="449.54" y="-553.63">mean_chunk</text>
</g>
<!-- 829209893320634912&#45;&gt;3571538108292335330 -->
<g class="edge" id="edge30">
<title>829209893320634912-&gt;3571538108292335330</title>
<path d="M449.54,-465.22C449.54,-472.35 449.54,-481.09 449.54,-490.3" fill="none" stroke="black"/>
<polygon fill="black" points="446.05,-490.42 449.54,-500.42 453.05,-490.42 446.05,-490.42" stroke="black"/>
</g>
<!-- &#45;116547684703243904 -->
<g class="node" id="node11">
<title>-116547684703243904</title>
<polygon fill="none" points="498.54,-127.9 444.54,-127.9 444.54,-91.9 498.54,-91.9 498.54,-127.9" stroke="black"/>
<text font-family="Times New Roman,serif" font-size="14.00" text-anchor="middle" x="471.54" y="-106.2">(0, 2)</text>
</g>
<!-- &#45;116547684703243904&#45;&gt;&#45;4710526248686312559 -->
<g class="edge" id="edge8">
<title>-116547684703243904-&gt;-4710526248686312559</title>
<path d="M476.95,-128.37C479.84,-138.61 483.09,-151.86 484.54,-163.9 492.27,-227.78 501.56,-246.63 484.54,-308.69 481.46,-319.95 475.61,-331.24 469.56,-340.89" fill="none" stroke="black"/>
<polygon fill="black" points="466.63,-338.98 464.02,-349.25 472.46,-342.84 466.63,-338.98" stroke="black"/>
</g>
<!-- 1651906010109843298 -->
<g class="node" id="node23">
<title>1651906010109843298</title>
<ellipse cx="439.54" cy="-200.29" fill="none" rx="36.29" ry="36.29" stroke="black"/>
<text font-family="Times New Roman,serif" font-size="14.00" text-anchor="middle" x="439.54" y="-196.59">getitem</text>
</g>
<!-- &#45;116547684703243904&#45;&gt;1651906010109843298 -->
<g class="edge" id="edge22">
<title>-116547684703243904-&gt;1651906010109843298</title>
<path d="M465.38,-127.94C462.43,-136.08 458.76,-146.22 455.12,-156.27" fill="none" stroke="black"/>
<polygon fill="black" points="451.77,-155.23 451.66,-165.83 458.35,-157.61 451.77,-155.23" stroke="black"/>
</g>
<!-- &#45;1072478408618881430 -->
<g class="node" id="node12">
<title>-1072478408618881430</title>
<polygon fill="none" points="475.54,-308.69 421.54,-308.69 421.54,-272.69 475.54,-272.69 475.54,-308.69" stroke="black"/>
<text font-family="Times New Roman,serif" font-size="14.00" text-anchor="middle" x="448.54" y="-286.99">(0, 2)</text>
</g>
<!-- &#45;1072478408618881430&#45;&gt;&#45;4710526248686312559 -->
<g class="edge" id="edge9">
<title>-1072478408618881430-&gt;-4710526248686312559</title>
<path d="M448.77,-308.95C448.87,-316.5 448.99,-325.64 449.11,-334.44" fill="none" stroke="black"/>
<polygon fill="black" points="445.61,-334.54 449.24,-344.49 452.61,-334.45 445.61,-334.54" stroke="black"/>
</g>
<!-- &#45;5706305441793978550 -->
<g class="node" id="node13">
<title>-5706305441793978550</title>
<ellipse cx="187.54" cy="-368.74" fill="none" rx="24.1" ry="24.1" stroke="black"/>
<text font-family="Times New Roman,serif" font-size="14.00" text-anchor="middle" x="187.54" y="-365.04">mul</text>
</g>
<!-- 829209893319469863 -->
<g class="node" id="node14">
<title>829209893319469863</title>
<polygon fill="none" points="214.54,-464.78 160.54,-464.78 160.54,-428.78 214.54,-428.78 214.54,-464.78" stroke="black"/>
<text font-family="Times New Roman,serif" font-size="14.00" text-anchor="middle" x="187.54" y="-443.08">(0, 3)</text>
</g>
<!-- &#45;5706305441793978550&#45;&gt;829209893319469863 -->
<g class="edge" id="edge10">
<title>-5706305441793978550-&gt;829209893319469863</title>
<path d="M187.54,-392.97C187.54,-401.07 187.54,-410.25 187.54,-418.64" fill="none" stroke="black"/>
<polygon fill="black" points="184.05,-418.73 187.54,-428.73 191.05,-418.73 184.05,-418.73" stroke="black"/>
</g>
<!-- 4288831855244058921 -->
<g class="node" id="node31">
<title>4288831855244058921</title>
<ellipse cx="187.54" cy="-557.33" fill="none" rx="56.59" ry="56.59" stroke="black"/>
<text font-family="Times New Roman,serif" font-size="14.00" text-anchor="middle" x="187.54" y="-553.63">mean_chunk</text>
</g>
<!-- 829209893319469863&#45;&gt;4288831855244058921 -->
<g class="edge" id="edge32">
<title>829209893319469863-&gt;4288831855244058921</title>
<path d="M187.54,-465.22C187.54,-472.35 187.54,-481.09 187.54,-490.3" fill="none" stroke="black"/>
<polygon fill="black" points="184.05,-490.42 187.54,-500.42 191.05,-490.42 184.05,-490.42" stroke="black"/>
</g>
<!-- &#45;1072478408620046479 -->
<g class="node" id="node15">
<title>-1072478408620046479</title>
<polygon fill="none" points="237.54,-308.69 183.54,-308.69 183.54,-272.69 237.54,-272.69 237.54,-308.69" stroke="black"/>
<text font-family="Times New Roman,serif" font-size="14.00" text-anchor="middle" x="210.54" y="-286.99">(0, 3)</text>
</g>
<!-- &#45;1072478408620046479&#45;&gt;&#45;5706305441793978550 -->
<g class="edge" id="edge11">
<title>-1072478408620046479-&gt;-5706305441793978550</title>
<path d="M205.33,-308.95C202.91,-316.93 199.97,-326.67 197.17,-335.91" fill="none" stroke="black"/>
<polygon fill="black" points="193.78,-335.05 194.23,-345.63 200.48,-337.07 193.78,-335.05" stroke="black"/>
</g>
<!-- &#45;116547684704408953 -->
<g class="node" id="node16">
<title>-116547684704408953</title>
<polygon fill="none" points="93.54,-127.9 39.54,-127.9 39.54,-91.9 93.54,-91.9 93.54,-127.9" stroke="black"/>
<text font-family="Times New Roman,serif" font-size="14.00" text-anchor="middle" x="66.54" y="-106.2">(0, 3)</text>
</g>
<!-- &#45;116547684704408953&#45;&gt;&#45;5706305441793978550 -->
<g class="edge" id="edge12">
<title>-116547684704408953-&gt;-5706305441793978550</title>
<path d="M77.39,-128.28C83.59,-138.5 91.34,-151.75 97.54,-163.9 128.21,-223.88 158.8,-296.58 175.23,-336.94" fill="none" stroke="black"/>
<polygon fill="black" points="172,-338.28 179,-346.24 178.48,-335.65 172,-338.28" stroke="black"/>
</g>
<!-- 1163028879001512873 -->
<g class="node" id="node24">
<title>1163028879001512873</title>
<ellipse cx="52.54" cy="-200.29" fill="none" rx="36.29" ry="36.29" stroke="black"/>
<text font-family="Times New Roman,serif" font-size="14.00" text-anchor="middle" x="52.54" y="-196.59">getitem</text>
</g>
<!-- &#45;116547684704408953&#45;&gt;1163028879001512873 -->
<g class="edge" id="edge24">
<title>-116547684704408953-&gt;1163028879001512873</title>
<path d="M63.85,-127.94C62.66,-135.45 61.19,-144.68 59.72,-153.97" fill="none" stroke="black"/>
<polygon fill="black" points="56.24,-153.58 58.13,-164.01 63.15,-154.68 56.24,-153.58" stroke="black"/>
</g>
<!-- &#45;1492014516999911885 -->
<g class="node" id="node17">
<title>-1492014516999911885</title>
<ellipse cx="186.54" cy="-27.95" fill="none" rx="27.9" ry="27.9" stroke="black"/>
<text font-family="Times New Roman,serif" font-size="14.00" text-anchor="middle" x="186.54" y="-24.25">ones</text>
</g>
<!-- &#45;1492014516999911885&#45;&gt;&#45;116547684700913806 -->
<g class="edge" id="edge13">
<title>-1492014516999911885-&gt;-116547684700913806</title>
<path d="M186.54,-56.01C186.54,-64.2 186.54,-73.2 186.54,-81.42" fill="none" stroke="black"/>
<polygon fill="black" points="183.05,-81.63 186.54,-91.63 190.05,-81.63 183.05,-81.63" stroke="black"/>
</g>
<!-- 5939186445481850956 -->
<g class="node" id="node18">
<title>5939186445481850956</title>
<ellipse cx="316.54" cy="-27.95" fill="none" rx="27.9" ry="27.9" stroke="black"/>
<text font-family="Times New Roman,serif" font-size="14.00" text-anchor="middle" x="316.54" y="-24.25">ones</text>
</g>
<!-- 5939186445481850956&#45;&gt;&#45;116547684702078855 -->
<g class="edge" id="edge14">
<title>5939186445481850956-&gt;-116547684702078855</title>
<path d="M316.54,-56.01C316.54,-64.2 316.54,-73.2 316.54,-81.42" fill="none" stroke="black"/>
<polygon fill="black" points="313.05,-81.63 316.54,-91.63 320.05,-81.63 313.05,-81.63" stroke="black"/>
</g>
<!-- 4456411162375728881 -->
<g class="node" id="node19">
<title>4456411162375728881</title>
<ellipse cx="471.54" cy="-27.95" fill="none" rx="27.9" ry="27.9" stroke="black"/>
<text font-family="Times New Roman,serif" font-size="14.00" text-anchor="middle" x="471.54" y="-24.25">ones</text>
</g>
<!-- 4456411162375728881&#45;&gt;&#45;116547684703243904 -->
<g class="edge" id="edge15">
<title>4456411162375728881-&gt;-116547684703243904</title>
<path d="M471.54,-56.01C471.54,-64.2 471.54,-73.2 471.54,-81.42" fill="none" stroke="black"/>
<polygon fill="black" points="468.05,-81.63 471.54,-91.63 475.05,-81.63 468.05,-81.63" stroke="black"/>
</g>
<!-- 3103110249291329706 -->
<g class="node" id="node20">
<title>3103110249291329706</title>
<ellipse cx="66.54" cy="-27.95" fill="none" rx="27.9" ry="27.9" stroke="black"/>
<text font-family="Times New Roman,serif" font-size="14.00" text-anchor="middle" x="66.54" y="-24.25">ones</text>
</g>
<!-- 3103110249291329706&#45;&gt;&#45;116547684704408953 -->
<g class="edge" id="edge16">
<title>3103110249291329706-&gt;-116547684704408953</title>
<path d="M66.54,-56.01C66.54,-64.2 66.54,-73.2 66.54,-81.42" fill="none" stroke="black"/>
<polygon fill="black" points="63.05,-81.63 66.54,-91.63 70.05,-81.63 63.05,-81.63" stroke="black"/>
</g>
<!-- 4229013425384991748&#45;&gt;&#45;1072478408620046479 -->
<g class="edge" id="edge17">
<title>4229013425384991748-&gt;-1072478408620046479</title>
<path d="M215.34,-236.74C214.56,-245.29 213.75,-254.29 213.01,-262.4" fill="none" stroke="black"/>
<polygon fill="black" points="209.52,-262.16 212.11,-272.43 216.49,-262.79 209.52,-262.16" stroke="black"/>
</g>
<!-- 4382183739681436139&#45;&gt;&#45;1072478408618881430 -->
<g class="edge" id="edge19">
<title>4382183739681436139-&gt;-1072478408618881430</title>
<path d="M375.34,-224.98C389.69,-237.67 407.32,-253.25 421.68,-265.94" fill="none" stroke="black"/>
<polygon fill="black" points="419.47,-268.66 429.28,-272.66 424.11,-263.42 419.47,-268.66" stroke="black"/>
</g>
<!-- 1651906010109843298&#45;&gt;&#45;1072478408622376577 -->
<g class="edge" id="edge21">
<title>1651906010109843298-&gt;-1072478408622376577</title>
<path d="M415.24,-227.81C404.41,-239.63 391.74,-253.47 381.12,-265.06" fill="none" stroke="black"/>
<polygon fill="black" points="378.32,-262.93 374.14,-272.67 383.48,-267.66 378.32,-262.93" stroke="black"/>
</g>
<!-- 1163028879001512873&#45;&gt;&#45;1072478408621211528 -->
<g class="edge" id="edge23">
<title>1163028879001512873-&gt;-1072478408621211528</title>
<path d="M54.15,-236.74C54.54,-245.29 54.94,-254.29 55.31,-262.4" fill="none" stroke="black"/>
<polygon fill="black" points="51.82,-262.6 55.76,-272.43 58.81,-262.29 51.82,-262.6" stroke="black"/>
</g>
<!-- 112294759136367601 -->
<g class="node" id="node26">
<title>112294759136367601</title>
<polygon fill="none" points="171.54,-685.87 117.54,-685.87 117.54,-649.87 171.54,-649.87 171.54,-685.87" stroke="black"/>
<text font-family="Times New Roman,serif" font-size="14.00" text-anchor="middle" x="144.54" y="-664.17">(0, 0)</text>
</g>
<!-- 5306126663451204996&#45;&gt;112294759136367601 -->
<g class="edge" id="edge25">
<title>5306126663451204996-&gt;112294759136367601</title>
<path d="M91.83,-601.85C102.76,-615.33 114.43,-629.73 124.01,-641.55" fill="none" stroke="black"/>
<polygon fill="black" points="121.56,-644.08 130.57,-649.64 126.99,-639.67 121.56,-644.08" stroke="black"/>
</g>
<!-- 1605577911701583796 -->
<g class="node" id="node33">
<title>1605577911701583796</title>
<ellipse cx="152.54" cy="-812.87" fill="none" rx="90.98" ry="90.98" stroke="black"/>
<text font-family="Times New Roman,serif" font-size="14.00" text-anchor="middle" x="152.54" y="-809.17">mean_combine-partial</text>
</g>
<!-- 112294759136367601&#45;&gt;1605577911701583796 -->
<g class="edge" id="edge34">
<title>112294759136367601-&gt;1605577911701583796</title>
<path d="M145.51,-686.12C145.9,-693.18 146.4,-701.95 146.93,-711.55" fill="none" stroke="black"/>
<polygon fill="black" points="143.45,-712.03 147.51,-721.81 150.44,-711.63 143.45,-712.03" stroke="black"/>
</g>
<!-- 112294759137532650 -->
<g class="node" id="node28">
<title>112294759137532650</title>
<polygon fill="none" points="275.54,-685.87 221.54,-685.87 221.54,-649.87 275.54,-649.87 275.54,-685.87" stroke="black"/>
<text font-family="Times New Roman,serif" font-size="14.00" text-anchor="middle" x="248.54" y="-664.17">(0, 1)</text>
</g>
<!-- &#45;2128355139175108245&#45;&gt;112294759137532650 -->
<g class="edge" id="edge27">
<title>-2128355139175108245-&gt;112294759137532650</title>
<path d="M288.25,-605.31C280.28,-617.66 271.98,-630.53 265.05,-641.29" fill="none" stroke="black"/>
<polygon fill="black" points="262.05,-639.47 259.58,-649.77 267.94,-643.26 262.05,-639.47" stroke="black"/>
</g>
<!-- 112294759137532650&#45;&gt;1605577911701583796 -->
<g class="edge" id="edge35">
<title>112294759137532650-&gt;1605577911701583796</title>
<path d="M236.97,-686.12C229.58,-697.13 219.39,-712.3 208.65,-728.29" fill="none" stroke="black"/>
<polygon fill="black" points="205.67,-726.46 203,-736.72 211.48,-730.37 205.67,-726.46" stroke="black"/>
</g>
<!-- 112294759134037503 -->
<g class="node" id="node30">
<title>112294759134037503</title>
<polygon fill="none" points="455.54,-685.87 401.54,-685.87 401.54,-649.87 455.54,-649.87 455.54,-685.87" stroke="black"/>
<text font-family="Times New Roman,serif" font-size="14.00" text-anchor="middle" x="428.54" y="-664.17">(0, 2)</text>
</g>
<!-- 3571538108292335330&#45;&gt;112294759134037503 -->
<g class="edge" id="edge29">
<title>3571538108292335330-&gt;112294759134037503</title>
<path d="M438.98,-612.92C437.19,-622.17 435.41,-631.41 433.83,-639.56" fill="none" stroke="black"/>
<polygon fill="black" points="430.36,-639.07 431.9,-649.56 437.23,-640.4 430.36,-639.07" stroke="black"/>
</g>
<!-- 1981906594665074587 -->
<g class="node" id="node35">
<title>1981906594665074587</title>
<ellipse cx="352.54" cy="-812.87" fill="none" rx="90.98" ry="90.98" stroke="black"/>
<text font-family="Times New Roman,serif" font-size="14.00" text-anchor="middle" x="352.54" y="-809.17">mean_combine-partial</text>
</g>
<!-- 112294759134037503&#45;&gt;1981906594665074587 -->
<g class="edge" id="edge38">
<title>112294759134037503-&gt;1981906594665074587</title>
<path d="M419.38,-686.12C414.15,-695.96 407.15,-709.13 399.64,-723.25" fill="none" stroke="black"/>
<polygon fill="black" points="396.52,-721.67 394.92,-732.14 402.7,-724.95 396.52,-721.67" stroke="black"/>
</g>
<!-- 112294759135202552 -->
<g class="node" id="node32">
<title>112294759135202552</title>
<polygon fill="none" points="363.54,-685.87 309.54,-685.87 309.54,-649.87 363.54,-649.87 363.54,-685.87" stroke="black"/>
<text font-family="Times New Roman,serif" font-size="14.00" text-anchor="middle" x="336.54" y="-664.17">(0, 3)</text>
</g>
<!-- 4288831855244058921&#45;&gt;112294759135202552 -->
<g class="edge" id="edge31">
<title>4288831855244058921-&gt;112294759135202552</title>
<path d="M229.48,-595.69C237.01,-601.95 244.9,-608.24 252.54,-613.87 267.86,-625.16 285.58,-636.56 300.79,-645.89" fill="none" stroke="black"/>
<polygon fill="black" points="299.05,-648.92 309.41,-651.12 302.68,-642.94 299.05,-648.92" stroke="black"/>
</g>
<!-- 112294759135202552&#45;&gt;1981906594665074587 -->
<g class="edge" id="edge37">
<title>112294759135202552-&gt;1981906594665074587</title>
<path d="M338.47,-686.12C339.28,-693.31 340.28,-702.27 341.38,-712.08" fill="none" stroke="black"/>
<polygon fill="black" points="337.91,-712.58 342.5,-722.13 344.87,-711.81 337.91,-712.58" stroke="black"/>
</g>
<!-- 2750484899630732449 -->
<g class="node" id="node34">
<title>2750484899630732449</title>
<polygon fill="none" points="243.54,-975.86 189.54,-975.86 189.54,-939.86 243.54,-939.86 243.54,-975.86" stroke="black"/>
<text font-family="Times New Roman,serif" font-size="14.00" text-anchor="middle" x="216.54" y="-954.16">(0, 0)</text>
</g>
<!-- 1605577911701583796&#45;&gt;2750484899630732449 -->
<g class="edge" id="edge33">
<title>1605577911701583796-&gt;2750484899630732449</title>
<path d="M189.4,-896.22C194.95,-908.6 200.29,-920.54 204.75,-930.5" fill="none" stroke="black"/>
<polygon fill="black" points="201.61,-932.05 208.89,-939.75 208,-929.19 201.61,-932.05" stroke="black"/>
</g>
<!-- &#45;5818951448499274262 -->
<g class="node" id="node37">
<title>-5818951448499274262</title>
<ellipse cx="252.54" cy="-1096.35" fill="none" rx="84.49" ry="84.49" stroke="black"/>
<text font-family="Times New Roman,serif" font-size="14.00" text-anchor="middle" x="252.54" y="-1092.65">mean_agg-aggregate</text>
</g>
<!-- 2750484899630732449&#45;&gt;&#45;5818951448499274262 -->
<g class="edge" id="edge40">
<title>2750484899630732449-&gt;-5818951448499274262</title>
<path d="M221.03,-975.87C223.12,-983.77 225.77,-993.84 228.65,-1004.76" fill="none" stroke="black"/>
<polygon fill="black" points="225.3,-1005.77 231.23,-1014.55 232.07,-1003.99 225.3,-1005.77" stroke="black"/>
</g>
<!-- 2750484899631897498 -->
<g class="node" id="node36">
<title>2750484899631897498</title>
<polygon fill="none" points="347.54,-975.86 293.54,-975.86 293.54,-939.86 347.54,-939.86 347.54,-975.86" stroke="black"/>
<text font-family="Times New Roman,serif" font-size="14.00" text-anchor="middle" x="320.54" y="-954.16">(0, 1)</text>
</g>
<!-- 1981906594665074587&#45;&gt;2750484899631897498 -->
<g class="edge" id="edge36">
<title>1981906594665074587-&gt;2750484899631897498</title>
<path d="M332.83,-901.98C330.61,-911.89 328.49,-921.35 326.66,-929.54" fill="none" stroke="black"/>
<polygon fill="black" points="323.2,-928.98 324.43,-939.5 330.03,-930.51 323.2,-928.98" stroke="black"/>
</g>
<!-- 2750484899631897498&#45;&gt;&#45;5818951448499274262 -->
<g class="edge" id="edge41">
<title>2750484899631897498-&gt;-5818951448499274262</title>
<path d="M312.07,-975.87C307.34,-985.37 301.05,-997.98 294.34,-1011.46" fill="none" stroke="black"/>
<polygon fill="black" points="291.2,-1009.9 289.88,-1020.41 297.47,-1013.02 291.2,-1009.9" stroke="black"/>
</g>
<!-- &#45;2135004029341012025 -->
<g class="node" id="node38">
<title>-2135004029341012025</title>
<polygon fill="none" points="279.54,-1252.84 225.54,-1252.84 225.54,-1216.84 279.54,-1216.84 279.54,-1252.84" stroke="black"/>
<text font-family="Times New Roman,serif" font-size="14.00" text-anchor="middle" x="252.54" y="-1231.14">()</text>
</g>
<!-- &#45;5818951448499274262&#45;&gt;&#45;2135004029341012025 -->
<g class="edge" id="edge39">
<title>-5818951448499274262-&gt;-2135004029341012025</title>
<path d="M252.54,-1181.07C252.54,-1190.22 252.54,-1198.98 252.54,-1206.64" fill="none" stroke="black"/>
<polygon fill="black" points="249.05,-1206.67 252.54,-1216.67 256.05,-1206.67 249.05,-1206.67" stroke="black"/>
</g>
</g>
</svg>