<svg height="1075pt" viewBox="0.00 0.00 332.39 1074.85" width="332pt" xmlns="http://www.w3.org/2000/svg" xmlns:xlink="http://www.w3.org/1999/xlink">
<g class="graph" id="graph0" transform="scale(1 1) rotate(0) translate(4 1070.85)">
<polygon fill="white" points="-4,4 -4,-1070.85 328.39,-1070.85 328.39,4 -4,4" stroke="transparent"/>
<!-- &#45;546406227890797047 -->
<g class="node" id="node1">
<title>-546406227890797047</title>
<ellipse cx="163.09" cy="-941.55" fill="none" rx="53.09" ry="53.09" stroke="black"/>
<text font-family="Times New Roman,serif" font-size="14.00" text-anchor="middle" x="163.09" y="-937.85">series-mean</text>
</g>
<!-- 3302337993563866840 -->
<g class="node" id="node2">
<title>3302337993563866840</title>
<polygon fill="none" points="190.09,-1066.85 136.09,-1066.85 136.09,-1030.85 190.09,-1030.85 190.09,-1066.85" stroke="black"/>
<text font-family="Times New Roman,serif" font-size="14.00" text-anchor="middle" x="163.09" y="-1045.15">0</text>
</g>
<!-- &#45;546406227890797047&#45;&gt;3302337993563866840 -->
<g class="edge" id="edge1">
<title>-546406227890797047-&gt;3302337993563866840</title>
<path d="M163.09,-994.89C163.09,-1003.84 163.09,-1012.79 163.09,-1020.72" fill="none" stroke="black"/>
<polygon fill="black" points="159.59,-1020.81 163.09,-1030.81 166.59,-1020.81 159.59,-1020.81" stroke="black"/>
</g>
<!-- &#45;9058231454802582237 -->
<g class="node" id="node3">
<title>-9058231454802582237</title>
<polygon fill="none" points="246.09,-852.26 192.09,-852.26 192.09,-816.26 246.09,-816.26 246.09,-852.26" stroke="black"/>
<text font-family="Times New Roman,serif" font-size="14.00" text-anchor="middle" x="219.09" y="-830.56">0</text>
</g>
<!-- &#45;9058231454802582237&#45;&gt;&#45;546406227890797047 -->
<g class="edge" id="edge2">
<title>-9058231454802582237-&gt;-546406227890797047</title>
<path d="M209.85,-852.65C205.04,-861.68 198.88,-873.27 192.61,-885.05" fill="none" stroke="black"/>
<polygon fill="black" points="189.43,-883.59 187.82,-894.06 195.61,-886.87 189.43,-883.59" stroke="black"/>
</g>
<!-- 1500409542892787807 -->
<g class="node" id="node4">
<title>1500409542892787807</title>
<polygon fill="none" points="154.09,-852.26 100.09,-852.26 100.09,-816.26 154.09,-816.26 154.09,-852.26" stroke="black"/>
<text font-family="Times New Roman,serif" font-size="14.00" text-anchor="middle" x="127.09" y="-830.56">0</text>
</g>
<!-- 1500409542892787807&#45;&gt;&#45;546406227890797047 -->
<g class="edge" id="edge3">
<title>1500409542892787807-&gt;-546406227890797047</title>
<path d="M133.04,-852.65C135.79,-860.7 139.24,-870.78 142.81,-881.22" fill="none" stroke="black"/>
<polygon fill="black" points="139.56,-882.54 146.1,-890.87 146.18,-880.27 139.56,-882.54" stroke="black"/>
</g>
<!-- &#45;8548437800936529833 -->
<g class="node" id="node5">
<title>-8548437800936529833</title>
<ellipse cx="159.09" cy="-42.25" fill="none" rx="42.49" ry="42.49" stroke="black"/>
<text font-family="Times New Roman,serif" font-size="14.00" text-anchor="middle" x="159.09" y="-38.55">read-csv</text>
</g>
<!-- 6096639421121615190 -->
<g class="node" id="node6">
<title>6096639421121615190</title>
<polygon fill="none" points="186.09,-156.49 132.09,-156.49 132.09,-120.49 186.09,-120.49 186.09,-156.49" stroke="black"/>
<text font-family="Times New Roman,serif" font-size="14.00" text-anchor="middle" x="159.09" y="-134.79">0</text>
</g>
<!-- &#45;8548437800936529833&#45;&gt;6096639421121615190 -->
<g class="edge" id="edge4">
<title>-8548437800936529833-&gt;6096639421121615190</title>
<path d="M159.09,-84.58C159.09,-93.15 159.09,-101.98 159.09,-109.91" fill="none" stroke="black"/>
<polygon fill="black" points="155.59,-110.06 159.09,-120.06 162.59,-110.06 155.59,-110.06" stroke="black"/>
</g>
<!-- 7523865611064479229 -->
<g class="node" id="node7">
<title>7523865611064479229</title>
<ellipse cx="159.09" cy="-228.89" fill="none" rx="36.29" ry="36.29" stroke="black"/>
<text font-family="Times New Roman,serif" font-size="14.00" text-anchor="middle" x="159.09" y="-225.19">getitem</text>
</g>
<!-- 6096639421121615190&#45;&gt;7523865611064479229 -->
<g class="edge" id="edge6">
<title>6096639421121615190-&gt;7523865611064479229</title>
<path d="M159.09,-156.54C159.09,-163.9 159.09,-172.9 159.09,-182" fill="none" stroke="black"/>
<polygon fill="black" points="155.59,-182.24 159.09,-192.24 162.59,-182.24 155.59,-182.24" stroke="black"/>
</g>
<!-- &#45;1320800805177865636 -->
<g class="node" id="node8">
<title>-1320800805177865636</title>
<polygon fill="none" points="186.09,-337.29 132.09,-337.29 132.09,-301.29 186.09,-301.29 186.09,-337.29" stroke="black"/>
<text font-family="Times New Roman,serif" font-size="14.00" text-anchor="middle" x="159.09" y="-315.59">0</text>
</g>
<!-- 7523865611064479229&#45;&gt;&#45;1320800805177865636 -->
<g class="edge" id="edge5">
<title>7523865611064479229-&gt;-1320800805177865636</title>
<path d="M159.09,-265.33C159.09,-273.88 159.09,-282.89 159.09,-291" fill="none" stroke="black"/>
<polygon fill="black" points="155.59,-291.03 159.09,-301.03 162.59,-291.03 155.59,-291.03" stroke="black"/>
</g>
<!-- &#45;6802825649475130214 -->
<g class="node" id="node9">
<title>-6802825649475130214</title>
<ellipse cx="74.09" cy="-452.58" fill="none" rx="74.19" ry="74.19" stroke="black"/>
<text font-family="Times New Roman,serif" font-size="14.00" text-anchor="middle" x="74.09" y="-448.88">series-sum-chunk</text>
</g>
<!-- &#45;1320800805177865636&#45;&gt;&#45;6802825649475130214 -->
<g class="edge" id="edge8">
<title>-1320800805177865636-&gt;-6802825649475130214</title>
<path d="M147.98,-337.45C140.55,-348.93 130.22,-364.89 119.64,-381.23" fill="none" stroke="black"/>
<polygon fill="black" points="116.59,-379.5 114.09,-389.8 122.47,-383.3 116.59,-379.5" stroke="black"/>
</g>
<!-- 2118895064119562568 -->
<g class="node" id="node12">
<title>2118895064119562568</title>
<ellipse cx="245.09" cy="-452.58" fill="none" rx="79.09" ry="79.09" stroke="black"/>
<text font-family="Times New Roman,serif" font-size="14.00" text-anchor="middle" x="245.09" y="-448.88">series-count-chunk</text>
</g>
<!-- &#45;1320800805177865636&#45;&gt;2118895064119562568 -->
<g class="edge" id="edge12">
<title>-1320800805177865636-&gt;2118895064119562568</title>
<path d="M170.34,-337.45C177.29,-348.07 186.75,-362.5 196.59,-377.54" fill="none" stroke="black"/>
<polygon fill="black" points="193.68,-379.48 202.09,-385.93 199.54,-375.65 193.68,-379.48" stroke="black"/>
</g>
<!-- &#45;9051491994708378889 -->
<g class="node" id="node10">
<title>-9051491994708378889</title>
<polygon fill="none" points="113.59,-603.87 52.59,-603.87 52.59,-567.87 113.59,-567.87 113.59,-603.87" stroke="black"/>
<text font-family="Times New Roman,serif" font-size="14.00" text-anchor="middle" x="83.09" y="-582.17">(0, 0, 0)</text>
</g>
<!-- &#45;6802825649475130214&#45;&gt;&#45;9051491994708378889 -->
<g class="edge" id="edge7">
<title>-6802825649475130214-&gt;-9051491994708378889</title>
<path d="M79.09,-526.52C79.85,-537.55 80.59,-548.3 81.22,-557.51" fill="none" stroke="black"/>
<polygon fill="black" points="77.73,-557.8 81.9,-567.53 84.71,-557.32 77.73,-557.8" stroke="black"/>
</g>
<!-- &#45;6079430169434227902 -->
<g class="node" id="node11">
<title>-6079430169434227902</title>
<ellipse cx="87.09" cy="-710.07" fill="none" rx="64.99" ry="64.99" stroke="black"/>
<text font-family="Times New Roman,serif" font-size="14.00" text-anchor="middle" x="87.09" y="-706.37">series-sum-agg</text>
</g>
<!-- &#45;9051491994708378889&#45;&gt;&#45;6079430169434227902 -->
<g class="edge" id="edge10">
<title>-9051491994708378889-&gt;-6079430169434227902</title>
<path d="M83.66,-604.12C83.93,-612.57 84.29,-623.38 84.66,-634.83" fill="none" stroke="black"/>
<polygon fill="black" points="81.17,-635.14 85,-645.02 88.17,-634.91 81.17,-635.14" stroke="black"/>
</g>
<!-- &#45;6079430169434227902&#45;&gt;1500409542892787807 -->
<g class="edge" id="edge9">
<title>-6079430169434227902-&gt;1500409542892787807</title>
<path d="M107.09,-772.16C111.01,-784.12 114.92,-796.08 118.24,-806.2" fill="none" stroke="black"/>
<polygon fill="black" points="115.01,-807.6 121.45,-816.01 121.66,-805.42 115.01,-807.6" stroke="black"/>
</g>
<!-- 1554784741279450053 -->
<g class="node" id="node13">
<title>1554784741279450053</title>
<polygon fill="none" points="273.59,-603.87 212.59,-603.87 212.59,-567.87 273.59,-567.87 273.59,-603.87" stroke="black"/>
<text font-family="Times New Roman,serif" font-size="14.00" text-anchor="middle" x="243.09" y="-582.17">(0, 0, 0)</text>
</g>
<!-- 2118895064119562568&#45;&gt;1554784741279450053 -->
<g class="edge" id="edge11">
<title>2118895064119562568-&gt;1554784741279450053</title>
<path d="M243.9,-532.23C243.76,-541.28 243.62,-550 243.51,-557.64" fill="none" stroke="black"/>
<polygon fill="black" points="240.01,-557.6 243.36,-567.65 247.01,-557.71 240.01,-557.6" stroke="black"/>
</g>
<!-- 6830632351751379926 -->
<g class="node" id="node14">
<title>6830632351751379926</title>
<ellipse cx="242.09" cy="-710.07" fill="none" rx="70.39" ry="70.39" stroke="black"/>
<text font-family="Times New Roman,serif" font-size="14.00" text-anchor="middle" x="242.09" y="-706.37">series-count-agg</text>
</g>
<!-- 1554784741279450053&#45;&gt;6830632351751379926 -->
<g class="edge" id="edge14">
<title>1554784741279450053-&gt;6830632351751379926</title>
<path d="M242.95,-604.12C242.89,-611.3 242.82,-620.18 242.74,-629.72" fill="none" stroke="black"/>
<polygon fill="black" points="239.24,-629.82 242.66,-639.85 246.24,-629.88 239.24,-629.82" stroke="black"/>
</g>
<!-- 6830632351751379926&#45;&gt;&#45;9058231454802582237 -->
<g class="edge" id="edge13">
<title>6830632351751379926-&gt;-9058231454802582237</title>
<path d="M229.25,-779.31C227.47,-788.73 225.74,-797.93 224.23,-805.98" fill="none" stroke="black"/>
<polygon fill="black" points="220.78,-805.36 222.37,-815.83 227.66,-806.65 220.78,-805.36" stroke="black"/>
</g>
</g>
</svg>