<svg xmlns="http://www.w3.org/2000/svg" xmlns:xlink="http://www.w3.org/1999/xlink" width="478pt" height="184pt" viewBox="0.00 0.00 477.99 183.99">
<g id="graph0" class="graph" transform="scale(1 1) rotate(0) translate(4 179.99)">
<polygon fill="white" stroke="transparent" points="-4,4 -4,-179.99 473.99,-179.99 473.99,4 -4,4"/>
<!-- &#45;4579143312321430494 -->
<g id="node1" class="node">
<title>-4579143312321430494</title>
<ellipse fill="none" stroke="black" cx="52" cy="-52" rx="51.99" ry="51.99"/>
<text text-anchor="middle" x="52" y="-48.3" font-family="Helvetica,sans-Serif" font-size="14.00">ones_like</text>
</g>
<!-- &#45;441636896296742192 -->
<g id="node2" class="node">
<title>-441636896296742192</title>
<polygon fill="none" stroke="black" points="79,-175.99 25,-175.99 25,-139.99 79,-139.99 79,-175.99"/>
<text text-anchor="middle" x="52" y="-154.29" font-family="Helvetica,sans-Serif" font-size="14.00">(0, 0)</text>
</g>
<!-- &#45;4579143312321430494&#45;&gt;&#45;441636896296742192 -->
<g id="edge1" class="edge">
<title>-4579143312321430494-&gt;-441636896296742192</title>
<path fill="none" stroke="black" d="M52,-104.08C52,-112.98 52,-121.91 52,-129.84"/>
<polygon fill="black" stroke="black" points="48.5,-129.93 52,-139.93 55.5,-129.93 48.5,-129.93"/>
</g>
<!-- 5390751057925284816 -->
<g id="node3" class="node">
<title>5390751057925284816</title>
<ellipse fill="none" stroke="black" cx="174" cy="-52" rx="51.99" ry="51.99"/>
<text text-anchor="middle" x="174" y="-48.3" font-family="Helvetica,sans-Serif" font-size="14.00">ones_like</text>
</g>
<!-- &#45;5334710925269438558 -->
<g id="node4" class="node">
<title>-5334710925269438558</title>
<polygon fill="none" stroke="black" points="201,-175.99 147,-175.99 147,-139.99 201,-139.99 201,-175.99"/>
<text text-anchor="middle" x="174" y="-154.29" font-family="Helvetica,sans-Serif" font-size="14.00">(0, 1)</text>
</g>
<!-- 5390751057925284816&#45;&gt;&#45;5334710925269438558 -->
<g id="edge2" class="edge">
<title>5390751057925284816-&gt;-5334710925269438558</title>
<path fill="none" stroke="black" d="M174,-104.08C174,-112.98 174,-121.91 174,-129.84"/>
<polygon fill="black" stroke="black" points="170.5,-129.93 174,-139.93 177.5,-129.93 170.5,-129.93"/>
</g>
<!-- 4586624152776711774 -->
<g id="node5" class="node">
<title>4586624152776711774</title>
<ellipse fill="none" stroke="black" cx="296" cy="-52" rx="51.99" ry="51.99"/>
<text text-anchor="middle" x="296" y="-48.3" font-family="Helvetica,sans-Serif" font-size="14.00">ones_like</text>
</g>
<!-- 1172929830832559867 -->
<g id="node6" class="node">
<title>1172929830832559867</title>
<polygon fill="none" stroke="black" points="323,-175.99 269,-175.99 269,-139.99 323,-139.99 323,-175.99"/>
<text text-anchor="middle" x="296" y="-154.29" font-family="Helvetica,sans-Serif" font-size="14.00">(0, 2)</text>
</g>
<!-- 4586624152776711774&#45;&gt;1172929830832559867 -->
<g id="edge3" class="edge">
<title>4586624152776711774-&gt;1172929830832559867</title>
<path fill="none" stroke="black" d="M296,-104.08C296,-112.98 296,-121.91 296,-129.84"/>
<polygon fill="black" stroke="black" points="292.5,-129.93 296,-139.93 299.5,-129.93 292.5,-129.93"/>
</g>
<!-- 4625317074713547524 -->
<g id="node7" class="node">
<title>4625317074713547524</title>
<ellipse fill="none" stroke="black" cx="418" cy="-52" rx="51.99" ry="51.99"/>
<text text-anchor="middle" x="418" y="-48.3" font-family="Helvetica,sans-Serif" font-size="14.00">ones_like</text>
</g>
<!-- 7680570586934558292 -->
<g id="node8" class="node">
<title>7680570586934558292</title>
<polygon fill="none" stroke="black" points="445,-175.99 391,-175.99 391,-139.99 445,-139.99 445,-175.99"/>
<text text-anchor="middle" x="418" y="-154.29" font-family="Helvetica,sans-Serif" font-size="14.00">(0, 3)</text>
</g>
<!-- 4625317074713547524&#45;&gt;7680570586934558292 -->
<g id="edge4" class="edge">
<title>4625317074713547524-&gt;7680570586934558292</title>
<path fill="none" stroke="black" d="M418,-104.08C418,-112.98 418,-121.91 418,-129.84"/>
<polygon fill="black" stroke="black" points="414.5,-129.93 418,-139.93 421.5,-129.93 414.5,-129.93"/>
</g>
</g>
</svg>