<svg xmlns="http://www.w3.org/2000/svg" xmlns:xlink="http://www.w3.org/1999/xlink" width="478pt" height="184pt" viewBox="0.00 0.00 477.99 183.99">
<g id="graph0" class="graph" transform="scale(1 1) rotate(0) translate(4 179.99)">
<polygon fill="white" stroke="transparent" points="-4,4 -4,-179.99 473.99,-179.99 473.99,4 -4,4"/>
<!-- &#45;5542854119486033042 -->
<g id="node1" class="node">
<title>-5542854119486033042</title>
<ellipse fill="none" stroke="black" cx="52" cy="-52" rx="51.99" ry="51.99"/>
<text text-anchor="middle" x="52" y="-48.3" font-family="Helvetica,sans-Serif" font-size="14.00">ones_like</text>
</g>
<!-- &#45;6245055245975254336 -->
<g id="node2" class="node">
<title>-6245055245975254336</title>
<polygon fill="none" stroke="black" points="79,-175.99 25,-175.99 25,-139.99 79,-139.99 79,-175.99"/>
<text text-anchor="middle" x="52" y="-154.29" font-family="Helvetica,sans-Serif" font-size="14.00">(0, 0)</text>
</g>
<!-- &#45;5542854119486033042&#45;&gt;&#45;6245055245975254336 -->
<g id="edge1" class="edge">
<title>-5542854119486033042-&gt;-6245055245975254336</title>
<path fill="none" stroke="black" d="M52,-104.08C52,-112.98 52,-121.91 52,-129.84"/>
<polygon fill="black" stroke="black" points="48.5,-129.93 52,-139.93 55.5,-129.93 48.5,-129.93"/>
</g>
<!-- &#45;5504161197549197292 -->
<g id="node3" class="node">
<title>-5504161197549197292</title>
<ellipse fill="none" stroke="black" cx="174" cy="-52" rx="51.99" ry="51.99"/>
<text text-anchor="middle" x="174" y="-48.3" font-family="Helvetica,sans-Serif" font-size="14.00">ones_like</text>
</g>
<!-- 262585510126744089 -->
<g id="node4" class="node">
<title>262585510126744089</title>
<polygon fill="none" stroke="black" points="201,-175.99 147,-175.99 147,-139.99 201,-139.99 201,-175.99"/>
<text text-anchor="middle" x="174" y="-154.29" font-family="Helvetica,sans-Serif" font-size="14.00">(0, 1)</text>
</g>
<!-- &#45;5504161197549197292&#45;&gt;262585510126744089 -->
<g id="edge2" class="edge">
<title>-5504161197549197292-&gt;262585510126744089</title>
<path fill="none" stroke="black" d="M174,-104.08C174,-112.98 174,-121.91 174,-129.84"/>
<polygon fill="black" stroke="black" points="170.5,-129.93 174,-139.93 177.5,-129.93 170.5,-129.93"/>
</g>
<!-- &#45;2142643226837149807 -->
<g id="node5" class="node">
<title>-2142643226837149807</title>
<ellipse fill="none" stroke="black" cx="296" cy="-52" rx="51.99" ry="51.99"/>
<text text-anchor="middle" x="296" y="-48.3" font-family="Helvetica,sans-Serif" font-size="14.00">ones_like</text>
</g>
<!-- &#45;9028845901830320405 -->
<g id="node6" class="node">
<title>-9028845901830320405</title>
<polygon fill="none" stroke="black" points="323,-175.99 269,-175.99 269,-139.99 323,-139.99 323,-175.99"/>
<text text-anchor="middle" x="296" y="-154.29" font-family="Helvetica,sans-Serif" font-size="14.00">(0, 2)</text>
</g>
<!-- &#45;2142643226837149807&#45;&gt;&#45;9028845901830320405 -->
<g id="edge3" class="edge">
<title>-2142643226837149807-&gt;-9028845901830320405</title>
<path fill="none" stroke="black" d="M296,-104.08C296,-112.98 296,-121.91 296,-129.84"/>
<polygon fill="black" stroke="black" points="292.5,-129.93 296,-139.93 299.5,-129.93 292.5,-129.93"/>
</g>
<!-- &#45;7345127514970090977 -->
<g id="node7" class="node">
<title>-7345127514970090977</title>
<ellipse fill="none" stroke="black" cx="418" cy="-52" rx="51.99" ry="51.99"/>
<text text-anchor="middle" x="418" y="-48.3" font-family="Helvetica,sans-Serif" font-size="14.00">ones_like</text>
</g>
<!-- &#45;2521205145728321980 -->
<g id="node8" class="node">
<title>-2521205145728321980</title>
<polygon fill="none" stroke="black" points="445,-175.99 391,-175.99 391,-139.99 445,-139.99 445,-175.99"/>
<text text-anchor="middle" x="418" y="-154.29" font-family="Helvetica,sans-Serif" font-size="14.00">(0, 3)</text>
</g>
<!-- &#45;7345127514970090977&#45;&gt;&#45;2521205145728321980 -->
<g id="edge4" class="edge">
<title>-7345127514970090977-&gt;-2521205145728321980</title>
<path fill="none" stroke="black" d="M418,-104.08C418,-112.98 418,-121.91 418,-129.84"/>
<polygon fill="black" stroke="black" points="414.5,-129.93 418,-139.93 421.5,-129.93 414.5,-129.93"/>
</g>
</g>
</svg>