<svg xmlns="http://www.w3.org/2000/svg" xmlns:xlink="http://www.w3.org/1999/xlink" width="1646pt" height="1595pt" viewBox="0.00 0.00 1646.13 1595.02">
<g id="graph0" class="graph" transform="scale(1 1) rotate(0) translate(4 1591.02)">
<polygon fill="white" stroke="transparent" points="-4,4 -4,-1591.02 1642.13,-1591.02 1642.13,4 -4,4"/>
<!-- &#45;7836270362828454874 -->
<g id="node1" class="node">
<title>-7836270362828454874</title>
<ellipse fill="none" stroke="black" cx="727.49" cy="-1448.73" rx="66.09" ry="66.09"/>
<text text-anchor="middle" x="727.49" y="-1445.03" font-family="Helvetica,sans-Serif" font-size="14.00">series-mean</text>
</g>
<!-- 7398041780789273951 -->
<g id="node2" class="node">
<title>7398041780789273951</title>
<polygon fill="none" stroke="black" points="754.49,-1587.02 700.49,-1587.02 700.49,-1551.02 754.49,-1551.02 754.49,-1587.02"/>
<text text-anchor="middle" x="727.49" y="-1565.32" font-family="Helvetica,sans-Serif" font-size="14.00">0</text>
</g>
<!-- &#45;7836270362828454874&#45;&gt;7398041780789273951 -->
<g id="edge1" class="edge">
<title>-7836270362828454874-&gt;7398041780789273951</title>
<path fill="none" stroke="black" d="M727.49,-1515.1C727.49,-1524.11 727.49,-1532.92 727.49,-1540.69"/>
<polygon fill="black" stroke="black" points="723.99,-1540.89 727.49,-1550.89 730.99,-1540.89 723.99,-1540.89"/>
</g>
<!-- &#45;6898352807645038710 -->
<g id="node3" class="node">
<title>-6898352807645038710</title>
<polygon fill="none" stroke="black" points="718.49,-1346.43 664.49,-1346.43 664.49,-1310.43 718.49,-1310.43 718.49,-1346.43"/>
<text text-anchor="middle" x="691.49" y="-1324.73" font-family="Helvetica,sans-Serif" font-size="14.00">0</text>
</g>
<!-- &#45;6898352807645038710&#45;&gt;&#45;7836270362828454874 -->
<g id="edge2" class="edge">
<title>-6898352807645038710-&gt;-7836270362828454874</title>
<path fill="none" stroke="black" d="M696.73,-1346.64C699.17,-1354.66 702.26,-1364.82 705.53,-1375.58"/>
<polygon fill="black" stroke="black" points="702.19,-1376.6 708.45,-1385.15 708.88,-1374.56 702.19,-1376.6"/>
</g>
<!-- &#45;2906834598044529596 -->
<g id="node4" class="node">
<title>-2906834598044529596</title>
<polygon fill="none" stroke="black" points="874.49,-1346.43 820.49,-1346.43 820.49,-1310.43 874.49,-1310.43 874.49,-1346.43"/>
<text text-anchor="middle" x="847.49" y="-1324.73" font-family="Helvetica,sans-Serif" font-size="14.00">0</text>
</g>
<!-- &#45;2906834598044529596&#45;&gt;&#45;7836270362828454874 -->
<g id="edge3" class="edge">
<title>-2906834598044529596-&gt;-7836270362828454874</title>
<path fill="none" stroke="black" d="M830.04,-1346.64C817.24,-1359.25 799.13,-1377.11 781.67,-1394.32"/>
<polygon fill="black" stroke="black" points="778.91,-1392.12 774.25,-1401.64 783.83,-1397.11 778.91,-1392.12"/>
</g>
<!-- 6135182552431069052 -->
<g id="node5" class="node">
<title>6135182552431069052</title>
<ellipse fill="none" stroke="black" cx="990.49" cy="-49.4" rx="49.29" ry="49.29"/>
<text text-anchor="middle" x="990.49" y="-45.7" font-family="Helvetica,sans-Serif" font-size="14.00">read-csv</text>
</g>
<!-- 3920696048451522535 -->
<g id="node6" class="node">
<title>3920696048451522535</title>
<polygon fill="none" stroke="black" points="1017.49,-170.79 963.49,-170.79 963.49,-134.79 1017.49,-134.79 1017.49,-170.79"/>
<text text-anchor="middle" x="990.49" y="-149.09" font-family="Helvetica,sans-Serif" font-size="14.00">0</text>
</g>
<!-- 6135182552431069052&#45;&gt;3920696048451522535 -->
<g id="edge4" class="edge">
<title>6135182552431069052-&gt;3920696048451522535</title>
<path fill="none" stroke="black" d="M990.49,-99.01C990.49,-107.82 990.49,-116.71 990.49,-124.62"/>
<polygon fill="black" stroke="black" points="986.99,-124.69 990.49,-134.69 993.99,-124.69 986.99,-124.69"/>
</g>
<!-- &#45;7557009068685020924 -->
<g id="node7" class="node">
<title>-7557009068685020924</title>
<ellipse fill="none" stroke="black" cx="990.49" cy="-236.69" rx="29.8" ry="29.8"/>
<text text-anchor="middle" x="990.49" y="-232.99" font-family="Helvetica,sans-Serif" font-size="14.00">split</text>
</g>
<!-- 3920696048451522535&#45;&gt;&#45;7557009068685020924 -->
<g id="edge6" class="edge">
<title>3920696048451522535-&gt;-7557009068685020924</title>
<path fill="none" stroke="black" d="M990.49,-171.16C990.49,-178.58 990.49,-187.58 990.49,-196.46"/>
<polygon fill="black" stroke="black" points="986.99,-196.74 990.49,-206.74 993.99,-196.74 986.99,-196.74"/>
</g>
<!-- 2545935287128699389 -->
<g id="node8" class="node">
<title>2545935287128699389</title>
<polygon fill="none" stroke="black" points="1017.49,-338.59 963.49,-338.59 963.49,-302.59 1017.49,-302.59 1017.49,-338.59"/>
<text text-anchor="middle" x="990.49" y="-316.89" font-family="Helvetica,sans-Serif" font-size="14.00">0</text>
</g>
<!-- &#45;7557009068685020924&#45;&gt;2545935287128699389 -->
<g id="edge5" class="edge">
<title>-7557009068685020924-&gt;2545935287128699389</title>
<path fill="none" stroke="black" d="M990.49,-266.79C990.49,-275.1 990.49,-284.13 990.49,-292.33"/>
<polygon fill="black" stroke="black" points="986.99,-292.5 990.49,-302.5 993.99,-292.5 986.99,-292.5"/>
</g>
<!-- 3899810890732062765 -->
<g id="node9" class="node">
<title>3899810890732062765</title>
<ellipse fill="none" stroke="black" cx="923.49" cy="-432.43" rx="57.69" ry="57.69"/>
<text text-anchor="middle" x="923.49" y="-428.73" font-family="Helvetica,sans-Serif" font-size="14.00">repartition</text>
</g>
<!-- 2545935287128699389&#45;&gt;3899810890732062765 -->
<g id="edge8" class="edge">
<title>2545935287128699389-&gt;3899810890732062765</title>
<path fill="none" stroke="black" d="M980.02,-338.75C974.16,-348.36 966.48,-360.96 958.67,-373.75"/>
<polygon fill="black" stroke="black" points="955.49,-372.25 953.27,-382.61 961.46,-375.9 955.49,-372.25"/>
</g>
<!-- 8139130063170955373 -->
<g id="node11" class="node">
<title>8139130063170955373</title>
<ellipse fill="none" stroke="black" cx="785.49" cy="-432.43" rx="57.69" ry="57.69"/>
<text text-anchor="middle" x="785.49" y="-428.73" font-family="Helvetica,sans-Serif" font-size="14.00">repartition</text>
</g>
<!-- 2545935287128699389&#45;&gt;8139130063170955373 -->
<g id="edge10" class="edge">
<title>2545935287128699389-&gt;8139130063170955373</title>
<path fill="none" stroke="black" d="M963.48,-329.63C935.62,-338.52 891.44,-354.3 856.49,-374.59 849.87,-378.43 843.2,-382.86 836.75,-387.52"/>
<polygon fill="black" stroke="black" points="834.64,-384.72 828.71,-393.5 838.82,-390.34 834.64,-384.72"/>
</g>
<!-- 2507683397840919034 -->
<g id="node13" class="node">
<title>2507683397840919034</title>
<ellipse fill="none" stroke="black" cx="1057.49" cy="-432.43" rx="57.69" ry="57.69"/>
<text text-anchor="middle" x="1057.49" y="-428.73" font-family="Helvetica,sans-Serif" font-size="14.00">repartition</text>
</g>
<!-- 2545935287128699389&#45;&gt;2507683397840919034 -->
<g id="edge12" class="edge">
<title>2545935287128699389-&gt;2507683397840919034</title>
<path fill="none" stroke="black" d="M1000.96,-338.75C1006.82,-348.36 1014.51,-360.96 1022.31,-373.75"/>
<polygon fill="black" stroke="black" points="1019.52,-375.9 1027.71,-382.61 1025.49,-372.25 1019.52,-375.9"/>
</g>
<!-- 6747002570279811642 -->
<g id="node15" class="node">
<title>6747002570279811642</title>
<ellipse fill="none" stroke="black" cx="1265.49" cy="-432.43" rx="57.69" ry="57.69"/>
<text text-anchor="middle" x="1265.49" y="-428.73" font-family="Helvetica,sans-Serif" font-size="14.00">repartition</text>
</g>
<!-- 2545935287128699389&#45;&gt;6747002570279811642 -->
<g id="edge14" class="edge">
<title>2545935287128699389-&gt;6747002570279811642</title>
<path fill="none" stroke="black" d="M1017.72,-332.29C1044.81,-342.96 1087.55,-359.83 1124.49,-374.59 1150.03,-384.78 1178.13,-396.09 1202.48,-405.92"/>
<polygon fill="black" stroke="black" points="1201.38,-409.25 1211.96,-409.75 1204,-402.76 1201.38,-409.25"/>
</g>
<!-- &#45;7538738558251484673 -->
<g id="node10" class="node">
<title>-7538738558251484673</title>
<polygon fill="none" stroke="black" points="950.49,-562.28 896.49,-562.28 896.49,-526.28 950.49,-526.28 950.49,-562.28"/>
<text text-anchor="middle" x="923.49" y="-540.58" font-family="Helvetica,sans-Serif" font-size="14.00">0</text>
</g>
<!-- 3899810890732062765&#45;&gt;&#45;7538738558251484673 -->
<g id="edge7" class="edge">
<title>3899810890732062765-&gt;-7538738558251484673</title>
<path fill="none" stroke="black" d="M923.49,-490.28C923.49,-499.11 923.49,-507.87 923.49,-515.64"/>
<polygon fill="black" stroke="black" points="919.99,-515.89 923.49,-525.89 926.99,-515.89 919.99,-515.89"/>
</g>
<!-- 5164783150743142218 -->
<g id="node17" class="node">
<title>5164783150743142218</title>
<ellipse fill="none" stroke="black" cx="923.49" cy="-643.77" rx="45.49" ry="45.49"/>
<text text-anchor="middle" x="923.49" y="-640.07" font-family="Helvetica,sans-Serif" font-size="14.00">getitem</text>
</g>
<!-- &#45;7538738558251484673&#45;&gt;5164783150743142218 -->
<g id="edge16" class="edge">
<title>-7538738558251484673-&gt;5164783150743142218</title>
<path fill="none" stroke="black" d="M923.49,-562.71C923.49,-569.87 923.49,-578.6 923.49,-587.62"/>
<polygon fill="black" stroke="black" points="919.99,-587.87 923.49,-597.87 926.99,-587.87 919.99,-587.87"/>
</g>
<!-- 6014931486485370577 -->
<g id="node12" class="node">
<title>6014931486485370577</title>
<polygon fill="none" stroke="black" points="779.49,-562.28 725.49,-562.28 725.49,-526.28 779.49,-526.28 779.49,-562.28"/>
<text text-anchor="middle" x="752.49" y="-540.58" font-family="Helvetica,sans-Serif" font-size="14.00">1</text>
</g>
<!-- 8139130063170955373&#45;&gt;6014931486485370577 -->
<g id="edge9" class="edge">
<title>8139130063170955373-&gt;6014931486485370577</title>
<path fill="none" stroke="black" d="M769.09,-488.03C766.14,-497.83 763.2,-507.64 760.62,-516.22"/>
<polygon fill="black" stroke="black" points="757.21,-515.41 757.68,-525.99 763.91,-517.42 757.21,-515.41"/>
</g>
<!-- &#45;8844910618045205520 -->
<g id="node19" class="node">
<title>-8844910618045205520</title>
<ellipse fill="none" stroke="black" cx="735.49" cy="-643.77" rx="45.49" ry="45.49"/>
<text text-anchor="middle" x="735.49" y="-640.07" font-family="Helvetica,sans-Serif" font-size="14.00">getitem</text>
</g>
<!-- 6014931486485370577&#45;&gt;&#45;8844910618045205520 -->
<g id="edge18" class="edge">
<title>6014931486485370577-&gt;-8844910618045205520</title>
<path fill="none" stroke="black" d="M749.45,-562.71C748.15,-570.19 746.55,-579.37 744.9,-588.82"/>
<polygon fill="black" stroke="black" points="741.45,-588.25 743.18,-598.7 748.34,-589.45 741.45,-588.25"/>
</g>
<!-- &#45;5924171831122182614 -->
<g id="node14" class="node">
<title>-5924171831122182614</title>
<polygon fill="none" stroke="black" points="1084.49,-562.28 1030.49,-562.28 1030.49,-526.28 1084.49,-526.28 1084.49,-562.28"/>
<text text-anchor="middle" x="1057.49" y="-540.58" font-family="Helvetica,sans-Serif" font-size="14.00">2</text>
</g>
<!-- 2507683397840919034&#45;&gt;&#45;5924171831122182614 -->
<g id="edge11" class="edge">
<title>2507683397840919034-&gt;-5924171831122182614</title>
<path fill="none" stroke="black" d="M1057.49,-490.28C1057.49,-499.11 1057.49,-507.87 1057.49,-515.64"/>
<polygon fill="black" stroke="black" points="1053.99,-515.89 1057.49,-525.89 1060.99,-515.89 1053.99,-515.89"/>
</g>
<!-- 4399349167531404926 -->
<g id="node21" class="node">
<title>4399349167531404926</title>
<ellipse fill="none" stroke="black" cx="1057.49" cy="-643.77" rx="45.49" ry="45.49"/>
<text text-anchor="middle" x="1057.49" y="-640.07" font-family="Helvetica,sans-Serif" font-size="14.00">getitem</text>
</g>
<!-- &#45;5924171831122182614&#45;&gt;4399349167531404926 -->
<g id="edge20" class="edge">
<title>-5924171831122182614-&gt;4399349167531404926</title>
<path fill="none" stroke="black" d="M1057.49,-562.71C1057.49,-569.87 1057.49,-578.6 1057.49,-587.62"/>
<polygon fill="black" stroke="black" points="1053.99,-587.87 1057.49,-597.87 1060.99,-587.87 1053.99,-587.87"/>
</g>
<!-- 7629498213614672636 -->
<g id="node16" class="node">
<title>7629498213614672636</title>
<polygon fill="none" stroke="black" points="1329.49,-562.28 1275.49,-562.28 1275.49,-526.28 1329.49,-526.28 1329.49,-562.28"/>
<text text-anchor="middle" x="1302.49" y="-540.58" font-family="Helvetica,sans-Serif" font-size="14.00">3</text>
</g>
<!-- 6747002570279811642&#45;&gt;7629498213614672636 -->
<g id="edge13" class="edge">
<title>6747002570279811642-&gt;7629498213614672636</title>
<path fill="none" stroke="black" d="M1283.67,-487.39C1287.08,-497.53 1290.51,-507.71 1293.49,-516.55"/>
<polygon fill="black" stroke="black" points="1290.24,-517.88 1296.75,-526.24 1296.88,-515.64 1290.24,-517.88"/>
</g>
<!-- 7760867138243452411 -->
<g id="node23" class="node">
<title>7760867138243452411</title>
<ellipse fill="none" stroke="black" cx="1321.49" cy="-643.77" rx="45.49" ry="45.49"/>
<text text-anchor="middle" x="1321.49" y="-640.07" font-family="Helvetica,sans-Serif" font-size="14.00">getitem</text>
</g>
<!-- 7629498213614672636&#45;&gt;7760867138243452411 -->
<g id="edge22" class="edge">
<title>7629498213614672636-&gt;7760867138243452411</title>
<path fill="none" stroke="black" d="M1305.89,-562.71C1307.35,-570.19 1309.14,-579.37 1310.98,-588.82"/>
<polygon fill="black" stroke="black" points="1307.56,-589.56 1312.9,-598.7 1314.43,-588.22 1307.56,-589.56"/>
</g>
<!-- 6548031042994512864 -->
<g id="node18" class="node">
<title>6548031042994512864</title>
<polygon fill="none" stroke="black" points="950.49,-761.27 896.49,-761.27 896.49,-725.27 950.49,-725.27 950.49,-761.27"/>
<text text-anchor="middle" x="923.49" y="-739.57" font-family="Helvetica,sans-Serif" font-size="14.00">0</text>
</g>
<!-- 5164783150743142218&#45;&gt;6548031042994512864 -->
<g id="edge15" class="edge">
<title>5164783150743142218-&gt;6548031042994512864</title>
<path fill="none" stroke="black" d="M923.49,-689.52C923.49,-698.2 923.49,-707.04 923.49,-714.94"/>
<polygon fill="black" stroke="black" points="919.99,-715.04 923.49,-725.04 926.99,-715.04 919.99,-715.04"/>
</g>
<!-- &#45;2891372260040260968 -->
<g id="node25" class="node">
<title>-2891372260040260968</title>
<ellipse fill="none" stroke="black" cx="931.49" cy="-894.76" rx="91.78" ry="91.78"/>
<text text-anchor="middle" x="931.49" y="-891.06" font-family="Helvetica,sans-Serif" font-size="14.00">series-sum-chunk</text>
</g>
<!-- 6548031042994512864&#45;&gt;&#45;2891372260040260968 -->
<g id="edge24" class="edge">
<title>6548031042994512864-&gt;-2891372260040260968</title>
<path fill="none" stroke="black" d="M924.41,-761.42C924.86,-769.86 925.45,-780.8 926.09,-792.77"/>
<polygon fill="black" stroke="black" points="922.61,-793.23 926.64,-803.03 929.6,-792.86 922.61,-793.23"/>
</g>
<!-- &#45;2830145744992150811 -->
<g id="node34" class="node">
<title>-2830145744992150811</title>
<ellipse fill="none" stroke="black" cx="310.49" cy="-894.76" rx="97.48" ry="97.48"/>
<text text-anchor="middle" x="310.49" y="-891.06" font-family="Helvetica,sans-Serif" font-size="14.00">series-count-chunk</text>
</g>
<!-- 6548031042994512864&#45;&gt;&#45;2830145744992150811 -->
<g id="edge37" class="edge">
<title>6548031042994512864-&gt;-2830145744992150811</title>
<path fill="none" stroke="black" d="M896.27,-747.26C864.96,-750.69 812.02,-756.45 766.49,-761.27 611.42,-777.66 559.98,-733.93 417.49,-797.27 406.13,-802.32 395.14,-809.05 384.82,-816.61"/>
<polygon fill="black" stroke="black" points="382.5,-813.98 376.69,-822.84 386.75,-819.54 382.5,-813.98"/>
</g>
<!-- &#45;5391072274613040327 -->
<g id="node20" class="node">
<title>-5391072274613040327</title>
<polygon fill="none" stroke="black" points="757.49,-761.27 703.49,-761.27 703.49,-725.27 757.49,-725.27 757.49,-761.27"/>
<text text-anchor="middle" x="730.49" y="-739.57" font-family="Helvetica,sans-Serif" font-size="14.00">1</text>
</g>
<!-- &#45;8844910618045205520&#45;&gt;&#45;5391072274613040327 -->
<g id="edge17" class="edge">
<title>-8844910618045205520-&gt;-5391072274613040327</title>
<path fill="none" stroke="black" d="M733.21,-689.24C732.76,-697.94 732.31,-706.83 731.9,-714.77"/>
<polygon fill="black" stroke="black" points="728.4,-714.76 731.38,-724.92 735.39,-715.12 728.4,-714.76"/>
</g>
<!-- 2680164727222086214 -->
<g id="node27" class="node">
<title>2680164727222086214</title>
<ellipse fill="none" stroke="black" cx="730.49" cy="-894.76" rx="91.78" ry="91.78"/>
<text text-anchor="middle" x="730.49" y="-891.06" font-family="Helvetica,sans-Serif" font-size="14.00">series-sum-chunk</text>
</g>
<!-- &#45;5391072274613040327&#45;&gt;2680164727222086214 -->
<g id="edge26" class="edge">
<title>-5391072274613040327-&gt;2680164727222086214</title>
<path fill="none" stroke="black" d="M730.49,-761.42C730.49,-769.86 730.49,-780.8 730.49,-792.77"/>
<polygon fill="black" stroke="black" points="726.99,-793.03 730.49,-803.03 733.99,-793.03 726.99,-793.03"/>
</g>
<!-- &#45;5636855861188115028 -->
<g id="node36" class="node">
<title>-5636855861188115028</title>
<ellipse fill="none" stroke="black" cx="97.49" cy="-894.76" rx="97.48" ry="97.48"/>
<text text-anchor="middle" x="97.49" y="-891.06" font-family="Helvetica,sans-Serif" font-size="14.00">series-count-chunk</text>
</g>
<!-- &#45;5391072274613040327&#45;&gt;&#45;5636855861188115028 -->
<g id="edge39" class="edge">
<title>-5391072274613040327-&gt;-5636855861188115028</title>
<path fill="none" stroke="black" d="M703.28,-744.79C608.73,-746.94 295.33,-757.02 204.49,-797.27 193.12,-802.31 182.13,-809.02 171.81,-816.58"/>
<polygon fill="black" stroke="black" points="169.49,-813.95 163.67,-822.81 173.74,-819.51 169.49,-813.95"/>
</g>
<!-- 1116568481488958098 -->
<g id="node22" class="node">
<title>1116568481488958098</title>
<polygon fill="none" stroke="black" points="1084.49,-761.27 1030.49,-761.27 1030.49,-725.27 1084.49,-725.27 1084.49,-761.27"/>
<text text-anchor="middle" x="1057.49" y="-739.57" font-family="Helvetica,sans-Serif" font-size="14.00">2</text>
</g>
<!-- 4399349167531404926&#45;&gt;1116568481488958098 -->
<g id="edge19" class="edge">
<title>4399349167531404926-&gt;1116568481488958098</title>
<path fill="none" stroke="black" d="M1057.49,-689.52C1057.49,-698.2 1057.49,-707.04 1057.49,-714.94"/>
<polygon fill="black" stroke="black" points="1053.99,-715.04 1057.49,-725.04 1060.99,-715.04 1053.99,-715.04"/>
</g>
<!-- &#45;8681857135915772827 -->
<g id="node29" class="node">
<title>-8681857135915772827</title>
<ellipse fill="none" stroke="black" cx="1132.49" cy="-894.76" rx="91.78" ry="91.78"/>
<text text-anchor="middle" x="1132.49" y="-891.06" font-family="Helvetica,sans-Serif" font-size="14.00">series-sum-chunk</text>
</g>
<!-- 1116568481488958098&#45;&gt;&#45;8681857135915772827 -->
<g id="edge28" class="edge">
<title>1116568481488958098-&gt;-8681857135915772827</title>
<path fill="none" stroke="black" d="M1066.09,-761.42C1071.58,-772.35 1079.16,-787.46 1087.24,-803.57"/>
<polygon fill="black" stroke="black" points="1084.16,-805.24 1091.78,-812.6 1090.42,-802.1 1084.16,-805.24"/>
</g>
<!-- 6335621720105991457 -->
<g id="node38" class="node">
<title>6335621720105991457</title>
<ellipse fill="none" stroke="black" cx="523.49" cy="-894.76" rx="97.48" ry="97.48"/>
<text text-anchor="middle" x="523.49" y="-891.06" font-family="Helvetica,sans-Serif" font-size="14.00">series-count-chunk</text>
</g>
<!-- 1116568481488958098&#45;&gt;6335621720105991457 -->
<g id="edge41" class="edge">
<title>1116568481488958098-&gt;6335621720105991457</title>
<path fill="none" stroke="black" d="M1030.11,-749.49C1010.49,-753.12 983.43,-757.89 959.49,-761.27 813.4,-781.89 763.99,-736.63 629.49,-797.27 618.3,-802.31 607.49,-808.99 597.33,-816.49"/>
<polygon fill="black" stroke="black" points="595.1,-813.79 589.32,-822.67 599.38,-819.33 595.1,-813.79"/>
</g>
<!-- &#45;8174862930468106396 -->
<g id="node24" class="node">
<title>-8174862930468106396</title>
<polygon fill="none" stroke="black" points="1366.49,-761.27 1312.49,-761.27 1312.49,-725.27 1366.49,-725.27 1366.49,-761.27"/>
<text text-anchor="middle" x="1339.49" y="-739.57" font-family="Helvetica,sans-Serif" font-size="14.00">3</text>
</g>
<!-- 7760867138243452411&#45;&gt;&#45;8174862930468106396 -->
<g id="edge21" class="edge">
<title>7760867138243452411-&gt;-8174862930468106396</title>
<path fill="none" stroke="black" d="M1329.6,-688.67C1331.26,-697.67 1332.96,-706.89 1334.47,-715.09"/>
<polygon fill="black" stroke="black" points="1331.08,-715.98 1336.34,-725.17 1337.96,-714.7 1331.08,-715.98"/>
</g>
<!-- 1914730744010348922 -->
<g id="node31" class="node">
<title>1914730744010348922</title>
<ellipse fill="none" stroke="black" cx="1546.49" cy="-894.76" rx="91.78" ry="91.78"/>
<text text-anchor="middle" x="1546.49" y="-891.06" font-family="Helvetica,sans-Serif" font-size="14.00">series-sum-chunk</text>
</g>
<!-- &#45;8174862930468106396&#45;&gt;1914730744010348922 -->
<g id="edge30" class="edge">
<title>-8174862930468106396-&gt;1914730744010348922</title>
<path fill="none" stroke="black" d="M1366.87,-755.25C1389.05,-764.77 1420.59,-779.75 1445.49,-797.27 1455.84,-804.55 1466.17,-812.88 1476.06,-821.51"/>
<polygon fill="black" stroke="black" points="1473.73,-824.13 1483.52,-828.17 1478.39,-818.9 1473.73,-824.13"/>
</g>
<!-- &#45;7477822178609008713 -->
<g id="node40" class="node">
<title>-7477822178609008713</title>
<ellipse fill="none" stroke="black" cx="1339.49" cy="-894.76" rx="97.48" ry="97.48"/>
<text text-anchor="middle" x="1339.49" y="-891.06" font-family="Helvetica,sans-Serif" font-size="14.00">series-count-chunk</text>
</g>
<!-- &#45;8174862930468106396&#45;&gt;&#45;7477822178609008713 -->
<g id="edge43" class="edge">
<title>-8174862930468106396-&gt;-7477822178609008713</title>
<path fill="none" stroke="black" d="M1339.49,-761.42C1339.49,-768.42 1339.49,-777.13 1339.49,-786.72"/>
<polygon fill="black" stroke="black" points="1335.99,-787 1339.49,-797 1342.99,-787 1335.99,-787"/>
</g>
<!-- &#45;4468358093033941462 -->
<g id="node26" class="node">
<title>-4468358093033941462</title>
<polygon fill="none" stroke="black" points="958.49,-1064.25 904.49,-1064.25 904.49,-1028.25 958.49,-1028.25 958.49,-1064.25"/>
<text text-anchor="middle" x="931.49" y="-1042.55" font-family="Helvetica,sans-Serif" font-size="14.00">0</text>
</g>
<!-- &#45;2891372260040260968&#45;&gt;&#45;4468358093033941462 -->
<g id="edge23" class="edge">
<title>-2891372260040260968-&gt;-4468358093033941462</title>
<path fill="none" stroke="black" d="M931.49,-986.6C931.49,-998.02 931.49,-1008.92 931.49,-1018.16"/>
<polygon fill="black" stroke="black" points="927.99,-1018.16 931.49,-1028.16 934.99,-1018.16 927.99,-1018.16"/>
</g>
<!-- &#45;6237264744343317429 -->
<g id="node33" class="node">
<title>-6237264744343317429</title>
<ellipse fill="none" stroke="black" cx="931.49" cy="-1187.34" rx="81.49" ry="81.49"/>
<text text-anchor="middle" x="931.49" y="-1183.64" font-family="Helvetica,sans-Serif" font-size="14.00">series-sum-agg</text>
</g>
<!-- &#45;4468358093033941462&#45;&gt;&#45;6237264744343317429 -->
<g id="edge32" class="edge">
<title>-4468358093033941462-&gt;-6237264744343317429</title>
<path fill="none" stroke="black" d="M931.49,-1064.31C931.49,-1072.81 931.49,-1083.81 931.49,-1095.72"/>
<polygon fill="black" stroke="black" points="927.99,-1095.91 931.49,-1105.91 934.99,-1095.91 927.99,-1095.91"/>
</g>
<!-- 9085311951702913788 -->
<g id="node28" class="node">
<title>9085311951702913788</title>
<polygon fill="none" stroke="black" points="821.49,-1064.25 767.49,-1064.25 767.49,-1028.25 821.49,-1028.25 821.49,-1064.25"/>
<text text-anchor="middle" x="794.49" y="-1042.55" font-family="Helvetica,sans-Serif" font-size="14.00">1</text>
</g>
<!-- 2680164727222086214&#45;&gt;9085311951702913788 -->
<g id="edge25" class="edge">
<title>2680164727222086214-&gt;9085311951702913788</title>
<path fill="none" stroke="black" d="M766.23,-979.25C772.39,-993.63 778.36,-1007.57 783.21,-1018.91"/>
<polygon fill="black" stroke="black" points="780.01,-1020.33 787.17,-1028.14 786.45,-1017.57 780.01,-1020.33"/>
</g>
<!-- 9085311951702913788&#45;&gt;&#45;6237264744343317429 -->
<g id="edge33" class="edge">
<title>9085311951702913788-&gt;-6237264744343317429</title>
<path fill="none" stroke="black" d="M811.29,-1064.31C825.54,-1078.77 846.93,-1100.49 867.73,-1121.61"/>
<polygon fill="black" stroke="black" points="865.24,-1124.07 874.75,-1128.74 870.23,-1119.16 865.24,-1124.07"/>
</g>
<!-- &#45;2853791365904639403 -->
<g id="node30" class="node">
<title>-2853791365904639403</title>
<polygon fill="none" stroke="black" points="1094.49,-1064.25 1040.49,-1064.25 1040.49,-1028.25 1094.49,-1028.25 1094.49,-1064.25"/>
<text text-anchor="middle" x="1067.49" y="-1042.55" font-family="Helvetica,sans-Serif" font-size="14.00">2</text>
</g>
<!-- &#45;8681857135915772827&#45;&gt;&#45;2853791365904639403 -->
<g id="edge27" class="edge">
<title>-8681857135915772827-&gt;-2853791365904639403</title>
<path fill="none" stroke="black" d="M1096.19,-979.25C1089.94,-993.63 1083.88,-1007.57 1078.95,-1018.91"/>
<polygon fill="black" stroke="black" points="1075.71,-1017.58 1074.93,-1028.14 1082.13,-1020.37 1075.71,-1017.58"/>
</g>
<!-- &#45;2853791365904639403&#45;&gt;&#45;6237264744343317429 -->
<g id="edge34" class="edge">
<title>-2853791365904639403-&gt;-6237264744343317429</title>
<path fill="none" stroke="black" d="M1050.82,-1064.31C1036.73,-1078.71 1015.62,-1100.3 995.05,-1121.34"/>
<polygon fill="black" stroke="black" points="992.3,-1119.14 987.81,-1128.74 997.31,-1124.04 992.3,-1119.14"/>
</g>
<!-- 3653849390197359022 -->
<g id="node32" class="node">
<title>3653849390197359022</title>
<polygon fill="none" stroke="black" points="1455.49,-1064.25 1401.49,-1064.25 1401.49,-1028.25 1455.49,-1028.25 1455.49,-1064.25"/>
<text text-anchor="middle" x="1428.49" y="-1042.55" font-family="Helvetica,sans-Serif" font-size="14.00">3</text>
</g>
<!-- 1914730744010348922&#45;&gt;3653849390197359022 -->
<g id="edge29" class="edge">
<title>1914730744010348922-&gt;3653849390197359022</title>
<path fill="none" stroke="black" d="M1489.91,-967.44C1474.98,-986.36 1459.84,-1005.54 1448.33,-1020.12"/>
<polygon fill="black" stroke="black" points="1445.45,-1018.12 1442,-1028.14 1450.94,-1022.46 1445.45,-1018.12"/>
</g>
<!-- 3653849390197359022&#45;&gt;&#45;6237264744343317429 -->
<g id="edge35" class="edge">
<title>3653849390197359022-&gt;-6237264744343317429</title>
<path fill="none" stroke="black" d="M1401.42,-1054.83C1330.07,-1074.8 1134.48,-1129.53 1019.36,-1161.75"/>
<polygon fill="black" stroke="black" points="1018.2,-1158.44 1009.51,-1164.51 1020.08,-1165.18 1018.2,-1158.44"/>
</g>
<!-- &#45;6237264744343317429&#45;&gt;&#45;2906834598044529596 -->
<g id="edge31" class="edge">
<title>-6237264744343317429-&gt;-2906834598044529596</title>
<path fill="none" stroke="black" d="M889.74,-1257.48C880.29,-1273.13 870.82,-1288.8 863.25,-1301.34"/>
<polygon fill="black" stroke="black" points="860.04,-1299.89 857.87,-1310.26 866.03,-1303.51 860.04,-1299.89"/>
</g>
<!-- 7175304673656112837 -->
<g id="node35" class="node">
<title>7175304673656112837</title>
<polygon fill="none" stroke="black" points="407.49,-1064.25 353.49,-1064.25 353.49,-1028.25 407.49,-1028.25 407.49,-1064.25"/>
<text text-anchor="middle" x="380.49" y="-1042.55" font-family="Helvetica,sans-Serif" font-size="14.00">0</text>
</g>
<!-- &#45;2830145744992150811&#45;&gt;7175304673656112837 -->
<g id="edge36" class="edge">
<title>-2830145744992150811-&gt;7175304673656112837</title>
<path fill="none" stroke="black" d="M351.62,-983.58C357.66,-996.49 363.45,-1008.86 368.24,-1019.09"/>
<polygon fill="black" stroke="black" points="365.09,-1020.62 372.5,-1028.19 371.43,-1017.65 365.09,-1020.62"/>
</g>
<!-- 3929093708365986414 -->
<g id="node42" class="node">
<title>3929093708365986414</title>
<ellipse fill="none" stroke="black" cx="523.49" cy="-1187.34" rx="87.18" ry="87.18"/>
<text text-anchor="middle" x="523.49" y="-1183.64" font-family="Helvetica,sans-Serif" font-size="14.00">series-count-agg</text>
</g>
<!-- 7175304673656112837&#45;&gt;3929093708365986414 -->
<g id="edge47" class="edge">
<title>7175304673656112837-&gt;3929093708365986414</title>
<path fill="none" stroke="black" d="M398.03,-1064.31C412.24,-1078.13 433.25,-1098.56 454.03,-1118.77"/>
<polygon fill="black" stroke="black" points="451.75,-1121.44 461.35,-1125.9 456.63,-1116.42 451.75,-1121.44"/>
</g>
<!-- 2282230644683416471 -->
<g id="node37" class="node">
<title>2282230644683416471</title>
<polygon fill="none" stroke="black" points="265.49,-1064.25 211.49,-1064.25 211.49,-1028.25 265.49,-1028.25 265.49,-1064.25"/>
<text text-anchor="middle" x="238.49" y="-1042.55" font-family="Helvetica,sans-Serif" font-size="14.00">1</text>
</g>
<!-- &#45;5636855861188115028&#45;&gt;2282230644683416471 -->
<g id="edge38" class="edge">
<title>-5636855861188115028-&gt;2282230644683416471</title>
<path fill="none" stroke="black" d="M164.28,-966.56C182.7,-986.1 201.47,-1006 215.52,-1020.9"/>
<polygon fill="black" stroke="black" points="213,-1023.33 222.41,-1028.2 218.1,-1018.53 213,-1023.33"/>
</g>
<!-- 2282230644683416471&#45;&gt;3929093708365986414 -->
<g id="edge48" class="edge">
<title>2282230644683416471-&gt;3929093708365986414</title>
<path fill="none" stroke="black" d="M265.56,-1060.46C304.4,-1079.42 377.72,-1115.2 436.29,-1143.78"/>
<polygon fill="black" stroke="black" points="435.03,-1147.06 445.55,-1148.3 438.1,-1140.77 435.03,-1147.06"/>
</g>
<!-- 8789871400785414896 -->
<g id="node39" class="node">
<title>8789871400785414896</title>
<polygon fill="none" stroke="black" points="550.49,-1064.25 496.49,-1064.25 496.49,-1028.25 550.49,-1028.25 550.49,-1064.25"/>
<text text-anchor="middle" x="523.49" y="-1042.55" font-family="Helvetica,sans-Serif" font-size="14.00">2</text>
</g>
<!-- 6335621720105991457&#45;&gt;8789871400785414896 -->
<g id="edge40" class="edge">
<title>6335621720105991457-&gt;8789871400785414896</title>
<path fill="none" stroke="black" d="M523.49,-992.55C523.49,-1001.6 523.49,-1010.17 523.49,-1017.68"/>
<polygon fill="black" stroke="black" points="519.99,-1017.84 523.49,-1027.84 526.99,-1017.84 519.99,-1017.84"/>
</g>
<!-- 8789871400785414896&#45;&gt;3929093708365986414 -->
<g id="edge45" class="edge">
<title>8789871400785414896-&gt;3929093708365986414</title>
<path fill="none" stroke="black" d="M523.49,-1064.31C523.49,-1071.36 523.49,-1080.13 523.49,-1089.72"/>
<polygon fill="black" stroke="black" points="519.99,-1089.97 523.49,-1099.97 526.99,-1089.97 519.99,-1089.97"/>
</g>
<!-- &#45;501560011171649598 -->
<g id="node41" class="node">
<title>-501560011171649598</title>
<polygon fill="none" stroke="black" points="1266.49,-1064.25 1212.49,-1064.25 1212.49,-1028.25 1266.49,-1028.25 1266.49,-1064.25"/>
<text text-anchor="middle" x="1239.49" y="-1042.55" font-family="Helvetica,sans-Serif" font-size="14.00">3</text>
</g>
<!-- &#45;7477822178609008713&#45;&gt;&#45;501560011171649598 -->
<g id="edge42" class="edge">
<title>-7477822178609008713-&gt;-501560011171649598</title>
<path fill="none" stroke="black" d="M1285.69,-976.19C1275.12,-991.99 1264.78,-1007.44 1256.58,-1019.71"/>
<polygon fill="black" stroke="black" points="1253.65,-1017.78 1251,-1028.04 1259.47,-1021.67 1253.65,-1017.78"/>
</g>
<!-- &#45;501560011171649598&#45;&gt;3929093708365986414 -->
<g id="edge46" class="edge">
<title>-501560011171649598-&gt;3929093708365986414</title>
<path fill="none" stroke="black" d="M1212.36,-1050.65C1128.65,-1061.18 877.84,-1092.94 841.49,-1100.25 764.85,-1115.66 679.39,-1139.16 616.38,-1157.71"/>
<polygon fill="black" stroke="black" points="615.06,-1154.45 606.47,-1160.65 617.05,-1161.17 615.06,-1154.45"/>
</g>
<!-- 3929093708365986414&#45;&gt;&#45;6898352807645038710 -->
<g id="edge44" class="edge">
<title>3929093708365986414-&gt;-6898352807645038710</title>
<path fill="none" stroke="black" d="M590.37,-1243.72C615.62,-1264.62 643.03,-1287.32 662.94,-1303.79"/>
<polygon fill="black" stroke="black" points="660.78,-1306.55 670.71,-1310.23 665.24,-1301.16 660.78,-1306.55"/>
</g>
</g>
</svg>