<svg height="116pt" viewBox="0.00 0.00 321.49 116.50" width="321pt" xmlns="http://www.w3.org/2000/svg" xmlns:xlink="http://www.w3.org/1999/xlink">
<g class="graph" id="graph0" transform="scale(1 1) rotate(0) translate(4 112.5)">
<polygon fill="white" points="-4,4 -4,-112.5 317.49,-112.5 317.49,4 -4,4" stroke="transparent"/>
<!-- 3406098931200401490 -->
<g class="node" id="node1">
<title>3406098931200401490</title>
<ellipse cx="198.79" cy="-55.05" fill="none" rx="24.9" ry="24.9" stroke="black"/>
<text font-family="Times New Roman,serif" font-size="14.00" text-anchor="middle" x="198.79" y="-51.35">add</text>
</g>
<!-- 3398111632171849199 -->
<g class="node" id="node2">
<title>3398111632171849199</title>
<polygon fill="none" points="313.49,-73.05 259.49,-73.05 259.49,-37.05 313.49,-37.05 313.49,-73.05" stroke="black"/>
</g>
<!-- 3406098931200401490&#45;&gt;3398111632171849199 -->
<g class="edge" id="edge1">
<title>3406098931200401490-&gt;3398111632171849199</title>
<path d="M223.67,-55.05C231.55,-55.05 240.51,-55.05 249.12,-55.05" fill="none" stroke="black"/>
<polygon fill="black" points="249.34,-58.55 259.34,-55.05 249.34,-51.55 249.34,-58.55" stroke="black"/>
</g>
<!-- 3670338696258609690 -->
<g class="node" id="node3">
<title>3670338696258609690</title>
<polygon fill="none" points="138.1,-102.05 84.1,-102.05 84.1,-66.05 138.1,-66.05 138.1,-102.05" stroke="black"/>
</g>
<!-- 3670338696258609690&#45;&gt;3406098931200401490 -->
<g class="edge" id="edge2">
<title>3670338696258609690-&gt;3406098931200401490</title>
<path d="M138.27,-75.19C146.95,-72.25 156.7,-68.95 165.77,-65.88" fill="none" stroke="black"/>
<polygon fill="black" points="166.9,-69.2 175.25,-62.68 164.66,-62.57 166.9,-69.2" stroke="black"/>
</g>
<!-- &#45;4869832998758790204 -->
<g class="node" id="node4">
<title>-4869832998758790204</title>
<polygon fill="none" points="138.1,-46.05 84.1,-46.05 84.1,-10.05 138.1,-10.05 138.1,-46.05" stroke="black"/>
</g>
<!-- &#45;4869832998758790204&#45;&gt;3406098931200401490 -->
<g class="edge" id="edge3">
<title>-4869832998758790204-&gt;3406098931200401490</title>
<path d="M138.27,-36.3C146.79,-38.98 156.34,-41.99 165.25,-44.8" fill="none" stroke="black"/>
<polygon fill="black" points="164.38,-48.19 174.97,-47.86 166.48,-41.51 164.38,-48.19" stroke="black"/>
</g>
<!-- &#45;5040553929788611813 -->
<g class="node" id="node5">
<title>-5040553929788611813</title>
<ellipse cx="24.05" cy="-87.05" fill="none" rx="21.4" ry="21.4" stroke="black"/>
<text font-family="Times New Roman,serif" font-size="14.00" text-anchor="middle" x="24.05" y="-83.35">inc</text>
</g>
<!-- &#45;5040553929788611813&#45;&gt;3670338696258609690 -->
<g class="edge" id="edge4">
<title>-5040553929788611813-&gt;3670338696258609690</title>
<path d="M45.64,-86.32C54.08,-86.02 64.12,-85.67 73.73,-85.33" fill="none" stroke="black"/>
<polygon fill="black" points="74.03,-88.82 83.9,-84.97 73.78,-81.83 74.03,-88.82" stroke="black"/>
</g>
<!-- &#45;2398222959609283419 -->
<g class="node" id="node6">
<title>-2398222959609283419</title>
<ellipse cx="24.05" cy="-24.05" fill="none" rx="24.1" ry="24.1" stroke="black"/>
<text font-family="Times New Roman,serif" font-size="14.00" text-anchor="middle" x="24.05" y="-20.35">dec</text>
</g>
<!-- &#45;2398222959609283419&#45;&gt;&#45;4869832998758790204 -->
<g class="edge" id="edge5">
<title>-2398222959609283419-&gt;-4869832998758790204</title>
<path d="M48.29,-25.14C56.12,-25.51 65.06,-25.93 73.66,-26.33" fill="none" stroke="black"/>
<polygon fill="black" points="73.73,-29.84 83.88,-26.82 74.06,-22.85 73.73,-29.84" stroke="black"/>
</g>
</g>
</svg>