<svg xmlns="http://www.w3.org/2000/svg" xmlns:xlink="http://www.w3.org/1999/xlink" width="333pt" height="128pt" viewBox="0.00 0.00 333.19 127.70">
<g id="graph0" class="graph" transform="scale(1 1) rotate(0) translate(4 123.7)">
<polygon fill="white" stroke="transparent" points="-4,4 -4,-123.7 329.19,-123.7 329.19,4 -4,4"/>
<!-- 3307199909669563372 -->
<g id="node1" class="node">
<title>3307199909669563372</title>
<ellipse fill="none" stroke="black" cx="207.24" cy="-58.05" rx="27.9" ry="27.9"/>
<text text-anchor="middle" x="207.24" y="-54.35" font-family="Helvetica,sans-Serif" font-size="14.00">add</text>
</g>
<!-- 1014471605916750831 -->
<g id="node2" class="node">
<title>1014471605916750831</title>
<polygon fill="none" stroke="black" points="325.19,-76.05 271.19,-76.05 271.19,-40.05 325.19,-40.05 325.19,-76.05"/>
</g>
<!-- 3307199909669563372&#45;&gt;1014471605916750831 -->
<g id="edge1" class="edge">
<title>3307199909669563372-&gt;1014471605916750831</title>
<path fill="none" stroke="black" d="M235.41,-58.05C243.48,-58.05 252.44,-58.05 260.98,-58.05"/>
<polygon fill="black" stroke="black" points="261.1,-61.55 271.1,-58.05 261.1,-54.55 261.1,-61.55"/>
</g>
<!-- 4193271381787770761 -->
<g id="node3" class="node">
<title>4193271381787770761</title>
<polygon fill="none" stroke="black" points="143.3,-107.05 89.3,-107.05 89.3,-71.05 143.3,-71.05 143.3,-107.05"/>
</g>
<!-- 4193271381787770761&#45;&gt;3307199909669563372 -->
<g id="edge2" class="edge">
<title>4193271381787770761-&gt;3307199909669563372</title>
<path fill="none" stroke="black" d="M143.5,-79.91C152.08,-76.92 161.76,-73.55 170.9,-70.37"/>
<polygon fill="black" stroke="black" points="172.24,-73.61 180.53,-67.01 169.94,-67 172.24,-73.61"/>
</g>
<!-- &#45;7577183885125243555 -->
<g id="node4" class="node">
<title>-7577183885125243555</title>
<polygon fill="none" stroke="black" points="143.3,-49.05 89.3,-49.05 89.3,-13.05 143.3,-13.05 143.3,-49.05"/>
</g>
<!-- &#45;7577183885125243555&#45;&gt;3307199909669563372 -->
<g id="edge3" class="edge">
<title>-7577183885125243555-&gt;3307199909669563372</title>
<path fill="none" stroke="black" d="M143.5,-39C151.92,-41.56 161.39,-44.43 170.37,-47.16"/>
<polygon fill="black" stroke="black" points="169.64,-50.59 180.22,-50.15 171.67,-43.9 169.64,-50.59"/>
</g>
<!-- 1199421295271420673 -->
<g id="node5" class="node">
<title>1199421295271420673</title>
<ellipse fill="none" stroke="black" cx="26.65" cy="-24.05" rx="24.1" ry="24.1"/>
<text text-anchor="middle" x="26.65" y="-20.35" font-family="Helvetica,sans-Serif" font-size="14.00">inc</text>
</g>
<!-- 1199421295271420673&#45;&gt;&#45;7577183885125243555 -->
<g id="edge4" class="edge">
<title>1199421295271420673-&gt;-7577183885125243555</title>
<path fill="none" stroke="black" d="M50.68,-25.89C59.32,-26.58 69.36,-27.38 78.92,-28.14"/>
<polygon fill="black" stroke="black" points="78.77,-31.64 89.01,-28.95 79.32,-24.66 78.77,-31.64"/>
</g>
<!-- 4821955517815422245 -->
<g id="node6" class="node">
<title>4821955517815422245</title>
<ellipse fill="none" stroke="black" cx="26.65" cy="-93.05" rx="26.8" ry="26.8"/>
<text text-anchor="middle" x="26.65" y="-89.35" font-family="Helvetica,sans-Serif" font-size="14.00">dec</text>
</g>
<!-- 4821955517815422245&#45;&gt;4193271381787770761 -->
<g id="edge5" class="edge">
<title>4821955517815422245-&gt;4193271381787770761</title>
<path fill="none" stroke="black" d="M53.47,-91.87C61.44,-91.51 70.37,-91.1 78.91,-90.71"/>
<polygon fill="black" stroke="black" points="79.22,-94.2 89.05,-90.25 78.9,-87.21 79.22,-94.2"/>
</g>
</g>
</svg>