<svg xmlns="http://www.w3.org/2000/svg" xmlns:xlink="http://www.w3.org/1999/xlink" width="606pt" height="1443pt" viewBox="0.00 0.00 606.49 1442.83">
<g id="graph0" class="graph" transform="scale(1 1) rotate(0) translate(4 1438.83)">
<polygon fill="white" stroke="transparent" points="-4,4 -4,-1438.83 602.49,-1438.83 602.49,4 -4,4"/>
<!-- 107551115291241272 -->
<g id="node1" class="node">
<title>107551115291241272</title>
<ellipse fill="none" stroke="black" cx="68.24" cy="-438.93" rx="27.9" ry="27.9"/>
<text text-anchor="middle" x="68.24" y="-435.23" font-family="Helvetica,sans-Serif" font-size="14.00">mul</text>
</g>
<!-- &#45;2195301100611497213 -->
<g id="node2" class="node">
<title>-2195301100611497213</title>
<polygon fill="none" stroke="black" points="95.24,-538.88 41.24,-538.88 41.24,-502.88 95.24,-502.88 95.24,-538.88"/>
<text text-anchor="middle" x="68.24" y="-517.18" font-family="Helvetica,sans-Serif" font-size="14.00">(0, 0)</text>
</g>
<!-- 107551115291241272&#45;&gt;&#45;2195301100611497213 -->
<g id="edge1" class="edge">
<title>107551115291241272-&gt;-2195301100611497213</title>
<path fill="none" stroke="black" d="M68.24,-467C68.24,-475.19 68.24,-484.19 68.24,-492.4"/>
<polygon fill="black" stroke="black" points="64.74,-492.62 68.24,-502.62 71.74,-492.62 64.74,-492.62"/>
</g>
<!-- &#45;4686287901900102478 -->
<g id="node25" class="node">
<title>-4686287901900102478</title>
<ellipse fill="none" stroke="black" cx="68.24" cy="-643.12" rx="68.49" ry="68.49"/>
<text text-anchor="middle" x="68.24" y="-639.42" font-family="Helvetica,sans-Serif" font-size="14.00">mean_chunk</text>
</g>
<!-- &#45;2195301100611497213&#45;&gt;&#45;4686287901900102478 -->
<g id="edge26" class="edge">
<title>-2195301100611497213-&gt;-4686287901900102478</title>
<path fill="none" stroke="black" d="M68.24,-539.11C68.24,-546.29 68.24,-555.17 68.24,-564.69"/>
<polygon fill="black" stroke="black" points="64.74,-564.79 68.24,-574.79 71.74,-564.79 64.74,-564.79"/>
</g>
<!-- &#45;441636896296742192 -->
<g id="node3" class="node">
<title>-441636896296742192</title>
<polygon fill="none" stroke="black" points="90.24,-175.99 36.24,-175.99 36.24,-139.99 90.24,-139.99 90.24,-175.99"/>
<text text-anchor="middle" x="63.24" y="-154.29" font-family="Helvetica,sans-Serif" font-size="14.00">(0, 0)</text>
</g>
<!-- &#45;441636896296742192&#45;&gt;107551115291241272 -->
<g id="edge2" class="edge">
<title>-441636896296742192-&gt;107551115291241272</title>
<path fill="none" stroke="black" d="M49.68,-176.02C42.69,-185.9 34.88,-198.94 31.24,-211.99 12.71,-278.56 36.41,-358.91 53.53,-403.63"/>
<polygon fill="black" stroke="black" points="50.36,-405.12 57.28,-413.14 56.87,-402.56 50.36,-405.12"/>
</g>
<!-- 267961328377490889 -->
<g id="node21" class="node">
<title>267961328377490889</title>
<ellipse fill="none" stroke="black" cx="85.24" cy="-257.49" rx="45.49" ry="45.49"/>
<text text-anchor="middle" x="85.24" y="-253.79" font-family="Helvetica,sans-Serif" font-size="14.00">getitem</text>
</g>
<!-- &#45;441636896296742192&#45;&gt;267961328377490889 -->
<g id="edge18" class="edge">
<title>-441636896296742192-&gt;267961328377490889</title>
<path fill="none" stroke="black" d="M67.18,-176.42C68.88,-183.98 70.98,-193.29 73.14,-202.84"/>
<polygon fill="black" stroke="black" points="69.78,-203.85 75.39,-212.83 76.61,-202.31 69.78,-203.85"/>
</g>
<!-- 3144924958451889400 -->
<g id="node4" class="node">
<title>3144924958451889400</title>
<polygon fill="none" stroke="black" points="118.24,-374.98 64.24,-374.98 64.24,-338.98 118.24,-338.98 118.24,-374.98"/>
<text text-anchor="middle" x="91.24" y="-353.28" font-family="Helvetica,sans-Serif" font-size="14.00">(0, 0)</text>
</g>
<!-- 3144924958451889400&#45;&gt;107551115291241272 -->
<g id="edge3" class="edge">
<title>3144924958451889400-&gt;107551115291241272</title>
<path fill="none" stroke="black" d="M86.25,-375.33C84,-383.15 81.26,-392.7 78.59,-401.96"/>
<polygon fill="black" stroke="black" points="75.16,-401.22 75.76,-411.8 81.89,-403.16 75.16,-401.22"/>
</g>
<!-- &#45;5094933172841699898 -->
<g id="node5" class="node">
<title>-5094933172841699898</title>
<ellipse fill="none" stroke="black" cx="376.24" cy="-438.93" rx="27.9" ry="27.9"/>
<text text-anchor="middle" x="376.24" y="-435.23" font-family="Helvetica,sans-Serif" font-size="14.00">mul</text>
</g>
<!-- 4312339655490501212 -->
<g id="node6" class="node">
<title>4312339655490501212</title>
<polygon fill="none" stroke="black" points="403.24,-538.88 349.24,-538.88 349.24,-502.88 403.24,-502.88 403.24,-538.88"/>
<text text-anchor="middle" x="376.24" y="-517.18" font-family="Helvetica,sans-Serif" font-size="14.00">(0, 1)</text>
</g>
<!-- &#45;5094933172841699898&#45;&gt;4312339655490501212 -->
<g id="edge4" class="edge">
<title>-5094933172841699898-&gt;4312339655490501212</title>
<path fill="none" stroke="black" d="M376.24,-467C376.24,-475.19 376.24,-484.19 376.24,-492.4"/>
<polygon fill="black" stroke="black" points="372.74,-492.62 376.24,-502.62 379.74,-492.62 372.74,-492.62"/>
</g>
<!-- &#45;5096433804493016682 -->
<g id="node27" class="node">
<title>-5096433804493016682</title>
<ellipse fill="none" stroke="black" cx="376.24" cy="-643.12" rx="68.49" ry="68.49"/>
<text text-anchor="middle" x="376.24" y="-639.42" font-family="Helvetica,sans-Serif" font-size="14.00">mean_chunk</text>
</g>
<!-- 4312339655490501212&#45;&gt;&#45;5096433804493016682 -->
<g id="edge28" class="edge">
<title>4312339655490501212-&gt;-5096433804493016682</title>
<path fill="none" stroke="black" d="M376.24,-539.11C376.24,-546.29 376.24,-555.17 376.24,-564.69"/>
<polygon fill="black" stroke="black" points="372.74,-564.79 376.24,-574.79 379.74,-564.79 372.74,-564.79"/>
</g>
<!-- &#45;1748149070520806966 -->
<g id="node7" class="node">
<title>-1748149070520806966</title>
<polygon fill="none" stroke="black" points="396.24,-374.98 342.24,-374.98 342.24,-338.98 396.24,-338.98 396.24,-374.98"/>
<text text-anchor="middle" x="369.24" y="-353.28" font-family="Helvetica,sans-Serif" font-size="14.00">(0, 1)</text>
</g>
<!-- &#45;1748149070520806966&#45;&gt;&#45;5094933172841699898 -->
<g id="edge5" class="edge">
<title>-1748149070520806966-&gt;-5094933172841699898</title>
<path fill="none" stroke="black" d="M370.76,-375.33C371.42,-382.79 372.21,-391.82 372.98,-400.67"/>
<polygon fill="black" stroke="black" points="369.52,-401.21 373.87,-410.87 376.49,-400.6 369.52,-401.21"/>
</g>
<!-- &#45;5334710925269438558 -->
<g id="node8" class="node">
<title>-5334710925269438558</title>
<polygon fill="none" stroke="black" points="560.24,-175.99 506.24,-175.99 506.24,-139.99 560.24,-139.99 560.24,-175.99"/>
<text text-anchor="middle" x="533.24" y="-154.29" font-family="Helvetica,sans-Serif" font-size="14.00">(0, 1)</text>
</g>
<!-- &#45;5334710925269438558&#45;&gt;&#45;5094933172841699898 -->
<g id="edge6" class="edge">
<title>-5334710925269438558-&gt;-5094933172841699898</title>
<path fill="none" stroke="black" d="M519.96,-176.24C512.36,-186.41 502.86,-199.66 495.24,-211.99 454.54,-277.87 413.98,-359.05 392.32,-403.96"/>
<polygon fill="black" stroke="black" points="389.03,-402.72 387.86,-413.25 395.34,-405.75 389.03,-402.72"/>
</g>
<!-- &#45;260129581297390643 -->
<g id="node22" class="node">
<title>-260129581297390643</title>
<ellipse fill="none" stroke="black" cx="549.24" cy="-257.49" rx="45.49" ry="45.49"/>
<text text-anchor="middle" x="549.24" y="-253.79" font-family="Helvetica,sans-Serif" font-size="14.00">getitem</text>
</g>
<!-- &#45;5334710925269438558&#45;&gt;&#45;260129581297390643 -->
<g id="edge20" class="edge">
<title>-5334710925269438558-&gt;-260129581297390643</title>
<path fill="none" stroke="black" d="M536.1,-176.42C537.33,-183.9 538.84,-193.09 540.39,-202.54"/>
<polygon fill="black" stroke="black" points="536.94,-203.12 542.01,-212.42 543.85,-201.98 536.94,-203.12"/>
</g>
<!-- &#45;855614000402807290 -->
<g id="node9" class="node">
<title>-855614000402807290</title>
<ellipse fill="none" stroke="black" cx="530.24" cy="-438.93" rx="27.9" ry="27.9"/>
<text text-anchor="middle" x="530.24" y="-435.23" font-family="Helvetica,sans-Serif" font-size="14.00">mul</text>
</g>
<!-- &#45;580734373482195154 -->
<g id="node10" class="node">
<title>-580734373482195154</title>
<polygon fill="none" stroke="black" points="557.24,-538.88 503.24,-538.88 503.24,-502.88 557.24,-502.88 557.24,-538.88"/>
<text text-anchor="middle" x="530.24" y="-517.18" font-family="Helvetica,sans-Serif" font-size="14.00">(0, 2)</text>
</g>
<!-- &#45;855614000402807290&#45;&gt;&#45;580734373482195154 -->
<g id="edge7" class="edge">
<title>-855614000402807290-&gt;-580734373482195154</title>
<path fill="none" stroke="black" d="M530.24,-467C530.24,-475.19 530.24,-484.19 530.24,-492.4"/>
<polygon fill="black" stroke="black" points="526.74,-492.62 530.24,-502.62 533.74,-492.62 526.74,-492.62"/>
</g>
<!-- &#45;6527254219320996163 -->
<g id="node29" class="node">
<title>-6527254219320996163</title>
<ellipse fill="none" stroke="black" cx="530.24" cy="-643.12" rx="68.49" ry="68.49"/>
<text text-anchor="middle" x="530.24" y="-639.42" font-family="Helvetica,sans-Serif" font-size="14.00">mean_chunk</text>
</g>
<!-- &#45;580734373482195154&#45;&gt;&#45;6527254219320996163 -->
<g id="edge30" class="edge">
<title>-580734373482195154-&gt;-6527254219320996163</title>
<path fill="none" stroke="black" d="M530.24,-539.11C530.24,-546.29 530.24,-555.17 530.24,-564.69"/>
<polygon fill="black" stroke="black" points="526.74,-564.79 530.24,-574.79 533.74,-564.79 526.74,-564.79"/>
</g>
<!-- 361134302596823331 -->
<g id="node11" class="node">
<title>361134302596823331</title>
<polygon fill="none" stroke="black" points="561.24,-374.98 507.24,-374.98 507.24,-338.98 561.24,-338.98 561.24,-374.98"/>
<text text-anchor="middle" x="534.24" y="-353.28" font-family="Helvetica,sans-Serif" font-size="14.00">(0, 2)</text>
</g>
<!-- 361134302596823331&#45;&gt;&#45;855614000402807290 -->
<g id="edge8" class="edge">
<title>361134302596823331-&gt;-855614000402807290</title>
<path fill="none" stroke="black" d="M533.38,-375.33C533,-382.79 532.55,-391.82 532.11,-400.67"/>
<polygon fill="black" stroke="black" points="528.6,-400.71 531.6,-410.87 535.59,-401.06 528.6,-400.71"/>
</g>
<!-- 1172929830832559867 -->
<g id="node12" class="node">
<title>1172929830832559867</title>
<polygon fill="none" stroke="black" points="407.24,-175.99 353.24,-175.99 353.24,-139.99 407.24,-139.99 407.24,-175.99"/>
<text text-anchor="middle" x="380.24" y="-154.29" font-family="Helvetica,sans-Serif" font-size="14.00">(0, 2)</text>
</g>
<!-- 1172929830832559867&#45;&gt;&#45;855614000402807290 -->
<g id="edge9" class="edge">
<title>1172929830832559867-&gt;-855614000402807290</title>
<path fill="none" stroke="black" d="M394.08,-176.1C401.94,-186.22 411.69,-199.47 419.24,-211.99 460.83,-280.92 462.45,-302.88 498.24,-374.98 503.03,-384.62 508.29,-395.04 513.14,-404.59"/>
<polygon fill="black" stroke="black" points="510.17,-406.45 517.83,-413.77 516.4,-403.27 510.17,-406.45"/>
</g>
<!-- &#45;736475392334415393 -->
<g id="node23" class="node">
<title>-736475392334415393</title>
<ellipse fill="none" stroke="black" cx="365.24" cy="-257.49" rx="45.49" ry="45.49"/>
<text text-anchor="middle" x="365.24" y="-253.79" font-family="Helvetica,sans-Serif" font-size="14.00">getitem</text>
</g>
<!-- 1172929830832559867&#45;&gt;&#45;736475392334415393 -->
<g id="edge22" class="edge">
<title>1172929830832559867-&gt;-736475392334415393</title>
<path fill="none" stroke="black" d="M377.56,-176.42C376.42,-183.82 375.03,-192.89 373.59,-202.24"/>
<polygon fill="black" stroke="black" points="370.09,-202 372.02,-212.42 377,-203.07 370.09,-202"/>
</g>
<!-- &#45;6487060665732843629 -->
<g id="node13" class="node">
<title>-6487060665732843629</title>
<ellipse fill="none" stroke="black" cx="222.24" cy="-438.93" rx="27.9" ry="27.9"/>
<text text-anchor="middle" x="222.24" y="-435.23" font-family="Helvetica,sans-Serif" font-size="14.00">mul</text>
</g>
<!-- 5926906382619803271 -->
<g id="node14" class="node">
<title>5926906382619803271</title>
<polygon fill="none" stroke="black" points="249.24,-538.88 195.24,-538.88 195.24,-502.88 249.24,-502.88 249.24,-538.88"/>
<text text-anchor="middle" x="222.24" y="-517.18" font-family="Helvetica,sans-Serif" font-size="14.00">(0, 3)</text>
</g>
<!-- &#45;6487060665732843629&#45;&gt;5926906382619803271 -->
<g id="edge10" class="edge">
<title>-6487060665732843629-&gt;5926906382619803271</title>
<path fill="none" stroke="black" d="M222.24,-467C222.24,-475.19 222.24,-484.19 222.24,-492.4"/>
<polygon fill="black" stroke="black" points="218.74,-492.62 222.24,-502.62 225.74,-492.62 218.74,-492.62"/>
</g>
<!-- 4069333660605125586 -->
<g id="node31" class="node">
<title>4069333660605125586</title>
<ellipse fill="none" stroke="black" cx="222.24" cy="-643.12" rx="68.49" ry="68.49"/>
<text text-anchor="middle" x="222.24" y="-639.42" font-family="Helvetica,sans-Serif" font-size="14.00">mean_chunk</text>
</g>
<!-- 5926906382619803271&#45;&gt;4069333660605125586 -->
<g id="edge32" class="edge">
<title>5926906382619803271-&gt;4069333660605125586</title>
<path fill="none" stroke="black" d="M222.24,-539.11C222.24,-546.29 222.24,-555.17 222.24,-564.69"/>
<polygon fill="black" stroke="black" points="218.74,-564.79 222.24,-574.79 225.74,-564.79 218.74,-564.79"/>
</g>
<!-- 6868775058698821756 -->
<g id="node15" class="node">
<title>6868775058698821756</title>
<polygon fill="none" stroke="black" points="226.24,-374.98 172.24,-374.98 172.24,-338.98 226.24,-338.98 226.24,-374.98"/>
<text text-anchor="middle" x="199.24" y="-353.28" font-family="Helvetica,sans-Serif" font-size="14.00">(0, 3)</text>
</g>
<!-- 6868775058698821756&#45;&gt;&#45;6487060665732843629 -->
<g id="edge11" class="edge">
<title>6868775058698821756-&gt;-6487060665732843629</title>
<path fill="none" stroke="black" d="M204.23,-375.33C206.49,-383.15 209.23,-392.7 211.9,-401.96"/>
<polygon fill="black" stroke="black" points="208.6,-403.16 214.73,-411.8 215.33,-401.22 208.6,-403.16"/>
</g>
<!-- 7680570586934558292 -->
<g id="node16" class="node">
<title>7680570586934558292</title>
<polygon fill="none" stroke="black" points="242.24,-175.99 188.24,-175.99 188.24,-139.99 242.24,-139.99 242.24,-175.99"/>
<text text-anchor="middle" x="215.24" y="-154.29" font-family="Helvetica,sans-Serif" font-size="14.00">(0, 3)</text>
</g>
<!-- 7680570586934558292&#45;&gt;&#45;6487060665732843629 -->
<g id="edge12" class="edge">
<title>7680570586934558292-&gt;-6487060665732843629</title>
<path fill="none" stroke="black" d="M229.57,-176.43C236.69,-186.23 244.55,-199.07 248.24,-211.99 267.01,-277.64 248.56,-357.69 234.61,-402.73"/>
<polygon fill="black" stroke="black" points="231.25,-401.74 231.54,-412.33 237.92,-403.87 231.25,-401.74"/>
</g>
<!-- 7740374311128420913 -->
<g id="node24" class="node">
<title>7740374311128420913</title>
<ellipse fill="none" stroke="black" cx="194.24" cy="-257.49" rx="45.49" ry="45.49"/>
<text text-anchor="middle" x="194.24" y="-253.79" font-family="Helvetica,sans-Serif" font-size="14.00">getitem</text>
</g>
<!-- 7680570586934558292&#45;&gt;7740374311128420913 -->
<g id="edge24" class="edge">
<title>7680570586934558292-&gt;7740374311128420913</title>
<path fill="none" stroke="black" d="M211.49,-176.42C209.86,-183.98 207.86,-193.29 205.8,-202.84"/>
<polygon fill="black" stroke="black" points="202.33,-202.32 203.65,-212.83 209.17,-203.8 202.33,-202.32"/>
</g>
<!-- &#45;4579143312321430494 -->
<g id="node17" class="node">
<title>-4579143312321430494</title>
<ellipse fill="none" stroke="black" cx="63.24" cy="-52" rx="51.99" ry="51.99"/>
<text text-anchor="middle" x="63.24" y="-48.3" font-family="Helvetica,sans-Serif" font-size="14.00">ones_like</text>
</g>
<!-- &#45;4579143312321430494&#45;&gt;&#45;441636896296742192 -->
<g id="edge13" class="edge">
<title>-4579143312321430494-&gt;-441636896296742192</title>
<path fill="none" stroke="black" d="M63.24,-104.08C63.24,-112.98 63.24,-121.91 63.24,-129.84"/>
<polygon fill="black" stroke="black" points="59.74,-129.93 63.24,-139.93 66.74,-129.93 59.74,-129.93"/>
</g>
<!-- 5390751057925284816 -->
<g id="node18" class="node">
<title>5390751057925284816</title>
<ellipse fill="none" stroke="black" cx="533.24" cy="-52" rx="51.99" ry="51.99"/>
<text text-anchor="middle" x="533.24" y="-48.3" font-family="Helvetica,sans-Serif" font-size="14.00">ones_like</text>
</g>
<!-- 5390751057925284816&#45;&gt;&#45;5334710925269438558 -->
<g id="edge14" class="edge">
<title>5390751057925284816-&gt;-5334710925269438558</title>
<path fill="none" stroke="black" d="M533.24,-104.08C533.24,-112.98 533.24,-121.91 533.24,-129.84"/>
<polygon fill="black" stroke="black" points="529.74,-129.93 533.24,-139.93 536.74,-129.93 529.74,-129.93"/>
</g>
<!-- 4586624152776711774 -->
<g id="node19" class="node">
<title>4586624152776711774</title>
<ellipse fill="none" stroke="black" cx="380.24" cy="-52" rx="51.99" ry="51.99"/>
<text text-anchor="middle" x="380.24" y="-48.3" font-family="Helvetica,sans-Serif" font-size="14.00">ones_like</text>
</g>
<!-- 4586624152776711774&#45;&gt;1172929830832559867 -->
<g id="edge15" class="edge">
<title>4586624152776711774-&gt;1172929830832559867</title>
<path fill="none" stroke="black" d="M380.24,-104.08C380.24,-112.98 380.24,-121.91 380.24,-129.84"/>
<polygon fill="black" stroke="black" points="376.74,-129.93 380.24,-139.93 383.74,-129.93 376.74,-129.93"/>
</g>
<!-- 4625317074713547524 -->
<g id="node20" class="node">
<title>4625317074713547524</title>
<ellipse fill="none" stroke="black" cx="215.24" cy="-52" rx="51.99" ry="51.99"/>
<text text-anchor="middle" x="215.24" y="-48.3" font-family="Helvetica,sans-Serif" font-size="14.00">ones_like</text>
</g>
<!-- 4625317074713547524&#45;&gt;7680570586934558292 -->
<g id="edge16" class="edge">
<title>4625317074713547524-&gt;7680570586934558292</title>
<path fill="none" stroke="black" d="M215.24,-104.08C215.24,-112.98 215.24,-121.91 215.24,-129.84"/>
<polygon fill="black" stroke="black" points="211.74,-129.93 215.24,-139.93 218.74,-129.93 211.74,-129.93"/>
</g>
<!-- 267961328377490889&#45;&gt;6868775058698821756 -->
<g id="edge17" class="edge">
<title>267961328377490889-&gt;6868775058698821756</title>
<path fill="none" stroke="black" d="M119.45,-287.74C136.09,-301.97 155.84,-318.86 171.52,-332.28"/>
<polygon fill="black" stroke="black" points="169.44,-335.1 179.32,-338.94 173.99,-329.78 169.44,-335.1"/>
</g>
<!-- &#45;260129581297390643&#45;&gt;361134302596823331 -->
<g id="edge19" class="edge">
<title>-260129581297390643-&gt;361134302596823331</title>
<path fill="none" stroke="black" d="M542.45,-302.67C541.09,-311.5 539.7,-320.53 538.46,-328.59"/>
<polygon fill="black" stroke="black" points="534.99,-328.11 536.93,-338.52 541.91,-329.17 534.99,-328.11"/>
</g>
<!-- &#45;736475392334415393&#45;&gt;&#45;1748149070520806966 -->
<g id="edge21" class="edge">
<title>-736475392334415393-&gt;-1748149070520806966</title>
<path fill="none" stroke="black" d="M367.07,-302.96C367.43,-311.66 367.79,-320.54 368.12,-328.49"/>
<polygon fill="black" stroke="black" points="364.63,-328.79 368.53,-338.64 371.62,-328.5 364.63,-328.79"/>
</g>
<!-- 7740374311128420913&#45;&gt;3144924958451889400 -->
<g id="edge23" class="edge">
<title>7740374311128420913-&gt;3144924958451889400</title>
<path fill="none" stroke="black" d="M161.65,-289.34C147.17,-303.05 130.37,-318.95 116.81,-331.78"/>
<polygon fill="black" stroke="black" points="114.1,-329.53 109.24,-338.94 118.91,-334.61 114.1,-329.53"/>
</g>
<!-- 6289502391164869362 -->
<g id="node26" class="node">
<title>6289502391164869362</title>
<polygon fill="none" stroke="black" points="100.24,-783.37 46.24,-783.37 46.24,-747.37 100.24,-747.37 100.24,-783.37"/>
<text text-anchor="middle" x="73.24" y="-761.67" font-family="Helvetica,sans-Serif" font-size="14.00">(0, 0)</text>
</g>
<!-- &#45;4686287901900102478&#45;&gt;6289502391164869362 -->
<g id="edge25" class="edge">
<title>-4686287901900102478-&gt;6289502391164869362</title>
<path fill="none" stroke="black" d="M71.05,-711.62C71.43,-720.65 71.79,-729.45 72.11,-737.19"/>
<polygon fill="black" stroke="black" points="68.62,-737.5 72.54,-747.35 75.62,-737.21 68.62,-737.5"/>
</g>
<!-- 6379999477680810952 -->
<g id="node33" class="node">
<title>6379999477680810952</title>
<ellipse fill="none" stroke="black" cx="111.24" cy="-930.51" rx="111.28" ry="111.28"/>
<text text-anchor="middle" x="111.24" y="-926.81" font-family="Helvetica,sans-Serif" font-size="14.00">mean_combine-partial</text>
</g>
<!-- 6289502391164869362&#45;&gt;6379999477680810952 -->
<g id="edge34" class="edge">
<title>6289502391164869362-&gt;6379999477680810952</title>
<path fill="none" stroke="black" d="M77.24,-783.52C79.05,-791.3 81.36,-801.23 83.93,-812.24"/>
<polygon fill="black" stroke="black" points="80.56,-813.22 86.24,-822.17 87.38,-811.64 80.56,-813.22"/>
</g>
<!-- 8398785764282499659 -->
<g id="node28" class="node">
<title>8398785764282499659</title>
<polygon fill="none" stroke="black" points="239.24,-783.37 185.24,-783.37 185.24,-747.37 239.24,-747.37 239.24,-783.37"/>
<text text-anchor="middle" x="212.24" y="-761.67" font-family="Helvetica,sans-Serif" font-size="14.00">(0, 1)</text>
</g>
<!-- &#45;5096433804493016682&#45;&gt;8398785764282499659 -->
<g id="edge27" class="edge">
<title>-5096433804493016682-&gt;8398785764282499659</title>
<path fill="none" stroke="black" d="M326.32,-689.88C317.51,-697.33 308.26,-704.76 299.24,-711.37 283.15,-723.16 264.33,-734.86 248.33,-744.25"/>
<polygon fill="black" stroke="black" points="246.17,-741.46 239.27,-749.5 249.68,-747.51 246.17,-741.46"/>
</g>
<!-- 8398785764282499659&#45;&gt;6379999477680810952 -->
<g id="edge35" class="edge">
<title>8398785764282499659-&gt;6379999477680810952</title>
<path fill="none" stroke="black" d="M201.63,-783.52C194.77,-794.59 185.22,-810.02 174.88,-826.72"/>
<polygon fill="black" stroke="black" points="171.69,-825.21 169.41,-835.56 177.65,-828.9 171.69,-825.21"/>
</g>
<!-- 3505711735309803293 -->
<g id="node30" class="node">
<title>3505711735309803293</title>
<polygon fill="none" stroke="black" points="467.24,-783.37 413.24,-783.37 413.24,-747.37 467.24,-747.37 467.24,-783.37"/>
<text text-anchor="middle" x="440.24" y="-761.67" font-family="Helvetica,sans-Serif" font-size="14.00">(0, 2)</text>
</g>
<!-- &#45;6527254219320996163&#45;&gt;3505711735309803293 -->
<g id="edge29" class="edge">
<title>-6527254219320996163-&gt;3505711735309803293</title>
<path fill="none" stroke="black" d="M489.72,-698.26C479.06,-712.51 468.06,-727.21 459.14,-739.12"/>
<polygon fill="black" stroke="black" points="456.25,-737.14 453.06,-747.25 461.85,-741.34 456.25,-737.14"/>
</g>
<!-- &#45;2096850225782025354 -->
<g id="node35" class="node">
<title>-2096850225782025354</title>
<ellipse fill="none" stroke="black" cx="351.24" cy="-930.51" rx="111.28" ry="111.28"/>
<text text-anchor="middle" x="351.24" y="-926.81" font-family="Helvetica,sans-Serif" font-size="14.00">mean_combine-partial</text>
</g>
<!-- 3505711735309803293&#45;&gt;&#45;2096850225782025354 -->
<g id="edge37" class="edge">
<title>3505711735309803293-&gt;-2096850225782025354</title>
<path fill="none" stroke="black" d="M430.89,-783.52C425.25,-793.84 417.56,-807.95 409.16,-823.35"/>
<polygon fill="black" stroke="black" points="405.86,-822.09 404.14,-832.54 412,-825.44 405.86,-822.09"/>
</g>
<!-- &#45;8433391582297749898 -->
<g id="node32" class="node">
<title>-8433391582297749898</title>
<polygon fill="none" stroke="black" points="313.24,-783.37 259.24,-783.37 259.24,-747.37 313.24,-747.37 313.24,-783.37"/>
<text text-anchor="middle" x="286.24" y="-761.67" font-family="Helvetica,sans-Serif" font-size="14.00">(0, 3)</text>
</g>
<!-- 4069333660605125586&#45;&gt;&#45;8433391582297749898 -->
<g id="edge31" class="edge">
<title>4069333660605125586-&gt;-8433391582297749898</title>
<path fill="none" stroke="black" d="M254.06,-703.89C260.48,-715.95 266.9,-728.03 272.31,-738.19"/>
<polygon fill="black" stroke="black" points="269.36,-740.09 277.15,-747.27 275.54,-736.8 269.36,-740.09"/>
</g>
<!-- &#45;8433391582297749898&#45;&gt;&#45;2096850225782025354 -->
<g id="edge38" class="edge">
<title>-8433391582297749898-&gt;-2096850225782025354</title>
<path fill="none" stroke="black" d="M293.08,-783.52C296.64,-792.47 301.34,-804.26 306.53,-817.28"/>
<polygon fill="black" stroke="black" points="303.43,-818.95 310.38,-826.95 309.93,-816.36 303.43,-818.95"/>
</g>
<!-- 6177782321578719617 -->
<g id="node34" class="node">
<title>6177782321578719617</title>
<polygon fill="none" stroke="black" points="222.24,-1113.65 168.24,-1113.65 168.24,-1077.65 222.24,-1077.65 222.24,-1113.65"/>
<text text-anchor="middle" x="195.24" y="-1091.95" font-family="Helvetica,sans-Serif" font-size="14.00">(0, 0)</text>
</g>
<!-- 6379999477680810952&#45;&gt;6177782321578719617 -->
<g id="edge33" class="edge">
<title>6379999477680810952-&gt;6177782321578719617</title>
<path fill="none" stroke="black" d="M161.8,-1029.7C169.17,-1044 176.16,-1057.59 181.84,-1068.61"/>
<polygon fill="black" stroke="black" points="178.77,-1070.29 186.46,-1077.58 184.99,-1067.09 178.77,-1070.29"/>
</g>
<!-- 4620107437594354719 -->
<g id="node37" class="node">
<title>4620107437594354719</title>
<ellipse fill="none" stroke="black" cx="231.24" cy="-1256.24" rx="106.68" ry="106.68"/>
<text text-anchor="middle" x="231.24" y="-1252.54" font-family="Helvetica,sans-Serif" font-size="14.00">mean_agg-aggregate</text>
</g>
<!-- 6177782321578719617&#45;&gt;4620107437594354719 -->
<g id="edge40" class="edge">
<title>6177782321578719617-&gt;4620107437594354719</title>
<path fill="none" stroke="black" d="M199.17,-1113.92C200.9,-1121.54 203.09,-1131.2 205.51,-1141.87"/>
<polygon fill="black" stroke="black" points="202.16,-1142.94 207.79,-1151.92 208.99,-1141.4 202.16,-1142.94"/>
</g>
<!-- 1284708292606023251 -->
<g id="node36" class="node">
<title>1284708292606023251</title>
<polygon fill="none" stroke="black" points="336.24,-1113.65 282.24,-1113.65 282.24,-1077.65 336.24,-1077.65 336.24,-1113.65"/>
<text text-anchor="middle" x="309.24" y="-1091.95" font-family="Helvetica,sans-Serif" font-size="14.00">(0, 1)</text>
</g>
<!-- &#45;2096850225782025354&#45;&gt;1284708292606023251 -->
<g id="edge36" class="edge">
<title>-2096850225782025354-&gt;1284708292606023251</title>
<path fill="none" stroke="black" d="M323.7,-1038.5C320.96,-1049.14 318.38,-1059.14 316.19,-1067.67"/>
<polygon fill="black" stroke="black" points="312.73,-1067.07 313.63,-1077.62 319.51,-1068.81 312.73,-1067.07"/>
</g>
<!-- 1284708292606023251&#45;&gt;4620107437594354719 -->
<g id="edge41" class="edge">
<title>1284708292606023251-&gt;4620107437594354719</title>
<path fill="none" stroke="black" d="M300.75,-1113.92C295.94,-1123.69 289.49,-1136.81 282.45,-1151.12"/>
<polygon fill="black" stroke="black" points="279.27,-1149.65 278,-1160.17 285.55,-1152.74 279.27,-1149.65"/>
</g>
<!-- 9182386568627488871 -->
<g id="node38" class="node">
<title>9182386568627488871</title>
<polygon fill="none" stroke="black" points="258.24,-1434.83 204.24,-1434.83 204.24,-1398.83 258.24,-1398.83 258.24,-1434.83"/>
<text text-anchor="middle" x="231.24" y="-1413.13" font-family="Helvetica,sans-Serif" font-size="14.00">()</text>
</g>
<!-- 4620107437594354719&#45;&gt;9182386568627488871 -->
<g id="edge39" class="edge">
<title>4620107437594354719-&gt;9182386568627488871</title>
<path fill="none" stroke="black" d="M231.24,-1363.02C231.24,-1372.18 231.24,-1380.81 231.24,-1388.33"/>
<polygon fill="black" stroke="black" points="227.74,-1388.5 231.24,-1398.5 234.74,-1388.5 227.74,-1388.5"/>
</g>
</g>
</svg>