<svg height="739pt" viewBox="0.00 0.00 307.90 739.37" width="308pt" xmlns="http://www.w3.org/2000/svg" xmlns:xlink="http://www.w3.org/1999/xlink">
<g class="graph" id="graph0" transform="scale(1 1) rotate(0) translate(4 735.37)">
<polygon fill="white" points="-4,4 -4,-735.37 303.9,-735.37 303.9,4 -4,4" stroke="transparent"/>
<!-- &#45;1492014516999911885 -->
<g class="node" id="node1">
<title>-1492014516999911885</title>
<ellipse cx="27.95" cy="-27.95" fill="none" rx="27.9" ry="27.9" stroke="black"/>
<text font-family="Times New Roman,serif" font-size="14.00" text-anchor="middle" x="27.95" y="-24.25">ones</text>
</g>
<!-- &#45;116547684700913806 -->
<g class="node" id="node2">
<title>-116547684700913806</title>
<polygon fill="none" points="55.95,-127.9 1.95,-127.9 1.95,-91.9 55.95,-91.9 55.95,-127.9" stroke="black"/>
<text font-family="Times New Roman,serif" font-size="14.00" text-anchor="middle" x="28.95" y="-106.2">(0, 0)</text>
</g>
<!-- &#45;1492014516999911885&#45;&gt;&#45;116547684700913806 -->
<g class="edge" id="edge1">
<title>-1492014516999911885-&gt;-116547684700913806</title>
<path d="M28.29,-56.01C28.39,-64.2 28.5,-73.2 28.6,-81.42" fill="none" stroke="black"/>
<polygon fill="black" points="25.11,-81.68 28.73,-91.63 32.11,-81.59 25.11,-81.68" stroke="black"/>
</g>
<!-- &#45;6313952117689310429 -->
<g class="node" id="node9">
<title>-6313952117689310429</title>
<ellipse cx="28.95" cy="-189.89" fill="none" rx="26" ry="26" stroke="black"/>
<text font-family="Times New Roman,serif" font-size="14.00" text-anchor="middle" x="28.95" y="-186.19">sum</text>
</g>
<!-- &#45;116547684700913806&#45;&gt;&#45;6313952117689310429 -->
<g class="edge" id="edge6">
<title>-116547684700913806-&gt;-6313952117689310429</title>
<path d="M28.95,-128.21C28.95,-135.69 28.95,-144.74 28.95,-153.53" fill="none" stroke="black"/>
<polygon fill="black" points="25.45,-153.64 28.95,-163.64 32.45,-153.64 25.45,-153.64" stroke="black"/>
</g>
<!-- 5939186445481850956 -->
<g class="node" id="node3">
<title>5939186445481850956</title>
<ellipse cx="101.95" cy="-27.95" fill="none" rx="27.9" ry="27.9" stroke="black"/>
<text font-family="Times New Roman,serif" font-size="14.00" text-anchor="middle" x="101.95" y="-24.25">ones</text>
</g>
<!-- &#45;116547684702078855 -->
<g class="node" id="node4">
<title>-116547684702078855</title>
<polygon fill="none" points="127.95,-127.9 73.95,-127.9 73.95,-91.9 127.95,-91.9 127.95,-127.9" stroke="black"/>
<text font-family="Times New Roman,serif" font-size="14.00" text-anchor="middle" x="100.95" y="-106.2">(0, 1)</text>
</g>
<!-- 5939186445481850956&#45;&gt;&#45;116547684702078855 -->
<g class="edge" id="edge2">
<title>5939186445481850956-&gt;-116547684702078855</title>
<path d="M101.61,-56.01C101.51,-64.2 101.39,-73.2 101.29,-81.42" fill="none" stroke="black"/>
<polygon fill="black" points="97.79,-81.59 101.16,-91.63 104.79,-81.68 97.79,-81.59" stroke="black"/>
</g>
<!-- &#45;8761073702318097604 -->
<g class="node" id="node11">
<title>-8761073702318097604</title>
<ellipse cx="100.95" cy="-189.89" fill="none" rx="26" ry="26" stroke="black"/>
<text font-family="Times New Roman,serif" font-size="14.00" text-anchor="middle" x="100.95" y="-186.19">sum</text>
</g>
<!-- &#45;116547684702078855&#45;&gt;&#45;8761073702318097604 -->
<g class="edge" id="edge8">
<title>-116547684702078855-&gt;-8761073702318097604</title>
<path d="M100.95,-128.21C100.95,-135.69 100.95,-144.74 100.95,-153.53" fill="none" stroke="black"/>
<polygon fill="black" points="97.45,-153.64 100.95,-163.64 104.45,-153.64 97.45,-153.64" stroke="black"/>
</g>
<!-- 4456411162375728881 -->
<g class="node" id="node5">
<title>4456411162375728881</title>
<ellipse cx="197.95" cy="-27.95" fill="none" rx="27.9" ry="27.9" stroke="black"/>
<text font-family="Times New Roman,serif" font-size="14.00" text-anchor="middle" x="197.95" y="-24.25">ones</text>
</g>
<!-- &#45;116547684703243904 -->
<g class="node" id="node6">
<title>-116547684703243904</title>
<polygon fill="none" points="224.95,-127.9 170.95,-127.9 170.95,-91.9 224.95,-91.9 224.95,-127.9" stroke="black"/>
<text font-family="Times New Roman,serif" font-size="14.00" text-anchor="middle" x="197.95" y="-106.2">(0, 2)</text>
</g>
<!-- 4456411162375728881&#45;&gt;&#45;116547684703243904 -->
<g class="edge" id="edge3">
<title>4456411162375728881-&gt;-116547684703243904</title>
<path d="M197.95,-56.01C197.95,-64.2 197.95,-73.2 197.95,-81.42" fill="none" stroke="black"/>
<polygon fill="black" points="194.45,-81.63 197.95,-91.63 201.45,-81.63 194.45,-81.63" stroke="black"/>
</g>
<!-- 6856640726817205985 -->
<g class="node" id="node13">
<title>6856640726817205985</title>
<ellipse cx="197.95" cy="-189.89" fill="none" rx="26" ry="26" stroke="black"/>
<text font-family="Times New Roman,serif" font-size="14.00" text-anchor="middle" x="197.95" y="-186.19">sum</text>
</g>
<!-- &#45;116547684703243904&#45;&gt;6856640726817205985 -->
<g class="edge" id="edge10">
<title>-116547684703243904-&gt;6856640726817205985</title>
<path d="M197.95,-128.21C197.95,-135.69 197.95,-144.74 197.95,-153.53" fill="none" stroke="black"/>
<polygon fill="black" points="194.45,-153.64 197.95,-163.64 201.45,-153.64 194.45,-153.64" stroke="black"/>
</g>
<!-- 3103110249291329706 -->
<g class="node" id="node7">
<title>3103110249291329706</title>
<ellipse cx="271.95" cy="-27.95" fill="none" rx="27.9" ry="27.9" stroke="black"/>
<text font-family="Times New Roman,serif" font-size="14.00" text-anchor="middle" x="271.95" y="-24.25">ones</text>
</g>
<!-- &#45;116547684704408953 -->
<g class="node" id="node8">
<title>-116547684704408953</title>
<polygon fill="none" points="297.95,-127.9 243.95,-127.9 243.95,-91.9 297.95,-91.9 297.95,-127.9" stroke="black"/>
<text font-family="Times New Roman,serif" font-size="14.00" text-anchor="middle" x="270.95" y="-106.2">(0, 3)</text>
</g>
<!-- 3103110249291329706&#45;&gt;&#45;116547684704408953 -->
<g class="edge" id="edge4">
<title>3103110249291329706-&gt;-116547684704408953</title>
<path d="M271.61,-56.01C271.51,-64.2 271.39,-73.2 271.29,-81.42" fill="none" stroke="black"/>
<polygon fill="black" points="267.79,-81.59 271.16,-91.63 274.79,-81.68 267.79,-81.59" stroke="black"/>
</g>
<!-- &#45;1031201473866718054 -->
<g class="node" id="node15">
<title>-1031201473866718054</title>
<ellipse cx="269.95" cy="-189.89" fill="none" rx="26" ry="26" stroke="black"/>
<text font-family="Times New Roman,serif" font-size="14.00" text-anchor="middle" x="269.95" y="-186.19">sum</text>
</g>
<!-- &#45;116547684704408953&#45;&gt;&#45;1031201473866718054 -->
<g class="edge" id="edge12">
<title>-116547684704408953-&gt;-1031201473866718054</title>
<path d="M270.73,-128.21C270.63,-135.69 270.51,-144.74 270.4,-153.53" fill="none" stroke="black"/>
<polygon fill="black" points="266.9,-153.59 270.27,-163.64 273.9,-153.68 266.9,-153.59" stroke="black"/>
</g>
<!-- 3009766006100871138 -->
<g class="node" id="node10">
<title>3009766006100871138</title>
<polygon fill="none" points="55.95,-287.89 1.95,-287.89 1.95,-251.89 55.95,-251.89 55.95,-287.89" stroke="black"/>
<text font-family="Times New Roman,serif" font-size="14.00" text-anchor="middle" x="28.95" y="-266.19">(0, 0)</text>
</g>
<!-- &#45;6313952117689310429&#45;&gt;3009766006100871138 -->
<g class="edge" id="edge5">
<title>-6313952117689310429-&gt;3009766006100871138</title>
<path d="M28.95,-216C28.95,-224.05 28.95,-233.01 28.95,-241.23" fill="none" stroke="black"/>
<polygon fill="black" points="25.45,-241.48 28.95,-251.48 32.45,-241.48 25.45,-241.48" stroke="black"/>
</g>
<!-- 8743064299031685648 -->
<g class="node" id="node17">
<title>8743064299031685648</title>
<ellipse cx="89.95" cy="-374.59" fill="none" rx="50.89" ry="50.89" stroke="black"/>
<text font-family="Times New Roman,serif" font-size="14.00" text-anchor="middle" x="89.95" y="-370.89">sum-partial</text>
</g>
<!-- 3009766006100871138&#45;&gt;8743064299031685648 -->
<g class="edge" id="edge15">
<title>3009766006100871138-&gt;8743064299031685648</title>
<path d="M39.3,-288.31C44.82,-297.61 51.94,-309.6 59.09,-321.64" fill="none" stroke="black"/>
<polygon fill="black" points="56.16,-323.56 64.28,-330.37 62.18,-319.99 56.16,-323.56" stroke="black"/>
</g>
<!-- 3009766006099706089 -->
<g class="node" id="node12">
<title>3009766006099706089</title>
<polygon fill="none" points="127.95,-287.89 73.95,-287.89 73.95,-251.89 127.95,-251.89 127.95,-287.89" stroke="black"/>
<text font-family="Times New Roman,serif" font-size="14.00" text-anchor="middle" x="100.95" y="-266.19">(0, 1)</text>
</g>
<!-- &#45;8761073702318097604&#45;&gt;3009766006099706089 -->
<g class="edge" id="edge7">
<title>-8761073702318097604-&gt;3009766006099706089</title>
<path d="M100.95,-216C100.95,-224.05 100.95,-233.01 100.95,-241.23" fill="none" stroke="black"/>
<polygon fill="black" points="97.45,-241.48 100.95,-251.48 104.45,-241.48 97.45,-241.48" stroke="black"/>
</g>
<!-- 3009766006099706089&#45;&gt;8743064299031685648 -->
<g class="edge" id="edge14">
<title>3009766006099706089-&gt;8743064299031685648</title>
<path d="M99.08,-288.31C98.31,-295.54 97.36,-304.39 96.37,-313.63" fill="none" stroke="black"/>
<polygon fill="black" points="92.87,-313.42 95.29,-323.74 99.83,-314.17 92.87,-313.42" stroke="black"/>
</g>
<!-- 3009766006098541040 -->
<g class="node" id="node14">
<title>3009766006098541040</title>
<polygon fill="none" points="224.95,-287.89 170.95,-287.89 170.95,-251.89 224.95,-251.89 224.95,-287.89" stroke="black"/>
<text font-family="Times New Roman,serif" font-size="14.00" text-anchor="middle" x="197.95" y="-266.19">(0, 2)</text>
</g>
<!-- 6856640726817205985&#45;&gt;3009766006098541040 -->
<g class="edge" id="edge9">
<title>6856640726817205985-&gt;3009766006098541040</title>
<path d="M197.95,-216C197.95,-224.05 197.95,-233.01 197.95,-241.23" fill="none" stroke="black"/>
<polygon fill="black" points="194.45,-241.48 197.95,-251.48 201.45,-241.48 194.45,-241.48" stroke="black"/>
</g>
<!-- &#45;7731002843493262393 -->
<g class="node" id="node19">
<title>-7731002843493262393</title>
<ellipse cx="208.95" cy="-374.59" fill="none" rx="50.89" ry="50.89" stroke="black"/>
<text font-family="Times New Roman,serif" font-size="14.00" text-anchor="middle" x="208.95" y="-370.89">sum-partial</text>
</g>
<!-- 3009766006098541040&#45;&gt;&#45;7731002843493262393 -->
<g class="edge" id="edge17">
<title>3009766006098541040-&gt;-7731002843493262393</title>
<path d="M199.81,-288.31C200.59,-295.54 201.54,-304.39 202.53,-313.63" fill="none" stroke="black"/>
<polygon fill="black" points="199.06,-314.17 203.61,-323.74 206.02,-313.42 199.06,-314.17" stroke="black"/>
</g>
<!-- 3009766006097375991 -->
<g class="node" id="node16">
<title>3009766006097375991</title>
<polygon fill="none" points="296.95,-287.89 242.95,-287.89 242.95,-251.89 296.95,-251.89 296.95,-287.89" stroke="black"/>
<text font-family="Times New Roman,serif" font-size="14.00" text-anchor="middle" x="269.95" y="-266.19">(0, 3)</text>
</g>
<!-- &#45;1031201473866718054&#45;&gt;3009766006097375991 -->
<g class="edge" id="edge11">
<title>-1031201473866718054-&gt;3009766006097375991</title>
<path d="M269.95,-216C269.95,-224.05 269.95,-233.01 269.95,-241.23" fill="none" stroke="black"/>
<polygon fill="black" points="266.45,-241.48 269.95,-251.48 273.45,-241.48 266.45,-241.48" stroke="black"/>
</g>
<!-- 3009766006097375991&#45;&gt;&#45;7731002843493262393 -->
<g class="edge" id="edge18">
<title>3009766006097375991-&gt;-7731002843493262393</title>
<path d="M259.6,-288.31C254.07,-297.61 246.95,-309.6 239.8,-321.64" fill="none" stroke="black"/>
<polygon fill="black" points="236.71,-319.99 234.62,-330.37 242.73,-323.56 236.71,-319.99" stroke="black"/>
</g>
<!-- 7923192453141069901 -->
<g class="node" id="node18">
<title>7923192453141069901</title>
<polygon fill="none" points="139.95,-497.28 85.95,-497.28 85.95,-461.28 139.95,-461.28 139.95,-497.28" stroke="black"/>
<text font-family="Times New Roman,serif" font-size="14.00" text-anchor="middle" x="112.95" y="-475.58">(0, 0)</text>
</g>
<!-- 8743064299031685648&#45;&gt;7923192453141069901 -->
<g class="edge" id="edge13">
<title>8743064299031685648-&gt;7923192453141069901</title>
<path d="M100.84,-424.23C102.93,-433.56 105.05,-443.01 106.91,-451.34" fill="none" stroke="black"/>
<polygon fill="black" points="103.52,-452.21 109.12,-461.21 110.35,-450.68 103.52,-452.21" stroke="black"/>
</g>
<!-- &#45;6381132473885568729 -->
<g class="node" id="node21">
<title>-6381132473885568729</title>
<ellipse cx="148.95" cy="-596.33" fill="none" rx="63.09" ry="63.09" stroke="black"/>
<text font-family="Times New Roman,serif" font-size="14.00" text-anchor="middle" x="148.95" y="-592.63">sum-aggregate</text>
</g>
<!-- 7923192453141069901&#45;&gt;&#45;6381132473885568729 -->
<g class="edge" id="edge20">
<title>7923192453141069901-&gt;-6381132473885568729</title>
<path d="M118.42,-497.75C120.9,-505.69 124.02,-515.66 127.3,-526.16" fill="none" stroke="black"/>
<polygon fill="black" points="124.03,-527.42 130.36,-535.91 130.71,-525.33 124.03,-527.42" stroke="black"/>
</g>
<!-- 7923192453142234950 -->
<g class="node" id="node20">
<title>7923192453142234950</title>
<polygon fill="none" points="223.95,-497.28 169.95,-497.28 169.95,-461.28 223.95,-461.28 223.95,-497.28" stroke="black"/>
<text font-family="Times New Roman,serif" font-size="14.00" text-anchor="middle" x="196.95" y="-475.58">(0, 1)</text>
</g>
<!-- &#45;7731002843493262393&#45;&gt;7923192453142234950 -->
<g class="edge" id="edge16">
<title>-7731002843493262393-&gt;7923192453142234950</title>
<path d="M203.16,-425.13C202.12,-434.02 201.07,-442.97 200.14,-450.94" fill="none" stroke="black"/>
<polygon fill="black" points="196.64,-450.74 198.96,-461.08 203.59,-451.56 196.64,-450.74" stroke="black"/>
</g>
<!-- 7923192453142234950&#45;&gt;&#45;6381132473885568729 -->
<g class="edge" id="edge21">
<title>7923192453142234950-&gt;-6381132473885568729</title>
<path d="M189.66,-497.75C186.08,-506.33 181.51,-517.28 176.74,-528.71" fill="none" stroke="black"/>
<polygon fill="black" points="173.51,-527.37 172.89,-537.95 179.97,-530.07 173.51,-527.37" stroke="black"/>
</g>
<!-- &#45;1573167383164448090 -->
<g class="node" id="node22">
<title>-1573167383164448090</title>
<polygon fill="none" points="175.95,-731.37 121.95,-731.37 121.95,-695.37 175.95,-695.37 175.95,-731.37" stroke="black"/>
<text font-family="Times New Roman,serif" font-size="14.00" text-anchor="middle" x="148.95" y="-709.67">()</text>
</g>
<!-- &#45;6381132473885568729&#45;&gt;&#45;1573167383164448090 -->
<g class="edge" id="edge19">
<title>-6381132473885568729-&gt;-1573167383164448090</title>
<path d="M148.95,-659.56C148.95,-668.49 148.95,-677.26 148.95,-685.01" fill="none" stroke="black"/>
<polygon fill="black" points="145.45,-685.2 148.95,-695.2 152.45,-685.2 145.45,-685.2" stroke="black"/>
</g>
</g>
</svg>