<svg xmlns="http://www.w3.org/2000/svg" xmlns:xlink="http://www.w3.org/1999/xlink" width="333pt" height="128pt" viewBox="0.00 0.00 333.19 127.70">
<g id="graph0" class="graph" transform="scale(1 1) rotate(0) translate(4 123.7)">
<polygon fill="white" stroke="transparent" points="-4,4 -4,-123.7 329.19,-123.7 329.19,4 -4,4"/>
<!-- &#45;5550668958174227734 -->
<g id="node1" class="node">
<title>-5550668958174227734</title>
<ellipse fill="none" stroke="black" cx="207.24" cy="-60.65" rx="27.9" ry="27.9"/>
<text text-anchor="middle" x="207.24" y="-56.95" font-family="Helvetica,sans-Serif" font-size="14.00">add</text>
</g>
<!-- &#45;4161950553179841177 -->
<g id="node2" class="node">
<title>-4161950553179841177</title>
<polygon fill="none" stroke="black" points="325.19,-78.65 271.19,-78.65 271.19,-42.65 325.19,-42.65 325.19,-78.65"/>
</g>
<!-- &#45;5550668958174227734&#45;&gt;&#45;4161950553179841177 -->
<g id="edge1" class="edge">
<title>-5550668958174227734-&gt;-4161950553179841177</title>
<path fill="none" stroke="black" d="M235.41,-60.65C243.48,-60.65 252.44,-60.65 260.98,-60.65"/>
<polygon fill="black" stroke="black" points="261.1,-64.15 271.1,-60.65 261.1,-57.15 261.1,-64.15"/>
</g>
<!-- &#45;41664159373895125 -->
<g id="node3" class="node">
<title>-41664159373895125</title>
<polygon fill="none" stroke="black" points="143.3,-109.65 89.3,-109.65 89.3,-73.65 143.3,-73.65 143.3,-109.65"/>
</g>
<!-- &#45;41664159373895125&#45;&gt;&#45;5550668958174227734 -->
<g id="edge2" class="edge">
<title>-41664159373895125-&gt;-5550668958174227734</title>
<path fill="none" stroke="black" d="M143.5,-82.51C152.08,-79.52 161.76,-76.15 170.9,-72.97"/>
<polygon fill="black" stroke="black" points="172.24,-76.21 180.53,-69.61 169.94,-69.6 172.24,-76.21"/>
</g>
<!-- &#45;6746395910628444075 -->
<g id="node4" class="node">
<title>-6746395910628444075</title>
<polygon fill="none" stroke="black" points="143.3,-51.65 89.3,-51.65 89.3,-15.65 143.3,-15.65 143.3,-51.65"/>
</g>
<!-- &#45;6746395910628444075&#45;&gt;&#45;5550668958174227734 -->
<g id="edge3" class="edge">
<title>-6746395910628444075-&gt;-5550668958174227734</title>
<path fill="none" stroke="black" d="M143.5,-41.6C151.92,-44.16 161.39,-47.03 170.37,-49.76"/>
<polygon fill="black" stroke="black" points="169.64,-53.19 180.22,-52.75 171.67,-46.5 169.64,-53.19"/>
</g>
<!-- 5859163383703171219 -->
<g id="node5" class="node">
<title>5859163383703171219</title>
<ellipse fill="none" stroke="black" cx="26.65" cy="-95.65" rx="24.1" ry="24.1"/>
<text text-anchor="middle" x="26.65" y="-91.95" font-family="Helvetica,sans-Serif" font-size="14.00">inc</text>
</g>
<!-- 5859163383703171219&#45;&gt;&#45;41664159373895125 -->
<g id="edge4" class="edge">
<title>5859163383703171219-&gt;-41664159373895125</title>
<path fill="none" stroke="black" d="M50.68,-94.6C59.32,-94.2 69.36,-93.74 78.92,-93.31"/>
<polygon fill="black" stroke="black" points="79.18,-96.8 89.01,-92.85 78.86,-89.81 79.18,-96.8"/>
</g>
<!-- &#45;6090962860079276445 -->
<g id="node6" class="node">
<title>-6090962860079276445</title>
<ellipse fill="none" stroke="black" cx="26.65" cy="-26.65" rx="26.8" ry="26.8"/>
<text text-anchor="middle" x="26.65" y="-22.95" font-family="Helvetica,sans-Serif" font-size="14.00">dec</text>
</g>
<!-- &#45;6090962860079276445&#45;&gt;&#45;6746395910628444075 -->
<g id="edge5" class="edge">
<title>-6090962860079276445-&gt;-6746395910628444075</title>
<path fill="none" stroke="black" d="M53.47,-28.71C61.44,-29.35 70.37,-30.06 78.91,-30.74"/>
<polygon fill="black" stroke="black" points="78.8,-34.24 89.05,-31.55 79.36,-27.27 78.8,-34.24"/>
</g>
</g>
</svg>