<?xml version="1.0" encoding="UTF-8" standalone="no"?>
<!DOCTYPE svg PUBLIC "-//W3C//DTD SVG 1.1//EN"
 "http://www.w3.org/Graphics/SVG/1.1/DTD/svg11.dtd">
<!-- Generated by graphviz version 5.0.0 (0)
 -->
<!-- Pages: 1 -->
<svg width="324pt" height="120pt"
 viewBox="0.00 0.00 324.09 119.80" xmlns="http://www.w3.org/2000/svg" xmlns:xlink="http://www.w3.org/1999/xlink">
<g id="graph0" class="graph" transform="scale(1 1) rotate(0) translate(4 115.8)">
<polygon fill="white" stroke="transparent" points="-4,4 -4,-115.8 320.09,-115.8 320.09,4 -4,4"/>
<!-- 1319857085469191450 -->
<g id="node1" class="node">
<title>1319857085469191450</title>
<ellipse fill="none" stroke="black" cx="200.74" cy="-56.7" rx="25.2" ry="25.2"/>
<text text-anchor="middle" x="200.74" y="-53" font-family="Helvetica,sans-Serif" font-size="14.00">add</text>
</g>
<!-- 2670691413411022181 -->
<g id="node2" class="node">
<title>2670691413411022181</title>
<polygon fill="none" stroke="black" points="316.09,-74.7 262.09,-74.7 262.09,-38.7 316.09,-38.7 316.09,-74.7"/>
</g>
<!-- 1319857085469191450&#45;&gt;2670691413411022181 -->
<g id="edge1" class="edge">
<title>1319857085469191450&#45;&gt;2670691413411022181</title>
<path fill="none" stroke="black" d="M226.26,-56.7C234.2,-56.7 243.18,-56.7 251.79,-56.7"/>
<polygon fill="black" stroke="black" points="252.01,-60.2 262.01,-56.7 252.01,-53.2 252.01,-60.2"/>
</g>
<!-- 2083236098201435235 -->
<g id="node3" class="node">
<title>2083236098201435235</title>
<polygon fill="none" stroke="black" points="139.4,-104.7 85.4,-104.7 85.4,-68.7 139.4,-68.7 139.4,-104.7"/>
</g>
<!-- 2083236098201435235&#45;&gt;1319857085469191450 -->
<g id="edge2" class="edge">
<title>2083236098201435235&#45;&gt;1319857085469191450</title>
<path fill="none" stroke="black" d="M139.77,-77.53C148.28,-74.58 157.81,-71.27 166.73,-68.17"/>
<polygon fill="black" stroke="black" points="168.16,-71.38 176.45,-64.79 165.86,-64.76 168.16,-71.38"/>
</g>
<!-- &#45;2580720902530657681 -->
<g id="node4" class="node">
<title>&#45;2580720902530657681</title>
<polygon fill="none" stroke="black" points="139.4,-47.7 85.4,-47.7 85.4,-11.7 139.4,-11.7 139.4,-47.7"/>
</g>
<!-- &#45;2580720902530657681&#45;&gt;1319857085469191450 -->
<g id="edge3" class="edge">
<title>&#45;2580720902530657681&#45;&gt;1319857085469191450</title>
<path fill="none" stroke="black" d="M139.77,-37.95C148.28,-40.6 157.81,-43.59 166.73,-46.38"/>
<polygon fill="black" stroke="black" points="165.87,-49.77 176.45,-49.42 167.95,-43.09 165.87,-49.77"/>
</g>
<!-- 4180535380880040566 -->
<g id="node5" class="node">
<title>4180535380880040566</title>
<ellipse fill="none" stroke="black" cx="24.7" cy="-89.7" rx="22.2" ry="22.2"/>
<text text-anchor="middle" x="24.7" y="-86" font-family="Helvetica,sans-Serif" font-size="14.00">inc</text>
</g>
<!-- 4180535380880040566&#45;&gt;2083236098201435235 -->
<g id="edge4" class="edge">
<title>4180535380880040566&#45;&gt;2083236098201435235</title>
<path fill="none" stroke="black" d="M46.88,-88.96C55.4,-88.66 65.47,-88.31 75.08,-87.97"/>
<polygon fill="black" stroke="black" points="75.38,-91.46 85.25,-87.61 75.13,-84.47 75.38,-91.46"/>
</g>
<!-- 616130711706704437 -->
<g id="node6" class="node">
<title>616130711706704437</title>
<ellipse fill="none" stroke="black" cx="24.7" cy="-24.7" rx="24.9" ry="24.9"/>
<text text-anchor="middle" x="24.7" y="-21" font-family="Helvetica,sans-Serif" font-size="14.00">dec</text>
</g>
<!-- 616130711706704437&#45;&gt;&#45;2580720902530657681 -->
<g id="edge5" class="edge">
<title>616130711706704437&#45;&gt;&#45;2580720902530657681</title>
<path fill="none" stroke="black" d="M49.57,-26.09C57.46,-26.55 66.42,-27.07 75.02,-27.58"/>
<polygon fill="black" stroke="black" points="75.06,-31.08 85.25,-28.17 75.47,-24.1 75.06,-31.08"/>
</g>
</g>
</svg>
