<svg xmlns="http://www.w3.org/2000/svg" xmlns:xlink="http://www.w3.org/1999/xlink" width="482pt" height="852pt" viewBox="0.00 0.00 481.99 852.46">
<g id="graph0" class="graph" transform="scale(1 1) rotate(0) translate(4 848.46)">
<polygon fill="white" stroke="transparent" points="-4,4 -4,-848.46 477.99,-848.46 477.99,4 -4,4"/>
<!-- &#45;5542854119486033042 -->
<g id="node1" class="node">
<title>-5542854119486033042</title>
<ellipse fill="none" stroke="black" cx="52" cy="-52" rx="51.99" ry="51.99"/>
<text text-anchor="middle" x="52" y="-48.3" font-family="Helvetica,sans-Serif" font-size="14.00">ones_like</text>
</g>
<!-- &#45;6245055245975254336 -->
<g id="node2" class="node">
<title>-6245055245975254336</title>
<polygon fill="none" stroke="black" points="96,-175.99 42,-175.99 42,-139.99 96,-139.99 96,-175.99"/>
<text text-anchor="middle" x="69" y="-154.29" font-family="Helvetica,sans-Serif" font-size="14.00">(0, 0)</text>
</g>
<!-- &#45;5542854119486033042&#45;&gt;&#45;6245055245975254336 -->
<g id="edge1" class="edge">
<title>-5542854119486033042-&gt;-6245055245975254336</title>
<path fill="none" stroke="black" d="M60.25,-103.47C61.73,-112.54 63.22,-121.67 64.54,-129.75"/>
<polygon fill="black" stroke="black" points="61.1,-130.39 66.17,-139.69 68.01,-129.26 61.1,-130.39"/>
</g>
<!-- &#45;758917533329757019 -->
<g id="node9" class="node">
<title>-758917533329757019</title>
<ellipse fill="none" stroke="black" cx="78" cy="-242.54" rx="30.59" ry="30.59"/>
<text text-anchor="middle" x="78" y="-238.84" font-family="Helvetica,sans-Serif" font-size="14.00">sum</text>
</g>
<!-- &#45;6245055245975254336&#45;&gt;&#45;758917533329757019 -->
<g id="edge6" class="edge">
<title>-6245055245975254336-&gt;-758917533329757019</title>
<path fill="none" stroke="black" d="M70.86,-176.09C71.68,-183.64 72.69,-192.86 73.68,-201.96"/>
<polygon fill="black" stroke="black" points="70.22,-202.54 74.79,-212.1 77.18,-201.78 70.22,-202.54"/>
</g>
<!-- &#45;5504161197549197292 -->
<g id="node3" class="node">
<title>-5504161197549197292</title>
<ellipse fill="none" stroke="black" cx="174" cy="-52" rx="51.99" ry="51.99"/>
<text text-anchor="middle" x="174" y="-48.3" font-family="Helvetica,sans-Serif" font-size="14.00">ones_like</text>
</g>
<!-- 262585510126744089 -->
<g id="node4" class="node">
<title>262585510126744089</title>
<polygon fill="none" stroke="black" points="192,-175.99 138,-175.99 138,-139.99 192,-139.99 192,-175.99"/>
<text text-anchor="middle" x="165" y="-154.29" font-family="Helvetica,sans-Serif" font-size="14.00">(0, 1)</text>
</g>
<!-- &#45;5504161197549197292&#45;&gt;262585510126744089 -->
<g id="edge2" class="edge">
<title>-5504161197549197292-&gt;262585510126744089</title>
<path fill="none" stroke="black" d="M169.57,-104.08C168.8,-112.98 168.03,-121.91 167.34,-129.84"/>
<polygon fill="black" stroke="black" points="163.85,-129.66 166.47,-139.93 170.82,-130.27 163.85,-129.66"/>
</g>
<!-- &#45;917955743875232539 -->
<g id="node11" class="node">
<title>-917955743875232539</title>
<ellipse fill="none" stroke="black" cx="165" cy="-242.54" rx="30.59" ry="30.59"/>
<text text-anchor="middle" x="165" y="-238.84" font-family="Helvetica,sans-Serif" font-size="14.00">sum</text>
</g>
<!-- 262585510126744089&#45;&gt;&#45;917955743875232539 -->
<g id="edge8" class="edge">
<title>262585510126744089-&gt;-917955743875232539</title>
<path fill="none" stroke="black" d="M165,-176.09C165,-183.57 165,-192.69 165,-201.71"/>
<polygon fill="black" stroke="black" points="161.5,-201.77 165,-211.77 168.5,-201.77 161.5,-201.77"/>
</g>
<!-- &#45;2142643226837149807 -->
<g id="node5" class="node">
<title>-2142643226837149807</title>
<ellipse fill="none" stroke="black" cx="300" cy="-52" rx="51.99" ry="51.99"/>
<text text-anchor="middle" x="300" y="-48.3" font-family="Helvetica,sans-Serif" font-size="14.00">ones_like</text>
</g>
<!-- &#45;9028845901830320405 -->
<g id="node6" class="node">
<title>-9028845901830320405</title>
<polygon fill="none" stroke="black" points="327,-175.99 273,-175.99 273,-139.99 327,-139.99 327,-175.99"/>
<text text-anchor="middle" x="300" y="-154.29" font-family="Helvetica,sans-Serif" font-size="14.00">(0, 2)</text>
</g>
<!-- &#45;2142643226837149807&#45;&gt;&#45;9028845901830320405 -->
<g id="edge3" class="edge">
<title>-2142643226837149807-&gt;-9028845901830320405</title>
<path fill="none" stroke="black" d="M300,-104.08C300,-112.98 300,-121.91 300,-129.84"/>
<polygon fill="black" stroke="black" points="296.5,-129.93 300,-139.93 303.5,-129.93 296.5,-129.93"/>
</g>
<!-- &#45;2599883850750650704 -->
<g id="node13" class="node">
<title>-2599883850750650704</title>
<ellipse fill="none" stroke="black" cx="302" cy="-242.54" rx="30.59" ry="30.59"/>
<text text-anchor="middle" x="302" y="-238.84" font-family="Helvetica,sans-Serif" font-size="14.00">sum</text>
</g>
<!-- &#45;9028845901830320405&#45;&gt;&#45;2599883850750650704 -->
<g id="edge10" class="edge">
<title>-9028845901830320405-&gt;-2599883850750650704</title>
<path fill="none" stroke="black" d="M300.41,-176.09C300.59,-183.57 300.81,-192.69 301.03,-201.71"/>
<polygon fill="black" stroke="black" points="297.53,-201.86 301.27,-211.77 304.53,-201.69 297.53,-201.86"/>
</g>
<!-- &#45;7345127514970090977 -->
<g id="node7" class="node">
<title>-7345127514970090977</title>
<ellipse fill="none" stroke="black" cx="422" cy="-52" rx="51.99" ry="51.99"/>
<text text-anchor="middle" x="422" y="-48.3" font-family="Helvetica,sans-Serif" font-size="14.00">ones_like</text>
</g>
<!-- &#45;2521205145728321980 -->
<g id="node8" class="node">
<title>-2521205145728321980</title>
<polygon fill="none" stroke="black" points="438,-175.99 384,-175.99 384,-139.99 438,-139.99 438,-175.99"/>
<text text-anchor="middle" x="411" y="-154.29" font-family="Helvetica,sans-Serif" font-size="14.00">(0, 3)</text>
</g>
<!-- &#45;7345127514970090977&#45;&gt;&#45;2521205145728321980 -->
<g id="edge4" class="edge">
<title>-7345127514970090977-&gt;-2521205145728321980</title>
<path fill="none" stroke="black" d="M416.62,-103.77C415.68,-112.71 414.73,-121.69 413.89,-129.66"/>
<polygon fill="black" stroke="black" points="410.38,-129.5 412.81,-139.81 417.35,-130.23 410.38,-129.5"/>
</g>
<!-- &#45;2758922061296126224 -->
<g id="node15" class="node">
<title>-2758922061296126224</title>
<ellipse fill="none" stroke="black" cx="401" cy="-242.54" rx="30.59" ry="30.59"/>
<text text-anchor="middle" x="401" y="-238.84" font-family="Helvetica,sans-Serif" font-size="14.00">sum</text>
</g>
<!-- &#45;2521205145728321980&#45;&gt;&#45;2758922061296126224 -->
<g id="edge12" class="edge">
<title>-2521205145728321980-&gt;-2758922061296126224</title>
<path fill="none" stroke="black" d="M408.92,-176.09C408.01,-183.64 406.89,-192.86 405.79,-201.96"/>
<polygon fill="black" stroke="black" points="402.29,-201.75 404.56,-212.1 409.24,-202.59 402.29,-201.75"/>
</g>
<!-- 55916630109195350 -->
<g id="node10" class="node">
<title>55916630109195350</title>
<polygon fill="none" stroke="black" points="111,-345.09 57,-345.09 57,-309.09 111,-309.09 111,-345.09"/>
<text text-anchor="middle" x="84" y="-323.39" font-family="Helvetica,sans-Serif" font-size="14.00">(0, 0)</text>
</g>
<!-- &#45;758917533329757019&#45;&gt;55916630109195350 -->
<g id="edge5" class="edge">
<title>-758917533329757019-&gt;55916630109195350</title>
<path fill="none" stroke="black" d="M80.16,-273.34C80.77,-281.69 81.42,-290.72 82.02,-298.91"/>
<polygon fill="black" stroke="black" points="78.54,-299.34 82.76,-309.06 85.52,-298.83 78.54,-299.34"/>
</g>
<!-- &#45;7222537781648555744 -->
<g id="node17" class="node">
<title>-7222537781648555744</title>
<ellipse fill="none" stroke="black" cx="161" cy="-443.48" rx="62.29" ry="62.29"/>
<text text-anchor="middle" x="161" y="-439.78" font-family="Helvetica,sans-Serif" font-size="14.00">sum-partial</text>
</g>
<!-- 55916630109195350&#45;&gt;&#45;7222537781648555744 -->
<g id="edge15" class="edge">
<title>55916630109195350-&gt;-7222537781648555744</title>
<path fill="none" stroke="black" d="M95.69,-345.46C102.52,-355.6 111.58,-369.07 120.77,-382.73"/>
<polygon fill="black" stroke="black" points="118.01,-384.89 126.5,-391.23 123.82,-380.98 118.01,-384.89"/>
</g>
<!-- &#45;4837157398863501016 -->
<g id="node12" class="node">
<title>-4837157398863501016</title>
<polygon fill="none" stroke="black" points="189,-345.09 135,-345.09 135,-309.09 189,-309.09 189,-345.09"/>
<text text-anchor="middle" x="162" y="-323.39" font-family="Helvetica,sans-Serif" font-size="14.00">(0, 1)</text>
</g>
<!-- &#45;917955743875232539&#45;&gt;&#45;4837157398863501016 -->
<g id="edge7" class="edge">
<title>-917955743875232539-&gt;-4837157398863501016</title>
<path fill="none" stroke="black" d="M163.91,-273.34C163.61,-281.69 163.28,-290.72 162.98,-298.91"/>
<polygon fill="black" stroke="black" points="159.48,-298.94 162.61,-309.06 166.48,-299.19 159.48,-298.94"/>
</g>
<!-- &#45;4837157398863501016&#45;&gt;&#45;7222537781648555744 -->
<g id="edge14" class="edge">
<title>-4837157398863501016-&gt;-7222537781648555744</title>
<path fill="none" stroke="black" d="M161.84,-345.46C161.78,-352.57 161.7,-361.32 161.62,-370.62"/>
<polygon fill="black" stroke="black" points="158.12,-370.85 161.53,-380.88 165.12,-370.91 158.12,-370.85"/>
</g>
<!-- &#45;2727874025745870719 -->
<g id="node14" class="node">
<title>-2727874025745870719</title>
<polygon fill="none" stroke="black" points="330,-345.09 276,-345.09 276,-309.09 330,-309.09 330,-345.09"/>
<text text-anchor="middle" x="303" y="-323.39" font-family="Helvetica,sans-Serif" font-size="14.00">(0, 2)</text>
</g>
<!-- &#45;2599883850750650704&#45;&gt;&#45;2727874025745870719 -->
<g id="edge9" class="edge">
<title>-2599883850750650704-&gt;-2727874025745870719</title>
<path fill="none" stroke="black" d="M302.36,-273.34C302.46,-281.69 302.57,-290.72 302.67,-298.91"/>
<polygon fill="black" stroke="black" points="299.17,-299.1 302.79,-309.06 306.17,-299.01 299.17,-299.1"/>
</g>
<!-- &#45;7381575992194031264 -->
<g id="node19" class="node">
<title>-7381575992194031264</title>
<ellipse fill="none" stroke="black" cx="304" cy="-443.48" rx="62.29" ry="62.29"/>
<text text-anchor="middle" x="304" y="-439.78" font-family="Helvetica,sans-Serif" font-size="14.00">sum-partial</text>
</g>
<!-- &#45;2727874025745870719&#45;&gt;&#45;7381575992194031264 -->
<g id="edge17" class="edge">
<title>-2727874025745870719-&gt;-7381575992194031264</title>
<path fill="none" stroke="black" d="M303.15,-345.46C303.21,-352.57 303.29,-361.32 303.37,-370.62"/>
<polygon fill="black" stroke="black" points="299.87,-370.91 303.46,-380.88 306.87,-370.85 299.87,-370.91"/>
</g>
<!-- &#45;7620948054718567085 -->
<g id="node16" class="node">
<title>-7620948054718567085</title>
<polygon fill="none" stroke="black" points="415,-345.09 361,-345.09 361,-309.09 415,-309.09 415,-345.09"/>
<text text-anchor="middle" x="388" y="-323.39" font-family="Helvetica,sans-Serif" font-size="14.00">(0, 3)</text>
</g>
<!-- &#45;2758922061296126224&#45;&gt;&#45;7620948054718567085 -->
<g id="edge11" class="edge">
<title>-2758922061296126224-&gt;-7620948054718567085</title>
<path fill="none" stroke="black" d="M396.38,-272.87C395.04,-281.35 393.59,-290.55 392.28,-298.89"/>
<polygon fill="black" stroke="black" points="388.81,-298.44 390.71,-308.86 395.72,-299.53 388.81,-298.44"/>
</g>
<!-- &#45;7620948054718567085&#45;&gt;&#45;7381575992194031264 -->
<g id="edge18" class="edge">
<title>-7620948054718567085-&gt;-7381575992194031264</title>
<path fill="none" stroke="black" d="M375.24,-345.46C367.49,-356.01 357.1,-370.16 346.66,-384.38"/>
<polygon fill="black" stroke="black" points="343.62,-382.6 340.52,-392.73 349.26,-386.74 343.62,-382.6"/>
</g>
<!-- 8254826376518081274 -->
<g id="node18" class="node">
<title>8254826376518081274</title>
<polygon fill="none" stroke="black" points="223,-577.87 169,-577.87 169,-541.87 223,-541.87 223,-577.87"/>
<text text-anchor="middle" x="196" y="-556.17" font-family="Helvetica,sans-Serif" font-size="14.00">(0, 0)</text>
</g>
<!-- &#45;7222537781648555744&#45;&gt;8254826376518081274 -->
<g id="edge13" class="edge">
<title>-7222537781648555744-&gt;8254826376518081274</title>
<path fill="none" stroke="black" d="M179.01,-503.35C182.06,-513.32 185.08,-523.21 187.72,-531.83"/>
<polygon fill="black" stroke="black" points="184.45,-533.09 190.72,-541.62 191.14,-531.04 184.45,-533.09"/>
</g>
<!-- 3424195454529527567 -->
<g id="node21" class="node">
<title>3424195454529527567</title>
<ellipse fill="none" stroke="black" cx="232" cy="-693.17" rx="79.09" ry="79.09"/>
<text text-anchor="middle" x="232" y="-689.47" font-family="Helvetica,sans-Serif" font-size="14.00">sum-aggregate</text>
</g>
<!-- 8254826376518081274&#45;&gt;3424195454529527567 -->
<g id="edge20" class="edge">
<title>8254826376518081274-&gt;3424195454529527567</title>
<path fill="none" stroke="black" d="M200.7,-578.04C202.87,-585.94 205.62,-595.96 208.58,-606.77"/>
<polygon fill="black" stroke="black" points="205.21,-607.72 211.23,-616.44 211.96,-605.87 205.21,-607.72"/>
</g>
<!-- 3361752347545384908 -->
<g id="node20" class="node">
<title>3361752347545384908</title>
<polygon fill="none" stroke="black" points="313,-577.87 259,-577.87 259,-541.87 313,-541.87 313,-577.87"/>
<text text-anchor="middle" x="286" y="-556.17" font-family="Helvetica,sans-Serif" font-size="14.00">(0, 1)</text>
</g>
<!-- &#45;7381575992194031264&#45;&gt;3361752347545384908 -->
<g id="edge16" class="edge">
<title>-7381575992194031264-&gt;3361752347545384908</title>
<path fill="none" stroke="black" d="M294.42,-505.36C292.98,-514.46 291.57,-523.43 290.33,-531.35"/>
<polygon fill="black" stroke="black" points="286.84,-531 288.74,-541.42 293.75,-532.08 286.84,-531"/>
</g>
<!-- 3361752347545384908&#45;&gt;3424195454529527567 -->
<g id="edge21" class="edge">
<title>3361752347545384908-&gt;3424195454529527567</title>
<path fill="none" stroke="black" d="M278.94,-578.04C275.34,-586.79 270.67,-598.14 265.68,-610.28"/>
<polygon fill="black" stroke="black" points="262.37,-609.11 261.81,-619.69 268.85,-611.77 262.37,-609.11"/>
</g>
<!-- 6666569888897337007 -->
<g id="node22" class="node">
<title>6666569888897337007</title>
<polygon fill="none" stroke="black" points="259,-844.46 205,-844.46 205,-808.46 259,-808.46 259,-844.46"/>
<text text-anchor="middle" x="232" y="-822.76" font-family="Helvetica,sans-Serif" font-size="14.00">()</text>
</g>
<!-- 3424195454529527567&#45;&gt;6666569888897337007 -->
<g id="edge19" class="edge">
<title>3424195454529527567-&gt;6666569888897337007</title>
<path fill="none" stroke="black" d="M232,-772.81C232,-781.87 232,-790.59 232,-798.23"/>
<polygon fill="black" stroke="black" points="228.5,-798.24 232,-808.24 235.5,-798.24 228.5,-798.24"/>
</g>
</g>
</svg>