<svg xmlns="http://www.w3.org/2000/svg" xmlns:xlink="http://www.w3.org/1999/xlink" width="620pt" height="1443pt" viewBox="0.00 0.00 620.24 1442.83">
<g id="graph0" class="graph" transform="scale(1 1) rotate(0) translate(4 1438.83)">
<polygon fill="white" stroke="transparent" points="-4,4 -4,-1438.83 616.24,-1438.83 616.24,4 -4,4"/>
<!-- &#45;6653064479357868358 -->
<g id="node1" class="node">
<title>-6653064479357868358</title>
<ellipse fill="none" stroke="black" cx="68.24" cy="-438.93" rx="27.9" ry="27.9"/>
<text text-anchor="middle" x="68.24" y="-435.23" font-family="Helvetica,sans-Serif" font-size="14.00">mul</text>
</g>
<!-- &#45;5366480612269392688 -->
<g id="node2" class="node">
<title>-5366480612269392688</title>
<polygon fill="none" stroke="black" points="95.24,-538.88 41.24,-538.88 41.24,-502.88 95.24,-502.88 95.24,-538.88"/>
<text text-anchor="middle" x="68.24" y="-517.18" font-family="Helvetica,sans-Serif" font-size="14.00">(0, 0)</text>
</g>
<!-- &#45;6653064479357868358&#45;&gt;&#45;5366480612269392688 -->
<g id="edge1" class="edge">
<title>-6653064479357868358-&gt;-5366480612269392688</title>
<path fill="none" stroke="black" d="M68.24,-467C68.24,-475.19 68.24,-484.19 68.24,-492.4"/>
<polygon fill="black" stroke="black" points="64.74,-492.62 68.24,-502.62 71.74,-492.62 64.74,-492.62"/>
</g>
<!-- &#45;2180643917947542661 -->
<g id="node25" class="node">
<title>-2180643917947542661</title>
<ellipse fill="none" stroke="black" cx="68.24" cy="-643.12" rx="68.49" ry="68.49"/>
<text text-anchor="middle" x="68.24" y="-639.42" font-family="Helvetica,sans-Serif" font-size="14.00">mean_chunk</text>
</g>
<!-- &#45;5366480612269392688&#45;&gt;&#45;2180643917947542661 -->
<g id="edge26" class="edge">
<title>-5366480612269392688-&gt;-2180643917947542661</title>
<path fill="none" stroke="black" d="M68.24,-539.11C68.24,-546.29 68.24,-555.17 68.24,-564.69"/>
<polygon fill="black" stroke="black" points="64.74,-564.79 68.24,-574.79 71.74,-564.79 64.74,-564.79"/>
</g>
<!-- &#45;6245055245975254336 -->
<g id="node3" class="node">
<title>-6245055245975254336</title>
<polygon fill="none" stroke="black" points="123.24,-175.99 69.24,-175.99 69.24,-139.99 123.24,-139.99 123.24,-175.99"/>
<text text-anchor="middle" x="96.24" y="-154.29" font-family="Helvetica,sans-Serif" font-size="14.00">(0, 0)</text>
</g>
<!-- &#45;6245055245975254336&#45;&gt;&#45;6653064479357868358 -->
<g id="edge2" class="edge">
<title>-6245055245975254336-&gt;-6653064479357868358</title>
<path fill="none" stroke="black" d="M82.68,-176.02C75.69,-185.9 67.88,-198.94 64.24,-211.99 46.23,-276.68 54.09,-355.87 61.28,-401.25"/>
<polygon fill="black" stroke="black" points="57.85,-401.93 62.94,-411.22 64.75,-400.78 57.85,-401.93"/>
</g>
<!-- 7299055057320261289 -->
<g id="node21" class="node">
<title>7299055057320261289</title>
<ellipse fill="none" stroke="black" cx="118.24" cy="-257.49" rx="45.49" ry="45.49"/>
<text text-anchor="middle" x="118.24" y="-253.79" font-family="Helvetica,sans-Serif" font-size="14.00">getitem</text>
</g>
<!-- &#45;6245055245975254336&#45;&gt;7299055057320261289 -->
<g id="edge18" class="edge">
<title>-6245055245975254336-&gt;7299055057320261289</title>
<path fill="none" stroke="black" d="M100.18,-176.42C101.88,-183.98 103.98,-193.29 106.14,-202.84"/>
<polygon fill="black" stroke="black" points="102.78,-203.85 108.39,-212.83 109.61,-202.31 102.78,-203.85"/>
</g>
<!-- 2945365101823622742 -->
<g id="node4" class="node">
<title>2945365101823622742</title>
<polygon fill="none" stroke="black" points="140.24,-374.98 86.24,-374.98 86.24,-338.98 140.24,-338.98 140.24,-374.98"/>
<text text-anchor="middle" x="113.24" y="-353.28" font-family="Helvetica,sans-Serif" font-size="14.00">(0, 0)</text>
</g>
<!-- 2945365101823622742&#45;&gt;&#45;6653064479357868358 -->
<g id="edge3" class="edge">
<title>2945365101823622742-&gt;-6653064479357868358</title>
<path fill="none" stroke="black" d="M103.48,-375.33C98.52,-384.14 92.33,-395.13 86.53,-405.44"/>
<polygon fill="black" stroke="black" points="83.43,-403.82 81.57,-414.25 89.53,-407.25 83.43,-403.82"/>
</g>
<!-- &#45;8083884894185847839 -->
<g id="node5" class="node">
<title>-8083884894185847839</title>
<ellipse fill="none" stroke="black" cx="376.24" cy="-438.93" rx="27.9" ry="27.9"/>
<text text-anchor="middle" x="376.24" y="-435.23" font-family="Helvetica,sans-Serif" font-size="14.00">mul</text>
</g>
<!-- 8187189432467462562 -->
<g id="node6" class="node">
<title>8187189432467462562</title>
<polygon fill="none" stroke="black" points="403.24,-538.88 349.24,-538.88 349.24,-502.88 403.24,-502.88 403.24,-538.88"/>
<text text-anchor="middle" x="376.24" y="-517.18" font-family="Helvetica,sans-Serif" font-size="14.00">(0, 1)</text>
</g>
<!-- &#45;8083884894185847839&#45;&gt;8187189432467462562 -->
<g id="edge4" class="edge">
<title>-8083884894185847839-&gt;8187189432467462562</title>
<path fill="none" stroke="black" d="M376.24,-467C376.24,-475.19 376.24,-484.19 376.24,-492.4"/>
<polygon fill="black" stroke="black" points="372.74,-492.62 376.24,-502.62 379.74,-492.62 372.74,-492.62"/>
</g>
<!-- &#45;2984770823096115703 -->
<g id="node27" class="node">
<title>-2984770823096115703</title>
<ellipse fill="none" stroke="black" cx="376.24" cy="-643.12" rx="68.49" ry="68.49"/>
<text text-anchor="middle" x="376.24" y="-639.42" font-family="Helvetica,sans-Serif" font-size="14.00">mean_chunk</text>
</g>
<!-- 8187189432467462562&#45;&gt;&#45;2984770823096115703 -->
<g id="edge28" class="edge">
<title>8187189432467462562-&gt;-2984770823096115703</title>
<path fill="none" stroke="black" d="M376.24,-539.11C376.24,-546.29 376.24,-555.17 376.24,-564.69"/>
<polygon fill="black" stroke="black" points="372.74,-564.79 376.24,-574.79 379.74,-564.79 372.74,-564.79"/>
</g>
<!-- 262585510126744089 -->
<g id="node7" class="node">
<title>262585510126744089</title>
<polygon fill="none" stroke="black" points="435.24,-175.99 381.24,-175.99 381.24,-139.99 435.24,-139.99 435.24,-175.99"/>
<text text-anchor="middle" x="408.24" y="-154.29" font-family="Helvetica,sans-Serif" font-size="14.00">(0, 1)</text>
</g>
<!-- 262585510126744089&#45;&gt;&#45;8083884894185847839 -->
<g id="edge5" class="edge">
<title>262585510126744089-&gt;-8083884894185847839</title>
<path fill="none" stroke="black" d="M394.68,-176.02C387.69,-185.9 379.88,-198.94 376.24,-211.99 358.23,-276.67 364.31,-355.87 370.31,-401.25"/>
<polygon fill="black" stroke="black" points="366.85,-401.8 371.7,-411.22 373.79,-400.83 366.85,-401.8"/>
</g>
<!-- 7260362135383425539 -->
<g id="node22" class="node">
<title>7260362135383425539</title>
<ellipse fill="none" stroke="black" cx="430.24" cy="-257.49" rx="45.49" ry="45.49"/>
<text text-anchor="middle" x="430.24" y="-253.79" font-family="Helvetica,sans-Serif" font-size="14.00">getitem</text>
</g>
<!-- 262585510126744089&#45;&gt;7260362135383425539 -->
<g id="edge20" class="edge">
<title>262585510126744089-&gt;7260362135383425539</title>
<path fill="none" stroke="black" d="M412.18,-176.42C413.88,-183.98 415.98,-193.29 418.14,-202.84"/>
<polygon fill="black" stroke="black" points="414.78,-203.85 420.39,-212.83 421.61,-202.31 414.78,-203.85"/>
</g>
<!-- &#45;8993738215783930449 -->
<g id="node8" class="node">
<title>-8993738215783930449</title>
<polygon fill="none" stroke="black" points="451.24,-374.98 397.24,-374.98 397.24,-338.98 451.24,-338.98 451.24,-374.98"/>
<text text-anchor="middle" x="424.24" y="-353.28" font-family="Helvetica,sans-Serif" font-size="14.00">(0, 1)</text>
</g>
<!-- &#45;8993738215783930449&#45;&gt;&#45;8083884894185847839 -->
<g id="edge6" class="edge">
<title>-8993738215783930449-&gt;-8083884894185847839</title>
<path fill="none" stroke="black" d="M413.83,-375.33C408.5,-384.21 401.83,-395.31 395.6,-405.69"/>
<polygon fill="black" stroke="black" points="392.43,-404.17 390.28,-414.55 398.43,-407.78 392.43,-404.17"/>
</g>
<!-- &#45;8045191972249012089 -->
<g id="node9" class="node">
<title>-8045191972249012089</title>
<ellipse fill="none" stroke="black" cx="530.24" cy="-438.93" rx="27.9" ry="27.9"/>
<text text-anchor="middle" x="530.24" y="-435.23" font-family="Helvetica,sans-Serif" font-size="14.00">mul</text>
</g>
<!-- &#45;3751913885140090629 -->
<g id="node10" class="node">
<title>-3751913885140090629</title>
<polygon fill="none" stroke="black" points="557.24,-538.88 503.24,-538.88 503.24,-502.88 557.24,-502.88 557.24,-538.88"/>
<text text-anchor="middle" x="530.24" y="-517.18" font-family="Helvetica,sans-Serif" font-size="14.00">(0, 2)</text>
</g>
<!-- &#45;8045191972249012089&#45;&gt;&#45;3751913885140090629 -->
<g id="edge7" class="edge">
<title>-8045191972249012089-&gt;-3751913885140090629</title>
<path fill="none" stroke="black" d="M530.24,-467C530.24,-475.19 530.24,-484.19 530.24,-492.4"/>
<polygon fill="black" stroke="black" points="526.74,-492.62 530.24,-502.62 533.74,-492.62 526.74,-492.62"/>
</g>
<!-- &#45;9065056312955901996 -->
<g id="node29" class="node">
<title>-9065056312955901996</title>
<ellipse fill="none" stroke="black" cx="530.24" cy="-643.12" rx="68.49" ry="68.49"/>
<text text-anchor="middle" x="530.24" y="-639.42" font-family="Helvetica,sans-Serif" font-size="14.00">mean_chunk</text>
</g>
<!-- &#45;3751913885140090629&#45;&gt;&#45;9065056312955901996 -->
<g id="edge30" class="edge">
<title>-3751913885140090629-&gt;-9065056312955901996</title>
<path fill="none" stroke="black" d="M530.24,-539.11C530.24,-546.29 530.24,-555.17 530.24,-564.69"/>
<polygon fill="black" stroke="black" points="526.74,-564.79 530.24,-574.79 533.74,-564.79 526.74,-564.79"/>
</g>
<!-- 161574445968556673 -->
<g id="node11" class="node">
<title>161574445968556673</title>
<polygon fill="none" stroke="black" points="546.24,-374.98 492.24,-374.98 492.24,-338.98 546.24,-338.98 546.24,-374.98"/>
<text text-anchor="middle" x="519.24" y="-353.28" font-family="Helvetica,sans-Serif" font-size="14.00">(0, 2)</text>
</g>
<!-- 161574445968556673&#45;&gt;&#45;8045191972249012089 -->
<g id="edge8" class="edge">
<title>161574445968556673-&gt;-8045191972249012089</title>
<path fill="none" stroke="black" d="M521.63,-375.33C522.68,-382.94 523.95,-392.18 525.19,-401.19"/>
<polygon fill="black" stroke="black" points="521.73,-401.75 526.56,-411.18 528.67,-400.8 521.73,-401.75"/>
</g>
<!-- &#45;9028845901830320405 -->
<g id="node12" class="node">
<title>-9028845901830320405</title>
<polygon fill="none" stroke="black" points="587.24,-175.99 533.24,-175.99 533.24,-139.99 587.24,-139.99 587.24,-175.99"/>
<text text-anchor="middle" x="560.24" y="-154.29" font-family="Helvetica,sans-Serif" font-size="14.00">(0, 2)</text>
</g>
<!-- &#45;9028845901830320405&#45;&gt;&#45;8045191972249012089 -->
<g id="edge9" class="edge">
<title>-9028845901830320405-&gt;-8045191972249012089</title>
<path fill="none" stroke="black" d="M574.57,-176.43C581.69,-186.23 589.55,-199.07 593.24,-211.99 604.36,-250.87 602.01,-263.5 593.24,-302.98 584.98,-340.24 565.3,-379.39 550.12,-405.87"/>
<polygon fill="black" stroke="black" points="546.99,-404.29 544.96,-414.69 553.03,-407.82 546.99,-404.29"/>
</g>
<!-- 8297201547655746182 -->
<g id="node23" class="node">
<title>8297201547655746182</title>
<ellipse fill="none" stroke="black" cx="539.24" cy="-257.49" rx="45.49" ry="45.49"/>
<text text-anchor="middle" x="539.24" y="-253.79" font-family="Helvetica,sans-Serif" font-size="14.00">getitem</text>
</g>
<!-- &#45;9028845901830320405&#45;&gt;8297201547655746182 -->
<g id="edge22" class="edge">
<title>-9028845901830320405-&gt;8297201547655746182</title>
<path fill="none" stroke="black" d="M556.49,-176.42C554.86,-183.98 552.86,-193.29 550.8,-202.84"/>
<polygon fill="black" stroke="black" points="547.33,-202.32 548.65,-212.83 554.17,-203.8 547.33,-202.32"/>
</g>
<!-- &#45;3805872799810119481 -->
<g id="node13" class="node">
<title>-3805872799810119481</title>
<ellipse fill="none" stroke="black" cx="222.24" cy="-438.93" rx="27.9" ry="27.9"/>
<text text-anchor="middle" x="222.24" y="-435.23" font-family="Helvetica,sans-Serif" font-size="14.00">mul</text>
</g>
<!-- &#45;8644987914112786995 -->
<g id="node14" class="node">
<title>-8644987914112786995</title>
<polygon fill="none" stroke="black" points="249.24,-538.88 195.24,-538.88 195.24,-502.88 249.24,-502.88 249.24,-538.88"/>
<text text-anchor="middle" x="222.24" y="-517.18" font-family="Helvetica,sans-Serif" font-size="14.00">(0, 3)</text>
</g>
<!-- &#45;3805872799810119481&#45;&gt;&#45;8644987914112786995 -->
<g id="edge10" class="edge">
<title>-3805872799810119481-&gt;-8644987914112786995</title>
<path fill="none" stroke="black" d="M222.24,-467C222.24,-475.19 222.24,-484.19 222.24,-492.4"/>
<polygon fill="black" stroke="black" points="218.74,-492.62 222.24,-502.62 225.74,-492.62 218.74,-492.62"/>
</g>
<!-- &#45;3982917313431600596 -->
<g id="node31" class="node">
<title>-3982917313431600596</title>
<ellipse fill="none" stroke="black" cx="222.24" cy="-643.12" rx="68.49" ry="68.49"/>
<text text-anchor="middle" x="222.24" y="-639.42" font-family="Helvetica,sans-Serif" font-size="14.00">mean_chunk</text>
</g>
<!-- &#45;8644987914112786995&#45;&gt;&#45;3982917313431600596 -->
<g id="edge32" class="edge">
<title>-8644987914112786995-&gt;-3982917313431600596</title>
<path fill="none" stroke="black" d="M222.24,-539.11C222.24,-546.29 222.24,-555.17 222.24,-564.69"/>
<polygon fill="black" stroke="black" points="218.74,-564.79 222.24,-574.79 225.74,-564.79 218.74,-564.79"/>
</g>
<!-- 6669215202070555098 -->
<g id="node15" class="node">
<title>6669215202070555098</title>
<polygon fill="none" stroke="black" points="237.24,-374.98 183.24,-374.98 183.24,-338.98 237.24,-338.98 237.24,-374.98"/>
<text text-anchor="middle" x="210.24" y="-353.28" font-family="Helvetica,sans-Serif" font-size="14.00">(0, 3)</text>
</g>
<!-- 6669215202070555098&#45;&gt;&#45;3805872799810119481 -->
<g id="edge11" class="edge">
<title>6669215202070555098-&gt;-3805872799810119481</title>
<path fill="none" stroke="black" d="M212.85,-375.33C213.99,-382.94 215.38,-392.18 216.73,-401.19"/>
<polygon fill="black" stroke="black" points="213.28,-401.81 218.23,-411.18 220.21,-400.77 213.28,-401.81"/>
</g>
<!-- &#45;2521205145728321980 -->
<g id="node16" class="node">
<title>-2521205145728321980</title>
<polygon fill="none" stroke="black" points="275.24,-175.99 221.24,-175.99 221.24,-139.99 275.24,-139.99 275.24,-175.99"/>
<text text-anchor="middle" x="248.24" y="-154.29" font-family="Helvetica,sans-Serif" font-size="14.00">(0, 3)</text>
</g>
<!-- &#45;2521205145728321980&#45;&gt;&#45;3805872799810119481 -->
<g id="edge12" class="edge">
<title>-2521205145728321980-&gt;-3805872799810119481</title>
<path fill="none" stroke="black" d="M262.57,-176.43C269.69,-186.23 277.55,-199.07 281.24,-211.99 292.36,-250.87 289.52,-263.4 281.24,-302.98 273.52,-339.92 255.09,-379.13 240.87,-405.7"/>
<polygon fill="black" stroke="black" points="237.76,-404.1 236.04,-414.55 243.9,-407.45 237.76,-404.1"/>
</g>
<!-- 9101328452804319224 -->
<g id="node24" class="node">
<title>9101328452804319224</title>
<ellipse fill="none" stroke="black" cx="227.24" cy="-257.49" rx="45.49" ry="45.49"/>
<text text-anchor="middle" x="227.24" y="-253.79" font-family="Helvetica,sans-Serif" font-size="14.00">getitem</text>
</g>
<!-- &#45;2521205145728321980&#45;&gt;9101328452804319224 -->
<g id="edge24" class="edge">
<title>-2521205145728321980-&gt;9101328452804319224</title>
<path fill="none" stroke="black" d="M244.49,-176.42C242.86,-183.98 240.86,-193.29 238.8,-202.84"/>
<polygon fill="black" stroke="black" points="235.33,-202.32 236.65,-212.83 242.17,-203.8 235.33,-202.32"/>
</g>
<!-- &#45;5542854119486033042 -->
<g id="node17" class="node">
<title>-5542854119486033042</title>
<ellipse fill="none" stroke="black" cx="96.24" cy="-52" rx="51.99" ry="51.99"/>
<text text-anchor="middle" x="96.24" y="-48.3" font-family="Helvetica,sans-Serif" font-size="14.00">ones_like</text>
</g>
<!-- &#45;5542854119486033042&#45;&gt;&#45;6245055245975254336 -->
<g id="edge13" class="edge">
<title>-5542854119486033042-&gt;-6245055245975254336</title>
<path fill="none" stroke="black" d="M96.24,-104.08C96.24,-112.98 96.24,-121.91 96.24,-129.84"/>
<polygon fill="black" stroke="black" points="92.74,-129.93 96.24,-139.93 99.74,-129.93 92.74,-129.93"/>
</g>
<!-- &#45;5504161197549197292 -->
<g id="node18" class="node">
<title>-5504161197549197292</title>
<ellipse fill="none" stroke="black" cx="408.24" cy="-52" rx="51.99" ry="51.99"/>
<text text-anchor="middle" x="408.24" y="-48.3" font-family="Helvetica,sans-Serif" font-size="14.00">ones_like</text>
</g>
<!-- &#45;5504161197549197292&#45;&gt;262585510126744089 -->
<g id="edge14" class="edge">
<title>-5504161197549197292-&gt;262585510126744089</title>
<path fill="none" stroke="black" d="M408.24,-104.08C408.24,-112.98 408.24,-121.91 408.24,-129.84"/>
<polygon fill="black" stroke="black" points="404.74,-129.93 408.24,-139.93 411.74,-129.93 404.74,-129.93"/>
</g>
<!-- &#45;2142643226837149807 -->
<g id="node19" class="node">
<title>-2142643226837149807</title>
<ellipse fill="none" stroke="black" cx="560.24" cy="-52" rx="51.99" ry="51.99"/>
<text text-anchor="middle" x="560.24" y="-48.3" font-family="Helvetica,sans-Serif" font-size="14.00">ones_like</text>
</g>
<!-- &#45;2142643226837149807&#45;&gt;&#45;9028845901830320405 -->
<g id="edge15" class="edge">
<title>-2142643226837149807-&gt;-9028845901830320405</title>
<path fill="none" stroke="black" d="M560.24,-104.08C560.24,-112.98 560.24,-121.91 560.24,-129.84"/>
<polygon fill="black" stroke="black" points="556.74,-129.93 560.24,-139.93 563.74,-129.93 556.74,-129.93"/>
</g>
<!-- &#45;7345127514970090977 -->
<g id="node20" class="node">
<title>-7345127514970090977</title>
<ellipse fill="none" stroke="black" cx="248.24" cy="-52" rx="51.99" ry="51.99"/>
<text text-anchor="middle" x="248.24" y="-48.3" font-family="Helvetica,sans-Serif" font-size="14.00">ones_like</text>
</g>
<!-- &#45;7345127514970090977&#45;&gt;&#45;2521205145728321980 -->
<g id="edge16" class="edge">
<title>-7345127514970090977-&gt;-2521205145728321980</title>
<path fill="none" stroke="black" d="M248.24,-104.08C248.24,-112.98 248.24,-121.91 248.24,-129.84"/>
<polygon fill="black" stroke="black" points="244.74,-129.93 248.24,-139.93 251.74,-129.93 244.74,-129.93"/>
</g>
<!-- 7299055057320261289&#45;&gt;6669215202070555098 -->
<g id="edge17" class="edge">
<title>7299055057320261289-&gt;6669215202070555098</title>
<path fill="none" stroke="black" d="M149.13,-291.22C161.47,-304.29 175.43,-319.09 186.89,-331.24"/>
<polygon fill="black" stroke="black" points="184.61,-333.92 194.02,-338.79 189.7,-329.12 184.61,-333.92"/>
</g>
<!-- 7260362135383425539&#45;&gt;161574445968556673 -->
<g id="edge19" class="edge">
<title>7260362135383425539-&gt;161574445968556673</title>
<path fill="none" stroke="black" d="M460.62,-291.77C472.44,-304.71 485.73,-319.27 496.67,-331.26"/>
<polygon fill="black" stroke="black" points="494.15,-333.69 503.48,-338.71 499.32,-328.97 494.15,-333.69"/>
</g>
<!-- 8297201547655746182&#45;&gt;&#45;8993738215783930449 -->
<g id="edge21" class="edge">
<title>8297201547655746182-&gt;-8993738215783930449</title>
<path fill="none" stroke="black" d="M504.74,-287.74C487.95,-301.97 468.03,-318.86 452.21,-332.28"/>
<polygon fill="black" stroke="black" points="449.71,-329.81 444.34,-338.94 454.23,-335.15 449.71,-329.81"/>
</g>
<!-- 9101328452804319224&#45;&gt;2945365101823622742 -->
<g id="edge23" class="edge">
<title>9101328452804319224-&gt;2945365101823622742</title>
<path fill="none" stroke="black" d="M193.04,-287.74C176.4,-301.97 156.65,-318.86 140.96,-332.28"/>
<polygon fill="black" stroke="black" points="138.49,-329.78 133.17,-338.94 143.04,-335.1 138.49,-329.78"/>
</g>
<!-- 8333985728838566831 -->
<g id="node26" class="node">
<title>8333985728838566831</title>
<polygon fill="none" stroke="black" points="100.24,-783.37 46.24,-783.37 46.24,-747.37 100.24,-747.37 100.24,-783.37"/>
<text text-anchor="middle" x="73.24" y="-761.67" font-family="Helvetica,sans-Serif" font-size="14.00">(0, 0)</text>
</g>
<!-- &#45;2180643917947542661&#45;&gt;8333985728838566831 -->
<g id="edge25" class="edge">
<title>-2180643917947542661-&gt;8333985728838566831</title>
<path fill="none" stroke="black" d="M71.05,-711.62C71.43,-720.65 71.79,-729.45 72.11,-737.19"/>
<polygon fill="black" stroke="black" points="68.62,-737.5 72.54,-747.35 75.62,-737.21 68.62,-737.5"/>
</g>
<!-- 5772279279366621863 -->
<g id="node33" class="node">
<title>5772279279366621863</title>
<ellipse fill="none" stroke="black" cx="111.24" cy="-930.51" rx="111.28" ry="111.28"/>
<text text-anchor="middle" x="111.24" y="-926.81" font-family="Helvetica,sans-Serif" font-size="14.00">mean_combine-partial</text>
</g>
<!-- 8333985728838566831&#45;&gt;5772279279366621863 -->
<g id="edge35" class="edge">
<title>8333985728838566831-&gt;5772279279366621863</title>
<path fill="none" stroke="black" d="M77.24,-783.52C79.05,-791.3 81.36,-801.23 83.93,-812.24"/>
<polygon fill="black" stroke="black" points="80.56,-813.22 86.24,-822.17 87.38,-811.64 80.56,-813.22"/>
</g>
<!-- &#45;3605117588768986360 -->
<g id="node28" class="node">
<title>-3605117588768986360</title>
<polygon fill="none" stroke="black" points="239.24,-783.37 185.24,-783.37 185.24,-747.37 239.24,-747.37 239.24,-783.37"/>
<text text-anchor="middle" x="212.24" y="-761.67" font-family="Helvetica,sans-Serif" font-size="14.00">(0, 1)</text>
</g>
<!-- &#45;2984770823096115703&#45;&gt;&#45;3605117588768986360 -->
<g id="edge27" class="edge">
<title>-2984770823096115703-&gt;-3605117588768986360</title>
<path fill="none" stroke="black" d="M326.32,-689.88C317.51,-697.33 308.26,-704.76 299.24,-711.37 283.15,-723.16 264.33,-734.86 248.33,-744.25"/>
<polygon fill="black" stroke="black" points="246.17,-741.46 239.27,-749.5 249.68,-747.51 246.17,-741.46"/>
</g>
<!-- &#45;3605117588768986360&#45;&gt;5772279279366621863 -->
<g id="edge34" class="edge">
<title>-3605117588768986360-&gt;5772279279366621863</title>
<path fill="none" stroke="black" d="M201.63,-783.52C194.77,-794.59 185.22,-810.02 174.88,-826.72"/>
<polygon fill="black" stroke="black" points="171.69,-825.21 169.41,-835.56 177.65,-828.9 171.69,-825.21"/>
</g>
<!-- &#45;1495834215651356063 -->
<g id="node30" class="node">
<title>-1495834215651356063</title>
<polygon fill="none" stroke="black" points="467.24,-783.37 413.24,-783.37 413.24,-747.37 467.24,-747.37 467.24,-783.37"/>
<text text-anchor="middle" x="440.24" y="-761.67" font-family="Helvetica,sans-Serif" font-size="14.00">(0, 2)</text>
</g>
<!-- &#45;9065056312955901996&#45;&gt;&#45;1495834215651356063 -->
<g id="edge29" class="edge">
<title>-9065056312955901996-&gt;-1495834215651356063</title>
<path fill="none" stroke="black" d="M489.72,-698.26C479.06,-712.51 468.06,-727.21 459.14,-739.12"/>
<polygon fill="black" stroke="black" points="456.25,-737.14 453.06,-747.25 461.85,-741.34 456.25,-737.14"/>
</g>
<!-- 5184278691624051174 -->
<g id="node35" class="node">
<title>5184278691624051174</title>
<ellipse fill="none" stroke="black" cx="351.24" cy="-930.51" rx="111.28" ry="111.28"/>
<text text-anchor="middle" x="351.24" y="-926.81" font-family="Helvetica,sans-Serif" font-size="14.00">mean_combine-partial</text>
</g>
<!-- &#45;1495834215651356063&#45;&gt;5184278691624051174 -->
<g id="edge37" class="edge">
<title>-1495834215651356063-&gt;5184278691624051174</title>
<path fill="none" stroke="black" d="M430.89,-783.52C425.25,-793.84 417.56,-807.95 409.16,-823.35"/>
<polygon fill="black" stroke="black" points="405.86,-822.09 404.14,-832.54 412,-825.44 405.86,-822.09"/>
</g>
<!-- &#45;6388908244624052429 -->
<g id="node32" class="node">
<title>-6388908244624052429</title>
<polygon fill="none" stroke="black" points="313.24,-783.37 259.24,-783.37 259.24,-747.37 313.24,-747.37 313.24,-783.37"/>
<text text-anchor="middle" x="286.24" y="-761.67" font-family="Helvetica,sans-Serif" font-size="14.00">(0, 3)</text>
</g>
<!-- &#45;3982917313431600596&#45;&gt;&#45;6388908244624052429 -->
<g id="edge31" class="edge">
<title>-3982917313431600596-&gt;-6388908244624052429</title>
<path fill="none" stroke="black" d="M254.06,-703.89C260.48,-715.95 266.9,-728.03 272.31,-738.19"/>
<polygon fill="black" stroke="black" points="269.36,-740.09 277.15,-747.27 275.54,-736.8 269.36,-740.09"/>
</g>
<!-- &#45;6388908244624052429&#45;&gt;5184278691624051174 -->
<g id="edge38" class="edge">
<title>-6388908244624052429-&gt;5184278691624051174</title>
<path fill="none" stroke="black" d="M293.08,-783.52C296.64,-792.47 301.34,-804.26 306.53,-817.28"/>
<polygon fill="black" stroke="black" points="303.43,-818.95 310.38,-826.95 309.93,-816.36 303.43,-818.95"/>
</g>
<!-- &#45;5640338277316719320 -->
<g id="node34" class="node">
<title>-5640338277316719320</title>
<polygon fill="none" stroke="black" points="222.24,-1113.65 168.24,-1113.65 168.24,-1077.65 222.24,-1077.65 222.24,-1113.65"/>
<text text-anchor="middle" x="195.24" y="-1091.95" font-family="Helvetica,sans-Serif" font-size="14.00">(0, 0)</text>
</g>
<!-- 5772279279366621863&#45;&gt;&#45;5640338277316719320 -->
<g id="edge33" class="edge">
<title>5772279279366621863-&gt;-5640338277316719320</title>
<path fill="none" stroke="black" d="M161.8,-1029.7C169.17,-1044 176.16,-1057.59 181.84,-1068.61"/>
<polygon fill="black" stroke="black" points="178.77,-1070.29 186.46,-1077.58 184.99,-1067.09 178.77,-1070.29"/>
</g>
<!-- &#45;2443818928822132005 -->
<g id="node37" class="node">
<title>-2443818928822132005</title>
<ellipse fill="none" stroke="black" cx="231.24" cy="-1256.24" rx="106.68" ry="106.68"/>
<text text-anchor="middle" x="231.24" y="-1252.54" font-family="Helvetica,sans-Serif" font-size="14.00">mean_agg-aggregate</text>
</g>
<!-- &#45;5640338277316719320&#45;&gt;&#45;2443818928822132005 -->
<g id="edge40" class="edge">
<title>-5640338277316719320-&gt;-2443818928822132005</title>
<path fill="none" stroke="black" d="M199.17,-1113.92C200.9,-1121.54 203.09,-1131.2 205.51,-1141.87"/>
<polygon fill="black" stroke="black" points="202.16,-1142.94 207.79,-1151.92 208.99,-1141.4 202.16,-1142.94"/>
</g>
<!-- 7913331767420135930 -->
<g id="node36" class="node">
<title>7913331767420135930</title>
<polygon fill="none" stroke="black" points="336.24,-1113.65 282.24,-1113.65 282.24,-1077.65 336.24,-1077.65 336.24,-1113.65"/>
<text text-anchor="middle" x="309.24" y="-1091.95" font-family="Helvetica,sans-Serif" font-size="14.00">(0, 1)</text>
</g>
<!-- 5184278691624051174&#45;&gt;7913331767420135930 -->
<g id="edge36" class="edge">
<title>5184278691624051174-&gt;7913331767420135930</title>
<path fill="none" stroke="black" d="M323.7,-1038.5C320.96,-1049.14 318.38,-1059.14 316.19,-1067.67"/>
<polygon fill="black" stroke="black" points="312.73,-1067.07 313.63,-1077.62 319.51,-1068.81 312.73,-1067.07"/>
</g>
<!-- 7913331767420135930&#45;&gt;&#45;2443818928822132005 -->
<g id="edge41" class="edge">
<title>7913331767420135930-&gt;-2443818928822132005</title>
<path fill="none" stroke="black" d="M300.75,-1113.92C295.94,-1123.69 289.49,-1136.81 282.45,-1151.12"/>
<polygon fill="black" stroke="black" points="279.27,-1149.65 278,-1160.17 285.55,-1152.74 279.27,-1149.65"/>
</g>
<!-- &#45;5237729981353851385 -->
<g id="node38" class="node">
<title>-5237729981353851385</title>
<polygon fill="none" stroke="black" points="258.24,-1434.83 204.24,-1434.83 204.24,-1398.83 258.24,-1398.83 258.24,-1434.83"/>
<text text-anchor="middle" x="231.24" y="-1413.13" font-family="Helvetica,sans-Serif" font-size="14.00">()</text>
</g>
<!-- &#45;2443818928822132005&#45;&gt;&#45;5237729981353851385 -->
<g id="edge39" class="edge">
<title>-2443818928822132005-&gt;-5237729981353851385</title>
<path fill="none" stroke="black" d="M231.24,-1363.02C231.24,-1372.18 231.24,-1380.81 231.24,-1388.33"/>
<polygon fill="black" stroke="black" points="227.74,-1388.5 231.24,-1398.5 234.74,-1388.5 227.74,-1388.5"/>
</g>
</g>
</svg>